<?xml version="1.0" encoding="utf-8" standalone="no"?>
<!DOCTYPE svg PUBLIC "-//W3C//DTD SVG 1.1//EN"
  "http://www.w3.org/Graphics/SVG/1.1/DTD/svg11.dtd">
<!-- Created with matplotlib (http://matplotlib.org/) -->
<svg height="288pt" version="1.1" viewBox="0 0 432 288" width="432pt" xmlns="http://www.w3.org/2000/svg" xmlns:xlink="http://www.w3.org/1999/xlink">
 <defs>
  <style type="text/css">
*{stroke-linecap:square;stroke-linejoin:round;}
  </style>
 </defs>
 <g id="figure_1">
  <g id="patch_1">
   <path d="
M0 288
L432 288
L432 0
L0 0
z
" style="fill:#ffffff;"/>
  </g>
  <g id="axes_1">
   <g id="patch_2">
    <path d="
M54 252
L388.8 252
L388.8 28.8
L54 28.8
z
" style="fill:#ffffff;"/>
   </g>
   <g id="line2d_1">
    <path clip-path="url(#p124b8dd147)" d="
M54 234.805
L54.4185 234.286
L54.837 234.174
L56.0925 234.397
L56.511 234.376
L56.9295 234.171
L57.348 233.819
L57.7665 233.669
L59.022 233.914
L59.859 234.26
L62.7885 233.789
L63.6255 234.147
L64.044 234.346
L64.4625 234.4
L65.2995 234.232
L66.1365 233.883
L66.9735 233.956
L67.392 234.292
L67.8105 234.781
L68.229 234.833
L69.066 234.134
L69.903 234.218
L70.3215 234.194
L71.1585 233.96
L71.577 233.97
L73.251 234.553
L74.088 235.547
L74.5065 235.484
L75.762 234.171
L76.1805 233.887
L77.436 233.896
L78.273 233.871
L78.6915 233.809
L79.947 234.172
L80.784 234.402
L82.0395 234.438
L82.8765 233.948
L83.7135 233.793
L84.5505 234.322
L84.969 234.283
L85.3875 234.113
L85.806 234.281
L86.2245 234.575
L87.8985 235.232
L88.317 234.96
L88.7355 234.461
L89.154 234.173
L90.828 234
L92.502 234.22
L93.339 234.022
L93.7575 233.883
L96.687 233.774
L97.524 233.779
L98.361 234.135
L99.6165 233.907
L100.454 233.602
L101.709 233.299
L102.127 233.344
L102.546 233.614
L103.383 234.379
L103.802 234.715
L104.22 234.898
L105.057 234.595
L105.476 234.746
L105.894 235.05
L106.312 235.129
L107.15 234.755
L109.242 235.082
L110.079 234.659
L110.498 234.508
L110.916 234.152
L111.335 233.98
L111.753 234.215
L112.172 234.671
L112.59 234.824
L113.008 234.695
L113.846 234.68
L114.683 233.907
L115.101 233.857
L116.775 234.196
L117.612 233.92
L118.449 233.926
L118.868 234.002
L119.705 233.905
L120.123 233.986
L120.96 234.333
L122.634 233.719
L123.053 233.744
L124.308 233.381
L126.401 233.755
L128.075 234.425
L128.911 234.359
L129.749 233.89
L131.423 233.578
L133.096 233.669
L134.352 233.995
L136.026 233.306
L136.863 233.467
L137.7 233.817
L138.119 234.071
L138.537 234.058
L138.956 233.389
L139.374 232.369
L139.793 231.81
L140.211 232.18
L141.048 233.552
L141.466 233.989
L141.885 233.986
L142.722 233.362
L143.141 233.252
L144.396 233.897
L144.815 233.838
L145.233 233.907
L146.07 234.203
L146.907 233.815
L147.326 233.651
L149.837 233.675
L150.255 233.804
L151.092 233.873
L152.766 234.335
L153.185 234.362
L154.44 233.652
L156.114 233.65
L156.951 233.761
L157.37 233.789
L158.207 234.1
L158.625 234.122
L159.881 233.703
L161.136 233.617
L164.066 233.673
L164.484 233.638
L166.158 234.041
L166.577 234.071
L167.413 234.445
L167.832 234.292
L168.669 233.765
L169.088 233.789
L169.925 233.995
L170.762 233.62
L171.18 233.625
L172.435 233.295
L173.691 233.459
L174.11 233.575
L174.528 233.544
L174.947 233.378
L175.365 233.365
L176.202 233.642
L178.713 232.959
L179.55 232.932
L180.387 232.972
L180.805 232.868
L181.224 232.932
L182.061 233.199
L184.154 233.258
L184.991 233.735
L186.246 233.834
L187.083 233.002
L187.502 232.87
L188.339 232.921
L188.757 233.121
L189.175 233.525
L189.594 233.713
L190.85 232.691
L192.524 233.056
L193.361 232.919
L193.779 232.888
L194.616 232.225
L196.29 231.878
L197.127 231.567
L198.383 231.999
L199.638 231.754
L200.056 231.866
L200.475 231.713
L201.312 230.661
L201.731 230.584
L202.149 230.711
L202.568 230.489
L204.66 227.974
L205.497 227.287
L205.916 226.328
L206.753 224.07
L207.59 222.387
L208.427 218.998
L209.264 214.474
L210.101 208.017
L210.938 199.239
L211.775 188.147
L212.612 174.724
L213.449 155.549
L215.96 76.5511
L216.797 35.3651
L217.215 30.3004
L217.634 44.4102
L218.889 119.322
L219.726 152.105
L220.563 174.995
L221.4 191.643
L222.237 202.659
L223.074 210.807
L223.911 216.156
L224.748 220.025
L225.585 222.928
L226.841 226.698
L227.259 227.391
L228.515 228.468
L230.189 229.923
L231.444 230.852
L232.7 232.463
L233.118 232.485
L233.955 231.501
L234.374 231.662
L235.211 232.753
L235.629 232.829
L236.048 233.078
L236.466 233.529
L236.885 233.303
L237.303 232.61
L237.722 232.246
L238.14 232.363
L238.977 232.808
L240.651 232.674
L241.488 232.896
L242.325 232.969
L243.162 233.216
L244.418 233.06
L244.836 233.076
L245.255 233.256
L246.092 233.975
L246.51 234.113
L247.766 233.302
L248.603 233.231
L250.277 233.376
L250.695 233.403
L252.369 233.018
L254.043 233.154
L254.88 233.469
L255.717 233.238
L256.554 233.062
L258.228 233.119
L259.902 233.505
L260.739 233.412
L261.576 233.208
L262.413 233.402
L262.832 233.585
L263.668 233.591
L264.505 233.62
L265.761 234.545
L266.598 234.176
L267.435 234.466
L268.691 233.755
L272.038 233.664
L273.294 233.748
L274.131 233.387
L274.55 233.491
L275.805 234.395
L276.224 234.252
L277.061 233.636
L277.898 233.555
L278.735 233.559
L280.827 233.667
L281.245 233.761
L282.082 233.59
L282.92 233.672
L283.757 233.5
L284.594 233.903
L286.268 233.918
L286.686 234.121
L287.105 234.131
L287.942 233.875
L289.197 233.785
L290.452 234.005
L290.871 233.747
L291.29 233.772
L292.127 234.401
L292.545 234.518
L292.964 234.399
L293.801 233.845
L295.893 233.631
L297.986 233.889
L298.822 234.48
L299.241 234.658
L299.66 234.658
L300.497 233.896
L301.334 233.628
L302.589 233.68
L303.845 233.653
L304.682 233.82
L305.937 233.707
L306.774 233.732
L308.029 233.82
L308.867 233.756
L309.704 233.656
L311.796 233.736
L312.215 233.657
L315.144 233.876
L316.818 233.905
L317.655 234.555
L318.074 234.568
L318.911 233.802
L320.585 233.795
L321.003 233.679
L321.422 233.723
L321.84 233.917
L322.259 233.899
L322.677 233.76
L324.351 233.812
L325.188 233.847
L326.025 234.288
L326.444 234.173
L326.862 233.884
L327.281 233.785
L328.118 233.776
L328.536 233.765
L329.792 234.11
L330.21 234.065
L330.629 233.85
L331.047 233.853
L331.884 234.221
L332.303 234.24
L333.558 233.96
L333.977 233.887
L334.814 233.97
L336.069 233.889
L336.906 233.833
L338.162 233.798
L338.999 233.842
L339.417 233.889
L340.673 233.757
L341.091 233.818
L341.928 234.203
L342.347 234.194
L343.602 233.779
L344.858 233.718
L346.113 233.748
L346.95 233.875
L347.369 233.867
L347.787 234.157
L348.206 234.589
L348.624 234.611
L349.461 233.884
L349.88 233.744
L350.717 233.875
L351.972 233.74
L352.809 233.728
L353.646 233.998
L354.065 233.956
L354.483 233.795
L354.902 233.835
L355.32 234.109
L355.739 234.165
L356.576 233.743
L356.994 233.682
L359.087 233.989
L359.924 233.87
L360.761 234.128
L361.179 234.355
L361.598 234.374
L362.435 234.136
L366.201 234.018
L366.62 233.912
L370.805 234.087
L371.642 234.024
L372.479 234.037
L372.897 233.948
L373.734 234.075
L374.571 234.153
L375.408 234.132
L376.664 234.232
L379.175 233.956
L379.175 233.956" style="fill:none;stroke:#0000ff;"/>
   </g>
   <g id="line2d_2">
    <path clip-path="url(#p124b8dd147)" d="
M54 239.185
L55.2555 239.365
L57.7665 239.178
L60.696 239.312
L61.533 239.309
L62.37 239.352
L63.6255 239.325
L65.2995 239.504
L67.392 239.183
L68.6475 239.285
L70.3215 239.545
L72.414 239.404
L73.251 239.685
L74.088 240.17
L75.3435 239.829
L76.1805 239.459
L79.11 239.204
L80.3655 239.507
L80.784 239.685
L82.0395 239.738
L82.458 239.644
L83.295 239.313
L85.3875 239.323
L86.2245 239.511
L87.48 239.98
L88.317 239.795
L89.5725 239.298
L90.828 239.212
L92.0835 239.274
L93.339 239.387
L94.5945 239.193
L97.9425 239.159
L99.6165 239.561
L101.291 239.002
L102.965 239.419
L103.383 239.383
L104.22 239.058
L105.057 239.025
L107.15 239.405
L107.987 239.598
L108.823 239.21
L109.661 239.203
L110.916 239.3
L112.172 239.078
L121.797 239.207
L123.471 239.098
L126.401 239.131
L128.911 239.331
L130.167 239.04
L132.678 239.054
L134.352 239.198
L136.026 238.855
L136.863 239.049
L138.537 239.545
L138.956 239.497
L139.374 239.315
L139.793 239.323
L140.63 239.71
L141.466 239.888
L141.885 239.779
L142.722 239.133
L143.141 238.941
L143.978 238.976
L145.651 239.227
L146.488 239.331
L147.744 239.004
L149.837 239.098
L152.766 239.47
L153.603 239.512
L154.858 239.105
L166.158 239.282
L167.413 239.48
L168.669 239.169
L170.762 239.218
L172.435 239.024
L174.947 239.053
L176.202 238.91
L182.898 238.947
L183.735 239.039
L184.572 239.03
L186.246 239.332
L187.502 238.713
L188.757 238.69
L189.594 238.665
L190.431 238.573
L192.942 238.708
L193.361 238.668
L193.779 238.756
L194.198 238.707
L195.035 238.258
L196.29 238.024
L197.964 237.837
L198.801 237.902
L199.638 237.961
L200.475 237.959
L203.405 236.178
L204.66 235.191
L205.916 233.792
L206.753 232.658
L207.59 231.156
L208.008 230.191
L208.845 227.39
L209.682 224.047
L210.519 219.698
L211.775 211.626
L213.03 201.734
L214.286 190.248
L214.704 188.426
L215.123 188.596
L215.541 190.113
L215.96 192.548
L216.797 199.058
L217.215 197.997
L217.634 194.534
L218.052 189.84
L218.889 178.408
L219.308 178.003
L219.726 180.81
L220.563 190.001
L221.819 205.647
L222.656 213.942
L223.493 220.238
L224.33 224.795
L225.167 228.247
L226.004 230.757
L226.841 232.614
L227.678 233.794
L228.933 235.114
L231.026 236.692
L232.281 237.352
L233.537 237.307
L234.792 237.686
L236.048 238.201
L236.885 238.447
L237.722 238.159
L238.559 238.194
L242.325 238.62
L246.929 238.823
L247.766 238.774
L249.858 238.811
L250.695 238.517
L251.114 238.508
L252.369 238.779
L254.88 238.962
L256.135 238.982
L256.973 238.8
L266.598 239.027
L268.691 239.072
L270.365 238.993
L273.713 239.014
L275.805 239.116
L277.061 239.141
L278.735 239.042
L285.431 239.09
L297.567 239.231
L298.822 239.556
L299.66 239.428
L300.915 239.172
L303.008 239.112
L308.029 239.115
L315.562 239.12
L320.585 239.142
L342.347 239.138
L346.95 239.179
L354.902 239.107
L359.505 239.117
L363.69 239.107
L369.968 239.118
L373.316 239.127
L379.175 239.137
L379.175 239.137" style="fill:none;stroke:#008000;"/>
   </g>
   <g id="line2d_3">
    <path clip-path="url(#p124b8dd147)" d="
M54 193.594
L54.4185 193.42
L55.674 193.422
L56.511 193.121
L57.348 192.541
L57.7665 192.466
L58.6035 192.794
L59.022 193.047
L59.4405 193.149
L60.696 192.863
L62.7885 193.17
L63.6255 193.557
L64.4625 194.021
L64.881 193.985
L66.1365 192.945
L66.555 193.065
L66.9735 193.354
L67.392 193.435
L67.8105 193.273
L68.229 193.261
L68.6475 193.455
L69.4845 194.114
L69.903 194.174
L70.3215 193.94
L71.577 192.752
L71.9955 192.798
L72.414 193.476
L73.6695 196.831
L74.088 197.151
L74.5065 196.614
L75.762 193.93
L76.1805 193.521
L77.0175 193.476
L77.436 193.248
L78.273 192.466
L78.6915 192.339
L79.11 192.538
L79.947 193.444
L80.784 194.703
L81.2025 194.948
L81.621 194.917
L82.0395 194.545
L82.8765 193.365
L83.295 193.364
L84.132 193.925
L85.3875 193.708
L85.806 194.049
L86.2245 194.723
L87.0615 196.384
L87.48 196.483
L87.8985 196.01
L89.154 193.651
L89.5725 193.292
L90.4095 193.115
L91.2465 193.136
L92.0835 193.422
L92.502 193.64
L92.9205 193.674
L94.5945 192.915
L95.4315 192.92
L96.687 193.137
L97.524 192.897
L97.9425 193.374
L99.198 195.823
L99.6165 195.735
L100.454 193.728
L100.872 193.211
L101.291 193.415
L101.709 194.132
L102.546 196.049
L102.965 196.655
L103.383 196.411
L103.802 195.633
L104.22 195.192
L104.639 195.399
L105.057 195.814
L105.476 195.778
L105.894 195.542
L106.312 195.7
L107.15 196.612
L107.568 197.186
L107.987 197.313
L108.405 196.613
L109.242 194.751
L109.661 194.339
L110.498 193.973
L111.335 193.439
L111.753 193.416
L113.008 193.802
L114.264 192.737
L114.683 192.566
L115.52 192.638
L116.357 192.822
L118.449 192.617
L119.286 192.778
L120.541 193.178
L120.96 193.115
L122.634 192.337
L124.308 192.592
L125.982 192.569
L126.401 192.656
L127.238 193.212
L127.656 193.53
L128.075 193.69
L128.493 193.597
L129.749 192.469
L130.586 192.316
L131.841 192.359
L132.26 192.48
L133.934 193.839
L134.352 193.73
L135.189 192.954
L135.608 192.797
L136.026 192.907
L136.445 193.197
L136.863 193.824
L137.7 195.391
L138.119 195.769
L138.537 195.817
L138.956 195.649
L139.374 195.638
L139.793 196.145
L140.63 197.915
L141.048 198.446
L141.466 198.297
L141.885 197.285
L142.304 195.944
L142.722 195.08
L143.141 194.868
L143.978 194.744
L144.396 194.604
L144.815 194.617
L145.651 194.957
L146.07 194.822
L146.488 194.323
L147.326 193.073
L147.744 192.824
L148.581 192.754
L150.673 193.204
L151.092 193.266
L151.511 193.492
L152.766 194.907
L153.185 194.822
L153.603 194.321
L154.44 193.043
L154.858 192.847
L155.696 193.01
L157.37 193.724
L157.788 193.711
L159.043 193.289
L161.136 193.046
L162.392 193.079
L163.228 193.314
L164.066 193.565
L165.321 193.559
L166.158 194.575
L166.577 195.107
L166.995 195.363
L167.413 195.157
L167.832 194.628
L168.251 194.325
L169.088 194.709
L169.506 194.875
L169.925 194.902
L170.343 194.692
L171.18 194.014
L172.017 193.74
L172.435 193.781
L174.11 194.405
L174.528 194.333
L175.365 193.982
L176.62 193.918
L177.876 193.903
L181.643 194.476
L183.317 195.563
L184.154 195.518
L184.572 195.931
L185.409 197.22
L185.828 197.534
L186.246 197.207
L187.083 195.769
L187.502 195.698
L187.92 196.159
L188.757 197.307
L189.175 197.245
L190.013 196.434
L190.431 196.311
L190.85 196.488
L191.687 197.254
L192.524 198.15
L193.361 198.517
L193.779 198.461
L195.035 197.048
L195.453 196.988
L196.709 197.235
L197.546 197.619
L197.964 197.874
L198.383 198.318
L199.638 200.5
L200.056 200.868
L200.475 200.808
L200.894 200.498
L201.312 200.353
L202.986 200.855
L205.916 202.366
L208.008 204.737
L208.845 205.131
L209.682 205.831
L211.356 207.698
L212.193 209.185
L213.867 212.801
L214.286 214.097
L215.541 219.006
L215.96 219.729
L216.378 219.662
L216.797 218.935
L220.563 208.725
L221.819 206.652
L223.074 205.07
L224.33 203.796
L224.748 203.503
L225.167 203.411
L226.004 203.633
L226.422 203.531
L226.841 203.037
L227.678 201.769
L228.515 201.008
L230.189 200.162
L230.607 200.243
L231.444 200.737
L231.863 200.746
L232.281 200.269
L233.118 198.875
L233.537 198.562
L233.955 198.407
L234.374 198.434
L234.792 198.74
L235.629 199.911
L236.048 200.11
L236.466 199.777
L237.722 197.226
L238.14 196.953
L238.977 196.876
L240.233 196.998
L241.07 197.084
L241.488 196.957
L243.581 195.794
L244.418 195.644
L246.092 196.136
L247.347 195.488
L247.766 195.517
L249.44 196.052
L249.858 195.95
L250.695 195.349
L251.532 194.625
L251.951 194.444
L252.788 194.483
L253.625 194.893
L254.462 195.481
L255.299 195.666
L255.717 195.519
L257.391 194.057
L261.158 193.479
L263.25 193.667
L263.668 193.862
L264.924 195.138
L266.598 194.91
L267.435 194.223
L269.946 193.248
L271.202 193.239
L272.457 193.634
L273.713 193.389
L274.968 193.457
L275.805 193.646
L276.224 193.65
L276.642 193.501
L277.479 192.988
L278.316 192.831
L279.153 192.795
L280.827 193.124
L282.501 192.747
L282.92 192.89
L283.757 193.458
L284.175 193.496
L285.012 193.129
L287.523 193.07
L288.36 193.009
L289.197 192.859
L290.452 192.942
L291.29 193.434
L291.708 193.409
L293.801 192.714
L294.638 192.674
L296.73 192.784
L297.567 193.04
L298.404 193.854
L298.822 193.974
L299.241 193.768
L300.078 192.959
L300.915 192.568
L301.752 192.524
L306.774 192.477
L308.029 192.444
L310.122 192.342
L311.377 192.361
L313.052 192.436
L320.166 192.524
L321.003 192.69
L322.259 192.596
L324.77 192.432
L327.281 192.413
L329.792 192.636
L330.629 193.073
L331.466 193.671
L331.884 193.616
L333.139 192.875
L336.069 192.279
L337.325 192.235
L339.836 192.209
L341.51 192.534
L343.602 192.24
L345.695 192.304
L346.113 192.409
L346.95 192.972
L347.369 193.338
L347.787 193.422
L349.043 192.646
L349.88 192.495
L352.391 192.223
L354.902 192.17
L358.668 192.099
L363.272 192.145
L364.527 192.225
L368.712 192.125
L372.06 192.043
L373.734 192.099
L374.571 192.222
L375.827 192.616
L377.501 192.261
L378.338 192.335
L378.756 192.557
L379.175 192.944
L379.175 192.944" style="fill:none;stroke:#ff0000;"/>
   </g>
   <g id="line2d_4">
    <path clip-path="url(#p124b8dd147)" d="
M54 246.359
L58.6035 246.335
L65.2995 246.397
L67.392 246.259
L71.1585 246.366
L71.9955 246.343
L74.088 246.806
L76.599 246.4
L79.5285 246.36
L82.0395 246.527
L84.132 246.493
L87.48 246.767
L90.828 246.33
L92.9205 246.418
L94.176 246.343
L95.85 246.327
L97.1055 246.315
L97.9425 246.483
L98.7795 246.631
L100.035 246.69
L100.872 246.489
L102.127 246.607
L103.383 246.588
L105.057 246.364
L105.894 246.477
L106.731 246.682
L107.568 246.716
L108.405 246.805
L109.242 246.709
L110.498 246.384
L113.008 246.235
L136.863 246.426
L137.7 246.654
L138.956 246.832
L139.793 247.061
L140.211 247.249
L140.63 247.274
L143.978 246.396
L146.07 246.454
L151.092 246.323
L153.185 246.471
L158.207 246.289
L165.74 246.409
L166.577 246.478
L180.805 246.294
L183.317 246.396
L184.572 246.513
L185.409 246.568
L186.665 246.509
L187.502 246.395
L189.175 246.397
L190.431 246.299
L192.942 246.608
L196.709 246.346
L198.383 246.427
L199.22 246.627
L202.568 246.495
L205.497 246.312
L208.008 246.221
L209.682 245.796
L211.775 245.05
L212.193 245.036
L213.449 245.563
L213.867 245.541
L214.286 245.729
L214.704 246.422
L215.541 248.642
L215.96 249.094
L216.378 248.888
L217.215 247.352
L218.052 246.083
L218.471 245.705
L218.889 245.496
L220.145 245.297
L220.982 245.349
L226.422 246.365
L227.678 246.378
L230.189 246.443
L231.026 246.551
L234.792 246.459
L235.629 246.599
L241.907 246.314
L247.347 246.155
L248.184 246.141
L249.858 246.315
L254.043 246.412
L254.88 246.498
L256.554 246.389
L258.228 246.286
L264.505 246.292
L267.435 246.31
L275.387 246.314
L296.73 246.291
L297.986 246.369
L299.241 246.608
L300.497 246.373
L301.752 246.261
L305.937 246.24
L314.307 246.27
L318.074 246.247
L374.571 246.243
L377.501 246.245
L379.175 246.246
L379.175 246.246" style="fill:none;stroke:#00bfbf;"/>
   </g>
   <g id="matplotlib.axis_1">
    <g id="xtick_1">
     <g id="line2d_5">
      <defs>
       <path d="
M0 0
L0 -4" id="mcb557df647" style="stroke:#000000;stroke-linecap:butt;stroke-width:0.5;"/>
      </defs>
      <g>
       <use style="stroke:#000000;stroke-linecap:butt;stroke-width:0.5;" x="54.0" xlink:href="#mcb557df647" y="252.0"/>
      </g>
     </g>
     <g id="line2d_6">
      <defs>
       <path d="
M0 0
L0 4" id="mdad270ee8e" style="stroke:#000000;stroke-linecap:butt;stroke-width:0.5;"/>
      </defs>
      <g>
       <use style="stroke:#000000;stroke-linecap:butt;stroke-width:0.5;" x="54.0" xlink:href="#mdad270ee8e" y="28.8"/>
      </g>
     </g>
     <g id="text_1">
      <!-- 0 -->
      <defs>
       <path d="
M31.7812 66.4062
Q24.1719 66.4062 20.3281 58.9062
Q16.5 51.4219 16.5 36.375
Q16.5 21.3906 20.3281 13.8906
Q24.1719 6.39062 31.7812 6.39062
Q39.4531 6.39062 43.2812 13.8906
Q47.125 21.3906 47.125 36.375
Q47.125 51.4219 43.2812 58.9062
Q39.4531 66.4062 31.7812 66.4062
M31.7812 74.2188
Q44.0469 74.2188 50.5156 64.5156
Q56.9844 54.8281 56.9844 36.375
Q56.9844 17.9688 50.5156 8.26562
Q44.0469 -1.42188 31.7812 -1.42188
Q19.5312 -1.42188 13.0625 8.26562
Q6.59375 17.9688 6.59375 36.375
Q6.59375 54.8281 13.0625 64.5156
Q19.5312 74.2188 31.7812 74.2188" id="DejaVuSans-30"/>
      </defs>
      <g transform="translate(51.48046875 263.421875)scale(0.1 -0.1)">
       <use xlink:href="#DejaVuSans-30"/>
      </g>
     </g>
    </g>
    <g id="xtick_2">
     <g id="line2d_7">
      <g>
       <use style="stroke:#000000;stroke-linecap:butt;stroke-width:0.5;" x="95.85" xlink:href="#mcb557df647" y="252.0"/>
      </g>
     </g>
     <g id="line2d_8">
      <g>
       <use style="stroke:#000000;stroke-linecap:butt;stroke-width:0.5;" x="95.85" xlink:href="#mdad270ee8e" y="28.8"/>
      </g>
     </g>
     <g id="text_2">
      <!-- 100 -->
      <defs>
       <path d="
M12.4062 8.29688
L28.5156 8.29688
L28.5156 63.9219
L10.9844 60.4062
L10.9844 69.3906
L28.4219 72.9062
L38.2812 72.9062
L38.2812 8.29688
L54.3906 8.29688
L54.3906 0
L12.4062 0
z
" id="DejaVuSans-31"/>
      </defs>
      <g transform="translate(87.1875 263.421875)scale(0.1 -0.1)">
       <use xlink:href="#DejaVuSans-31"/>
       <use x="63.623046875" xlink:href="#DejaVuSans-30"/>
       <use x="127.24609375" xlink:href="#DejaVuSans-30"/>
      </g>
     </g>
    </g>
    <g id="xtick_3">
     <g id="line2d_9">
      <g>
       <use style="stroke:#000000;stroke-linecap:butt;stroke-width:0.5;" x="137.7" xlink:href="#mcb557df647" y="252.0"/>
      </g>
     </g>
     <g id="line2d_10">
      <g>
       <use style="stroke:#000000;stroke-linecap:butt;stroke-width:0.5;" x="137.7" xlink:href="#mdad270ee8e" y="28.8"/>
      </g>
     </g>
     <g id="text_3">
      <!-- 200 -->
      <defs>
       <path d="
M19.1875 8.29688
L53.6094 8.29688
L53.6094 0
L7.32812 0
L7.32812 8.29688
Q12.9375 14.1094 22.625 23.8906
Q32.3281 33.6875 34.8125 36.5312
Q39.5469 41.8438 41.4219 45.5312
Q43.3125 49.2188 43.3125 52.7812
Q43.3125 58.5938 39.2344 62.25
Q35.1562 65.9219 28.6094 65.9219
Q23.9688 65.9219 18.8125 64.3125
Q13.6719 62.7031 7.8125 59.4219
L7.8125 69.3906
Q13.7656 71.7812 18.9375 73
Q24.125 74.2188 28.4219 74.2188
Q39.75 74.2188 46.4844 68.5469
Q53.2188 62.8906 53.2188 53.4219
Q53.2188 48.9219 51.5312 44.8906
Q49.8594 40.875 45.4062 35.4062
Q44.1875 33.9844 37.6406 27.2188
Q31.1094 20.4531 19.1875 8.29688" id="DejaVuSans-32"/>
      </defs>
      <g transform="translate(128.8546875 263.421875)scale(0.1 -0.1)">
       <use xlink:href="#DejaVuSans-32"/>
       <use x="63.623046875" xlink:href="#DejaVuSans-30"/>
       <use x="127.24609375" xlink:href="#DejaVuSans-30"/>
      </g>
     </g>
    </g>
    <g id="xtick_4">
     <g id="line2d_11">
      <g>
       <use style="stroke:#000000;stroke-linecap:butt;stroke-width:0.5;" x="179.55" xlink:href="#mcb557df647" y="252.0"/>
      </g>
     </g>
     <g id="line2d_12">
      <g>
       <use style="stroke:#000000;stroke-linecap:butt;stroke-width:0.5;" x="179.55" xlink:href="#mdad270ee8e" y="28.8"/>
      </g>
     </g>
     <g id="text_4">
      <!-- 300 -->
      <defs>
       <path d="
M40.5781 39.3125
Q47.6562 37.7969 51.625 33
Q55.6094 28.2188 55.6094 21.1875
Q55.6094 10.4062 48.1875 4.48438
Q40.7656 -1.42188 27.0938 -1.42188
Q22.5156 -1.42188 17.6562 -0.515625
Q12.7969 0.390625 7.625 2.20312
L7.625 11.7188
Q11.7188 9.32812 16.5938 8.10938
Q21.4844 6.89062 26.8125 6.89062
Q36.0781 6.89062 40.9375 10.5469
Q45.7969 14.2031 45.7969 21.1875
Q45.7969 27.6406 41.2812 31.2656
Q36.7656 34.9062 28.7188 34.9062
L20.2188 34.9062
L20.2188 43.0156
L29.1094 43.0156
Q36.375 43.0156 40.2344 45.9219
Q44.0938 48.8281 44.0938 54.2969
Q44.0938 59.9062 40.1094 62.9062
Q36.1406 65.9219 28.7188 65.9219
Q24.6562 65.9219 20.0156 65.0312
Q15.375 64.1562 9.8125 62.3125
L9.8125 71.0938
Q15.4375 72.6562 20.3438 73.4375
Q25.25 74.2188 29.5938 74.2188
Q40.8281 74.2188 47.3594 69.1094
Q53.9062 64.0156 53.9062 55.3281
Q53.9062 49.2656 50.4375 45.0938
Q46.9688 40.9219 40.5781 39.3125" id="DejaVuSans-33"/>
      </defs>
      <g transform="translate(170.71953125 263.421875)scale(0.1 -0.1)">
       <use xlink:href="#DejaVuSans-33"/>
       <use x="63.623046875" xlink:href="#DejaVuSans-30"/>
       <use x="127.24609375" xlink:href="#DejaVuSans-30"/>
      </g>
     </g>
    </g>
    <g id="xtick_5">
     <g id="line2d_13">
      <g>
       <use style="stroke:#000000;stroke-linecap:butt;stroke-width:0.5;" x="221.4" xlink:href="#mcb557df647" y="252.0"/>
      </g>
     </g>
     <g id="line2d_14">
      <g>
       <use style="stroke:#000000;stroke-linecap:butt;stroke-width:0.5;" x="221.4" xlink:href="#mdad270ee8e" y="28.8"/>
      </g>
     </g>
     <g id="text_5">
      <!-- 400 -->
      <defs>
       <path d="
M37.7969 64.3125
L12.8906 25.3906
L37.7969 25.3906
z

M35.2031 72.9062
L47.6094 72.9062
L47.6094 25.3906
L58.0156 25.3906
L58.0156 17.1875
L47.6094 17.1875
L47.6094 0
L37.7969 0
L37.7969 17.1875
L4.89062 17.1875
L4.89062 26.7031
z
" id="DejaVuSans-34"/>
      </defs>
      <g transform="translate(212.4328125 263.421875)scale(0.1 -0.1)">
       <use xlink:href="#DejaVuSans-34"/>
       <use x="63.623046875" xlink:href="#DejaVuSans-30"/>
       <use x="127.24609375" xlink:href="#DejaVuSans-30"/>
      </g>
     </g>
    </g>
    <g id="xtick_6">
     <g id="line2d_15">
      <g>
       <use style="stroke:#000000;stroke-linecap:butt;stroke-width:0.5;" x="263.25" xlink:href="#mcb557df647" y="252.0"/>
      </g>
     </g>
     <g id="line2d_16">
      <g>
       <use style="stroke:#000000;stroke-linecap:butt;stroke-width:0.5;" x="263.25" xlink:href="#mdad270ee8e" y="28.8"/>
      </g>
     </g>
     <g id="text_6">
      <!-- 500 -->
      <defs>
       <path d="
M10.7969 72.9062
L49.5156 72.9062
L49.5156 64.5938
L19.8281 64.5938
L19.8281 46.7344
Q21.9688 47.4688 24.1094 47.8281
Q26.2656 48.1875 28.4219 48.1875
Q40.625 48.1875 47.75 41.5
Q54.8906 34.8125 54.8906 23.3906
Q54.8906 11.625 47.5625 5.09375
Q40.2344 -1.42188 26.9062 -1.42188
Q22.3125 -1.42188 17.5469 -0.640625
Q12.7969 0.140625 7.71875 1.70312
L7.71875 11.625
Q12.1094 9.23438 16.7969 8.0625
Q21.4844 6.89062 26.7031 6.89062
Q35.1562 6.89062 40.0781 11.3281
Q45.0156 15.7656 45.0156 23.3906
Q45.0156 31 40.0781 35.4375
Q35.1562 39.8906 26.7031 39.8906
Q22.75 39.8906 18.8125 39.0156
Q14.8906 38.1406 10.7969 36.2812
z
" id="DejaVuSans-35"/>
      </defs>
      <g transform="translate(254.42421875 263.421875)scale(0.1 -0.1)">
       <use xlink:href="#DejaVuSans-35"/>
       <use x="63.623046875" xlink:href="#DejaVuSans-30"/>
       <use x="127.24609375" xlink:href="#DejaVuSans-30"/>
      </g>
     </g>
    </g>
    <g id="xtick_7">
     <g id="line2d_17">
      <g>
       <use style="stroke:#000000;stroke-linecap:butt;stroke-width:0.5;" x="305.1" xlink:href="#mcb557df647" y="252.0"/>
      </g>
     </g>
     <g id="line2d_18">
      <g>
       <use style="stroke:#000000;stroke-linecap:butt;stroke-width:0.5;" x="305.1" xlink:href="#mdad270ee8e" y="28.8"/>
      </g>
     </g>
     <g id="text_7">
      <!-- 600 -->
      <defs>
       <path d="
M33.0156 40.375
Q26.375 40.375 22.4844 35.8281
Q18.6094 31.2969 18.6094 23.3906
Q18.6094 15.5312 22.4844 10.9531
Q26.375 6.39062 33.0156 6.39062
Q39.6562 6.39062 43.5312 10.9531
Q47.4062 15.5312 47.4062 23.3906
Q47.4062 31.2969 43.5312 35.8281
Q39.6562 40.375 33.0156 40.375
M52.5938 71.2969
L52.5938 62.3125
Q48.875 64.0625 45.0938 64.9844
Q41.3125 65.9219 37.5938 65.9219
Q27.8281 65.9219 22.6719 59.3281
Q17.5312 52.7344 16.7969 39.4062
Q19.6719 43.6562 24.0156 45.9219
Q28.375 48.1875 33.5938 48.1875
Q44.5781 48.1875 50.9531 41.5156
Q57.3281 34.8594 57.3281 23.3906
Q57.3281 12.1562 50.6875 5.35938
Q44.0469 -1.42188 33.0156 -1.42188
Q20.3594 -1.42188 13.6719 8.26562
Q6.98438 17.9688 6.98438 36.375
Q6.98438 53.6562 15.1875 63.9375
Q23.3906 74.2188 37.2031 74.2188
Q40.9219 74.2188 44.7031 73.4844
Q48.4844 72.75 52.5938 71.2969" id="DejaVuSans-36"/>
      </defs>
      <g transform="translate(296.2375 263.421875)scale(0.1 -0.1)">
       <use xlink:href="#DejaVuSans-36"/>
       <use x="63.623046875" xlink:href="#DejaVuSans-30"/>
       <use x="127.24609375" xlink:href="#DejaVuSans-30"/>
      </g>
     </g>
    </g>
    <g id="xtick_8">
     <g id="line2d_19">
      <g>
       <use style="stroke:#000000;stroke-linecap:butt;stroke-width:0.5;" x="346.95" xlink:href="#mcb557df647" y="252.0"/>
      </g>
     </g>
     <g id="line2d_20">
      <g>
       <use style="stroke:#000000;stroke-linecap:butt;stroke-width:0.5;" x="346.95" xlink:href="#mdad270ee8e" y="28.8"/>
      </g>
     </g>
     <g id="text_8">
      <!-- 700 -->
      <defs>
       <path d="
M8.20312 72.9062
L55.0781 72.9062
L55.0781 68.7031
L28.6094 0
L18.3125 0
L43.2188 64.5938
L8.20312 64.5938
z
" id="DejaVuSans-37"/>
      </defs>
      <g transform="translate(338.1484375 263.421875)scale(0.1 -0.1)">
       <use xlink:href="#DejaVuSans-37"/>
       <use x="63.623046875" xlink:href="#DejaVuSans-30"/>
       <use x="127.24609375" xlink:href="#DejaVuSans-30"/>
      </g>
     </g>
    </g>
    <g id="xtick_9">
     <g id="line2d_21">
      <g>
       <use style="stroke:#000000;stroke-linecap:butt;stroke-width:0.5;" x="388.8" xlink:href="#mcb557df647" y="252.0"/>
      </g>
     </g>
     <g id="line2d_22">
      <g>
       <use style="stroke:#000000;stroke-linecap:butt;stroke-width:0.5;" x="388.8" xlink:href="#mdad270ee8e" y="28.8"/>
      </g>
     </g>
     <g id="text_9">
      <!-- 800 -->
      <defs>
       <path d="
M31.7812 34.625
Q24.75 34.625 20.7188 30.8594
Q16.7031 27.0938 16.7031 20.5156
Q16.7031 13.9219 20.7188 10.1562
Q24.75 6.39062 31.7812 6.39062
Q38.8125 6.39062 42.8594 10.1719
Q46.9219 13.9688 46.9219 20.5156
Q46.9219 27.0938 42.8906 30.8594
Q38.875 34.625 31.7812 34.625
M21.9219 38.8125
Q15.5781 40.375 12.0312 44.7188
Q8.5 49.0781 8.5 55.3281
Q8.5 64.0625 14.7188 69.1406
Q20.9531 74.2188 31.7812 74.2188
Q42.6719 74.2188 48.875 69.1406
Q55.0781 64.0625 55.0781 55.3281
Q55.0781 49.0781 51.5312 44.7188
Q48 40.375 41.7031 38.8125
Q48.8281 37.1562 52.7969 32.3125
Q56.7812 27.4844 56.7812 20.5156
Q56.7812 9.90625 50.3125 4.23438
Q43.8438 -1.42188 31.7812 -1.42188
Q19.7344 -1.42188 13.25 4.23438
Q6.78125 9.90625 6.78125 20.5156
Q6.78125 27.4844 10.7812 32.3125
Q14.7969 37.1562 21.9219 38.8125
M18.3125 54.3906
Q18.3125 48.7344 21.8438 45.5625
Q25.3906 42.3906 31.7812 42.3906
Q38.1406 42.3906 41.7188 45.5625
Q45.3125 48.7344 45.3125 54.3906
Q45.3125 60.0625 41.7188 63.2344
Q38.1406 66.4062 31.7812 66.4062
Q25.3906 66.4062 21.8438 63.2344
Q18.3125 60.0625 18.3125 54.3906" id="DejaVuSans-38"/>
      </defs>
      <g transform="translate(379.92734375 263.421875)scale(0.1 -0.1)">
       <use xlink:href="#DejaVuSans-38"/>
       <use x="63.623046875" xlink:href="#DejaVuSans-30"/>
       <use x="127.24609375" xlink:href="#DejaVuSans-30"/>
      </g>
     </g>
    </g>
   </g>
   <g id="matplotlib.axis_2">
    <g id="ytick_1">
     <g id="line2d_23">
      <defs>
       <path d="
M0 0
L4 0" id="mc8fcea1516" style="stroke:#000000;stroke-linecap:butt;stroke-width:0.5;"/>
      </defs>
      <g>
       <use style="stroke:#000000;stroke-linecap:butt;stroke-width:0.5;" x="54.0" xlink:href="#mc8fcea1516" y="252.0"/>
      </g>
     </g>
     <g id="line2d_24">
      <defs>
       <path d="
M0 0
L-4 0" id="m0d5b0a6425" style="stroke:#000000;stroke-linecap:butt;stroke-width:0.5;"/>
      </defs>
      <g>
       <use style="stroke:#000000;stroke-linecap:butt;stroke-width:0.5;" x="388.8" xlink:href="#m0d5b0a6425" y="252.0"/>
      </g>
     </g>
     <g id="text_10">
      <!-- 0 -->
      <g transform="translate(44.9609375 255.63984375)scale(0.1 -0.1)">
       <use xlink:href="#DejaVuSans-30"/>
      </g>
     </g>
    </g>
    <g id="ytick_2">
     <g id="line2d_25">
      <g>
       <use style="stroke:#000000;stroke-linecap:butt;stroke-width:0.5;" x="54.0" xlink:href="#mc8fcea1516" y="207.36"/>
      </g>
     </g>
     <g id="line2d_26">
      <g>
       <use style="stroke:#000000;stroke-linecap:butt;stroke-width:0.5;" x="388.8" xlink:href="#m0d5b0a6425" y="207.36"/>
      </g>
     </g>
     <g id="text_11">
      <!-- 1000 -->
      <g transform="translate(26.3125 210.99984375)scale(0.1 -0.1)">
       <use xlink:href="#DejaVuSans-31"/>
       <use x="63.623046875" xlink:href="#DejaVuSans-30"/>
       <use x="127.24609375" xlink:href="#DejaVuSans-30"/>
       <use x="190.869140625" xlink:href="#DejaVuSans-30"/>
      </g>
     </g>
    </g>
    <g id="ytick_3">
     <g id="line2d_27">
      <g>
       <use style="stroke:#000000;stroke-linecap:butt;stroke-width:0.5;" x="54.0" xlink:href="#mc8fcea1516" y="162.72"/>
      </g>
     </g>
     <g id="line2d_28">
      <g>
       <use style="stroke:#000000;stroke-linecap:butt;stroke-width:0.5;" x="388.8" xlink:href="#m0d5b0a6425" y="162.72"/>
      </g>
     </g>
     <g id="text_12">
      <!-- 2000 -->
      <g transform="translate(25.946875 166.35984375)scale(0.1 -0.1)">
       <use xlink:href="#DejaVuSans-32"/>
       <use x="63.623046875" xlink:href="#DejaVuSans-30"/>
       <use x="127.24609375" xlink:href="#DejaVuSans-30"/>
       <use x="190.869140625" xlink:href="#DejaVuSans-30"/>
      </g>
     </g>
    </g>
    <g id="ytick_4">
     <g id="line2d_29">
      <g>
       <use style="stroke:#000000;stroke-linecap:butt;stroke-width:0.5;" x="54.0" xlink:href="#mc8fcea1516" y="118.08"/>
      </g>
     </g>
     <g id="line2d_30">
      <g>
       <use style="stroke:#000000;stroke-linecap:butt;stroke-width:0.5;" x="388.8" xlink:href="#m0d5b0a6425" y="118.08"/>
      </g>
     </g>
     <g id="text_13">
      <!-- 3000 -->
      <g transform="translate(25.9765625 121.71984375)scale(0.1 -0.1)">
       <use xlink:href="#DejaVuSans-33"/>
       <use x="63.623046875" xlink:href="#DejaVuSans-30"/>
       <use x="127.24609375" xlink:href="#DejaVuSans-30"/>
       <use x="190.869140625" xlink:href="#DejaVuSans-30"/>
      </g>
     </g>
    </g>
    <g id="ytick_5">
     <g id="line2d_31">
      <g>
       <use style="stroke:#000000;stroke-linecap:butt;stroke-width:0.5;" x="54.0" xlink:href="#mc8fcea1516" y="73.44"/>
      </g>
     </g>
     <g id="line2d_32">
      <g>
       <use style="stroke:#000000;stroke-linecap:butt;stroke-width:0.5;" x="388.8" xlink:href="#m0d5b0a6425" y="73.44"/>
      </g>
     </g>
     <g id="text_14">
      <!-- 4000 -->
      <g transform="translate(25.703125 77.07984375)scale(0.1 -0.1)">
       <use xlink:href="#DejaVuSans-34"/>
       <use x="63.623046875" xlink:href="#DejaVuSans-30"/>
       <use x="127.24609375" xlink:href="#DejaVuSans-30"/>
       <use x="190.869140625" xlink:href="#DejaVuSans-30"/>
      </g>
     </g>
    </g>
    <g id="ytick_6">
     <g id="line2d_33">
      <g>
       <use style="stroke:#000000;stroke-linecap:butt;stroke-width:0.5;" x="54.0" xlink:href="#mc8fcea1516" y="28.8"/>
      </g>
     </g>
     <g id="line2d_34">
      <g>
       <use style="stroke:#000000;stroke-linecap:butt;stroke-width:0.5;" x="388.8" xlink:href="#m0d5b0a6425" y="28.8"/>
      </g>
     </g>
     <g id="text_15">
      <!-- 5000 -->
      <g transform="translate(25.9859375 32.43984375)scale(0.1 -0.1)">
       <use xlink:href="#DejaVuSans-35"/>
       <use x="63.623046875" xlink:href="#DejaVuSans-30"/>
       <use x="127.24609375" xlink:href="#DejaVuSans-30"/>
       <use x="190.869140625" xlink:href="#DejaVuSans-30"/>
      </g>
     </g>
    </g>
   </g>
   <g id="patch_3">
    <path d="
M54 28.8
L388.8 28.8" style="fill:none;stroke:#000000;"/>
   </g>
   <g id="patch_4">
    <path d="
M388.8 252
L388.8 28.8" style="fill:none;stroke:#000000;"/>
   </g>
   <g id="patch_5">
    <path d="
M54 252
L388.8 252" style="fill:none;stroke:#000000;"/>
   </g>
   <g id="patch_6">
    <path d="
M54 252
L54 28.8" style="fill:none;stroke:#000000;"/>
   </g>
   <g id="legend_1">
    <g id="patch_7">
     <path d="
M333.272 106.359
L382.8 106.359
L382.8 34.8
L333.272 34.8
L333.272 106.359
z
" style="fill:#ffffff;stroke:#000000;"/>
    </g>
    <g id="line2d_35">
     <path d="
M341.672 44.5181
L358.472 44.5181" style="fill:none;stroke:#0000ff;"/>
    </g>
    <g id="line2d_36"/>
    <g id="text_16">
     <!-- 1 -->
     <g transform="translate(371.671875 48.718125)scale(0.12 -0.12)">
      <use xlink:href="#DejaVuSans-31"/>
     </g>
    </g>
    <g id="line2d_37">
     <path d="
M341.672 62.1319
L358.472 62.1319" style="fill:none;stroke:#008000;"/>
    </g>
    <g id="line2d_38"/>
    <g id="text_17">
     <!-- 2 -->
     <g transform="translate(371.671875 66.331875)scale(0.12 -0.12)">
      <use xlink:href="#DejaVuSans-32"/>
     </g>
    </g>
    <g id="line2d_39">
     <path d="
M341.672 79.7456
L358.472 79.7456" style="fill:none;stroke:#ff0000;"/>
    </g>
    <g id="line2d_40"/>
    <g id="text_18">
     <!-- 3 -->
     <g transform="translate(371.671875 83.945625)scale(0.12 -0.12)">
      <use xlink:href="#DejaVuSans-33"/>
     </g>
    </g>
    <g id="line2d_41">
     <path d="
M341.672 97.3594
L358.472 97.3594" style="fill:none;stroke:#00bfbf;"/>
    </g>
    <g id="line2d_42"/>
    <g id="text_19">
     <!-- 4 -->
     <g transform="translate(371.671875 101.559375)scale(0.12 -0.12)">
      <use xlink:href="#DejaVuSans-34"/>
     </g>
    </g>
   </g>
  </g>
 </g>
 <defs>
  <clipPath id="p124b8dd147">
   <rect height="223.2" width="334.8" x="54.0" y="28.8"/>
  </clipPath>
 </defs>
</svg>
