<?xml version="1.0" encoding="utf-8" standalone="no"?>
<!DOCTYPE svg PUBLIC "-//W3C//DTD SVG 1.1//EN"
  "http://www.w3.org/Graphics/SVG/1.1/DTD/svg11.dtd">
<!-- Created with matplotlib (http://matplotlib.org/) -->
<svg height="720pt" version="1.1" viewBox="0 0 720 720" width="720pt" xmlns="http://www.w3.org/2000/svg" xmlns:xlink="http://www.w3.org/1999/xlink">
 <defs>
  <style type="text/css">
*{stroke-linecap:square;stroke-linejoin:round;}
  </style>
 </defs>
 <g id="figure_1">
  <g id="patch_1">
   <path d="
M0 720
L720 720
L720 0
L0 0
z
" style="fill:#ffffff;"/>
  </g>
  <g id="axes_1">
   <g id="patch_2">
    <path d="
M90 181.565
L648 181.565
L648 72
L90 72
z
" style="fill:#ffffff;"/>
   </g>
   <g id="line2d_1">
    <path clip-path="url(#pba3642048d)" d="
M90 174.176
L90.6975 173.953
L92.0925 173.94
L94.185 173.992
L96.975 173.719
L101.16 173.838
L104.648 173.74
L108.135 173.975
L111.623 173.812
L113.715 174.189
L115.11 173.888
L117.203 173.914
L119.295 173.818
L122.085 174.068
L123.48 174.496
L124.178 174.468
L126.968 173.782
L131.85 173.79
L136.035 174.031
L137.43 173.902
L138.825 173.773
L139.523 173.742
L141.615 173.952
L142.312 173.879
L146.498 174.36
L149.985 173.834
L151.38 173.831
L154.868 173.896
L157.657 173.778
L162.54 173.736
L163.935 173.889
L168.12 173.616
L170.213 173.549
L172.305 173.993
L173.7 174.217
L175.095 174.087
L177.188 174.316
L178.582 174.155
L182.767 174.184
L186.255 173.923
L186.952 174.119
L187.65 174.185
L190.44 173.94
L191.137 173.791
L192.532 173.804
L194.625 173.915
L196.718 173.791
L200.903 173.917
L201.6 173.974
L204.39 173.71
L205.785 173.676
L207.18 173.565
L211.365 173.806
L213.457 174.013
L214.853 173.985
L216.945 173.738
L221.13 173.685
L222.525 173.744
L223.92 173.829
L226.71 173.533
L228.803 173.671
L230.895 173.856
L231.593 173.568
L232.29 173.13
L232.988 172.89
L233.685 173.049
L235.08 173.638
L235.778 173.826
L236.475 173.825
L237.87 173.557
L238.567 173.509
L240.66 173.787
L242.055 173.791
L243.45 173.918
L246.938 173.696
L251.82 173.776
L255.308 173.986
L258.097 173.673
L260.19 173.681
L264.375 173.883
L267.165 173.678
L272.745 173.701
L274.837 173.729
L276.233 173.867
L277.627 173.861
L279.023 174.022
L281.812 173.74
L283.207 173.829
L284.602 173.667
L285.998 173.613
L287.393 173.528
L294.368 173.62
L296.46 173.449
L299.25 173.372
L300.645 173.389
L302.04 173.372
L303.435 173.487
L306.923 173.512
L309.015 173.736
L310.41 173.759
L311.805 173.402
L313.2 173.344
L314.595 173.453
L315.99 173.707
L318.082 173.268
L320.873 173.425
L323.663 173.206
L325.058 173.033
L327.15 172.919
L328.545 172.785
L331.335 172.932
L332.73 172.866
L333.428 172.914
L334.125 172.848
L335.52 172.396
L337.613 172.322
L341.1 171.241
L342.495 170.946
L343.89 170.002
L345.285 169.232
L345.983 168.841
L346.68 168.191
L348.075 166.527
L348.772 165.441
L350.168 162.666
L351.562 158.894
L352.957 154.128
L354.353 148.36
L355.05 144.723
L355.748 140.121
L359.235 113.494
L359.933 106.176
L361.327 88.4783
L362.025 86.302
L362.723 92.3649
L364.815 124.554
L365.512 132.484
L366.908 143.891
L368.303 152.363
L369 155.63
L369.697 158.241
L371.093 162.238
L371.79 163.865
L373.185 166.163
L374.58 167.826
L375.975 169.073
L378.067 170.693
L378.765 170.991
L382.252 171.786
L387.135 172.939
L387.832 173.17
L388.53 173.18
L389.925 172.757
L390.623 172.826
L392.017 173.295
L393.413 173.434
L394.11 173.628
L394.808 173.531
L395.505 173.233
L396.202 173.077
L399.69 173.271
L401.085 173.261
L403.178 173.364
L409.455 173.664
L410.85 173.879
L412.942 173.531
L415.733 173.494
L419.22 173.484
L421.312 173.416
L425.498 173.573
L427.59 173.428
L431.077 173.499
L433.868 173.615
L436.658 173.512
L439.447 173.655
L440.843 173.667
L442.935 174.065
L444.33 173.906
L445.725 174.031
L448.515 173.717
L457.582 173.612
L459.675 174.001
L461.07 173.786
L462.465 173.637
L477.113 173.795
L478.507 173.887
L481.298 173.738
L482.692 173.785
L483.39 173.866
L485.483 173.733
L487.575 174.053
L488.97 173.873
L490.365 173.739
L496.642 173.783
L498.735 174.113
L499.433 174.114
L501.525 173.725
L502.92 173.663
L509.197 173.714
L518.265 173.671
L519.66 173.717
L521.055 173.702
L524.543 173.785
L528.03 173.79
L530.122 174.075
L531.517 173.746
L539.888 173.769
L541.98 173.765
L543.375 173.954
L547.56 173.73
L550.35 173.859
L551.745 173.768
L553.838 173.934
L556.628 173.782
L559.418 173.79
L568.485 173.752
L570.577 173.914
L573.368 173.715
L578.947 173.774
L581.04 174.093
L582.435 173.781
L583.83 173.765
L586.62 173.719
L588.713 173.766
L590.108 173.812
L591.503 173.76
L592.898 173.902
L594.99 173.694
L599.175 173.79
L600.57 173.807
L602.663 173.992
L604.755 173.885
L610.335 173.839
L611.73 173.802
L620.1 173.86
L622.89 173.863
L624.982 173.879
L630.562 173.849
L631.957 173.812
L631.957 173.812" style="fill:none;stroke:#000000;"/>
   </g>
   <g id="matplotlib.axis_1">
    <g id="xtick_1">
     <g id="line2d_2">
      <defs>
       <path d="
M0 0
L0 -4" id="mcb557df647" style="stroke:#000000;stroke-linecap:butt;stroke-width:0.5;"/>
      </defs>
      <g>
       <use style="stroke:#000000;stroke-linecap:butt;stroke-width:0.5;" x="90.0" xlink:href="#mcb557df647" y="181.565217391"/>
      </g>
     </g>
     <g id="line2d_3">
      <defs>
       <path d="
M0 0
L0 4" id="mdad270ee8e" style="stroke:#000000;stroke-linecap:butt;stroke-width:0.5;"/>
      </defs>
      <g>
       <use style="stroke:#000000;stroke-linecap:butt;stroke-width:0.5;" x="90.0" xlink:href="#mdad270ee8e" y="72.0"/>
      </g>
     </g>
    </g>
    <g id="xtick_2">
     <g id="line2d_4">
      <g>
       <use style="stroke:#000000;stroke-linecap:butt;stroke-width:0.5;" x="159.75" xlink:href="#mcb557df647" y="181.565217391"/>
      </g>
     </g>
     <g id="line2d_5">
      <g>
       <use style="stroke:#000000;stroke-linecap:butt;stroke-width:0.5;" x="159.75" xlink:href="#mdad270ee8e" y="72.0"/>
      </g>
     </g>
    </g>
    <g id="xtick_3">
     <g id="line2d_6">
      <g>
       <use style="stroke:#000000;stroke-linecap:butt;stroke-width:0.5;" x="229.5" xlink:href="#mcb557df647" y="181.565217391"/>
      </g>
     </g>
     <g id="line2d_7">
      <g>
       <use style="stroke:#000000;stroke-linecap:butt;stroke-width:0.5;" x="229.5" xlink:href="#mdad270ee8e" y="72.0"/>
      </g>
     </g>
    </g>
    <g id="xtick_4">
     <g id="line2d_8">
      <g>
       <use style="stroke:#000000;stroke-linecap:butt;stroke-width:0.5;" x="299.25" xlink:href="#mcb557df647" y="181.565217391"/>
      </g>
     </g>
     <g id="line2d_9">
      <g>
       <use style="stroke:#000000;stroke-linecap:butt;stroke-width:0.5;" x="299.25" xlink:href="#mdad270ee8e" y="72.0"/>
      </g>
     </g>
    </g>
    <g id="xtick_5">
     <g id="line2d_10">
      <g>
       <use style="stroke:#000000;stroke-linecap:butt;stroke-width:0.5;" x="369.0" xlink:href="#mcb557df647" y="181.565217391"/>
      </g>
     </g>
     <g id="line2d_11">
      <g>
       <use style="stroke:#000000;stroke-linecap:butt;stroke-width:0.5;" x="369.0" xlink:href="#mdad270ee8e" y="72.0"/>
      </g>
     </g>
    </g>
    <g id="xtick_6">
     <g id="line2d_12">
      <g>
       <use style="stroke:#000000;stroke-linecap:butt;stroke-width:0.5;" x="438.75" xlink:href="#mcb557df647" y="181.565217391"/>
      </g>
     </g>
     <g id="line2d_13">
      <g>
       <use style="stroke:#000000;stroke-linecap:butt;stroke-width:0.5;" x="438.75" xlink:href="#mdad270ee8e" y="72.0"/>
      </g>
     </g>
    </g>
    <g id="xtick_7">
     <g id="line2d_14">
      <g>
       <use style="stroke:#000000;stroke-linecap:butt;stroke-width:0.5;" x="508.5" xlink:href="#mcb557df647" y="181.565217391"/>
      </g>
     </g>
     <g id="line2d_15">
      <g>
       <use style="stroke:#000000;stroke-linecap:butt;stroke-width:0.5;" x="508.5" xlink:href="#mdad270ee8e" y="72.0"/>
      </g>
     </g>
    </g>
    <g id="xtick_8">
     <g id="line2d_16">
      <g>
       <use style="stroke:#000000;stroke-linecap:butt;stroke-width:0.5;" x="578.25" xlink:href="#mcb557df647" y="181.565217391"/>
      </g>
     </g>
     <g id="line2d_17">
      <g>
       <use style="stroke:#000000;stroke-linecap:butt;stroke-width:0.5;" x="578.25" xlink:href="#mdad270ee8e" y="72.0"/>
      </g>
     </g>
    </g>
    <g id="xtick_9">
     <g id="line2d_18">
      <g>
       <use style="stroke:#000000;stroke-linecap:butt;stroke-width:0.5;" x="648.0" xlink:href="#mcb557df647" y="181.565217391"/>
      </g>
     </g>
     <g id="line2d_19">
      <g>
       <use style="stroke:#000000;stroke-linecap:butt;stroke-width:0.5;" x="648.0" xlink:href="#mdad270ee8e" y="72.0"/>
      </g>
     </g>
    </g>
   </g>
   <g id="matplotlib.axis_2">
    <g id="ytick_1">
     <g id="line2d_20">
      <defs>
       <path d="
M0 0
L4 0" id="mc8fcea1516" style="stroke:#000000;stroke-linecap:butt;stroke-width:0.5;"/>
      </defs>
      <g>
       <use style="stroke:#000000;stroke-linecap:butt;stroke-width:0.5;" x="90.0" xlink:href="#mc8fcea1516" y="181.565217391"/>
      </g>
     </g>
     <g id="line2d_21">
      <defs>
       <path d="
M0 0
L-4 0" id="m0d5b0a6425" style="stroke:#000000;stroke-linecap:butt;stroke-width:0.5;"/>
      </defs>
      <g>
       <use style="stroke:#000000;stroke-linecap:butt;stroke-width:0.5;" x="648.0" xlink:href="#m0d5b0a6425" y="181.565217391"/>
      </g>
     </g>
     <g id="text_1">
      <!--   0.0 -->
      <defs>
       <path d="
M31.7812 66.4062
Q24.1719 66.4062 20.3281 58.9062
Q16.5 51.4219 16.5 36.375
Q16.5 21.3906 20.3281 13.8906
Q24.1719 6.39062 31.7812 6.39062
Q39.4531 6.39062 43.2812 13.8906
Q47.125 21.3906 47.125 36.375
Q47.125 51.4219 43.2812 58.9062
Q39.4531 66.4062 31.7812 66.4062
M31.7812 74.2188
Q44.0469 74.2188 50.5156 64.5156
Q56.9844 54.8281 56.9844 36.375
Q56.9844 17.9688 50.5156 8.26562
Q44.0469 -1.42188 31.7812 -1.42188
Q19.5312 -1.42188 13.0625 8.26562
Q6.59375 17.9688 6.59375 36.375
Q6.59375 54.8281 13.0625 64.5156
Q19.5312 74.2188 31.7812 74.2188" id="DejaVuSans-30"/>
       <path id="DejaVuSans-20"/>
       <path d="
M10.6875 12.4062
L21 12.4062
L21 0
L10.6875 0
z
" id="DejaVuSans-2e"/>
      </defs>
      <g transform="translate(64.4046875 185.205061141)scale(0.1 -0.1)">
       <use xlink:href="#DejaVuSans-20"/>
       <use x="31.787109375" xlink:href="#DejaVuSans-20"/>
       <use x="63.57421875" xlink:href="#DejaVuSans-30"/>
       <use x="127.197265625" xlink:href="#DejaVuSans-2e"/>
       <use x="158.984375" xlink:href="#DejaVuSans-30"/>
      </g>
     </g>
    </g>
    <g id="ytick_2">
     <g id="line2d_22">
      <g>
       <use style="stroke:#000000;stroke-linecap:butt;stroke-width:0.5;" x="90.0" xlink:href="#mc8fcea1516" y="165.913043478"/>
      </g>
     </g>
     <g id="line2d_23">
      <g>
       <use style="stroke:#000000;stroke-linecap:butt;stroke-width:0.5;" x="648.0" xlink:href="#m0d5b0a6425" y="165.913043478"/>
      </g>
     </g>
     <g id="text_2">
      <!--   2.0 -->
      <defs>
       <path d="
M19.1875 8.29688
L53.6094 8.29688
L53.6094 0
L7.32812 0
L7.32812 8.29688
Q12.9375 14.1094 22.625 23.8906
Q32.3281 33.6875 34.8125 36.5312
Q39.5469 41.8438 41.4219 45.5312
Q43.3125 49.2188 43.3125 52.7812
Q43.3125 58.5938 39.2344 62.25
Q35.1562 65.9219 28.6094 65.9219
Q23.9688 65.9219 18.8125 64.3125
Q13.6719 62.7031 7.8125 59.4219
L7.8125 69.3906
Q13.7656 71.7812 18.9375 73
Q24.125 74.2188 28.4219 74.2188
Q39.75 74.2188 46.4844 68.5469
Q53.2188 62.8906 53.2188 53.4219
Q53.2188 48.9219 51.5312 44.8906
Q49.8594 40.875 45.4062 35.4062
Q44.1875 33.9844 37.6406 27.2188
Q31.1094 20.4531 19.1875 8.29688" id="DejaVuSans-32"/>
      </defs>
      <g transform="translate(64.4046875 169.552887228)scale(0.1 -0.1)">
       <use xlink:href="#DejaVuSans-20"/>
       <use x="31.787109375" xlink:href="#DejaVuSans-20"/>
       <use x="63.57421875" xlink:href="#DejaVuSans-32"/>
       <use x="127.197265625" xlink:href="#DejaVuSans-2e"/>
       <use x="158.984375" xlink:href="#DejaVuSans-30"/>
      </g>
     </g>
    </g>
    <g id="ytick_3">
     <g id="line2d_24">
      <g>
       <use style="stroke:#000000;stroke-linecap:butt;stroke-width:0.5;" x="90.0" xlink:href="#mc8fcea1516" y="150.260869565"/>
      </g>
     </g>
     <g id="line2d_25">
      <g>
       <use style="stroke:#000000;stroke-linecap:butt;stroke-width:0.5;" x="648.0" xlink:href="#m0d5b0a6425" y="150.260869565"/>
      </g>
     </g>
     <g id="text_3">
      <!--   4.0 -->
      <defs>
       <path d="
M37.7969 64.3125
L12.8906 25.3906
L37.7969 25.3906
z

M35.2031 72.9062
L47.6094 72.9062
L47.6094 25.3906
L58.0156 25.3906
L58.0156 17.1875
L47.6094 17.1875
L47.6094 0
L37.7969 0
L37.7969 17.1875
L4.89062 17.1875
L4.89062 26.7031
z
" id="DejaVuSans-34"/>
      </defs>
      <g transform="translate(64.4046875 153.900713315)scale(0.1 -0.1)">
       <use xlink:href="#DejaVuSans-20"/>
       <use x="31.787109375" xlink:href="#DejaVuSans-20"/>
       <use x="63.57421875" xlink:href="#DejaVuSans-34"/>
       <use x="127.197265625" xlink:href="#DejaVuSans-2e"/>
       <use x="158.984375" xlink:href="#DejaVuSans-30"/>
      </g>
     </g>
    </g>
    <g id="ytick_4">
     <g id="line2d_26">
      <g>
       <use style="stroke:#000000;stroke-linecap:butt;stroke-width:0.5;" x="90.0" xlink:href="#mc8fcea1516" y="134.608695652"/>
      </g>
     </g>
     <g id="line2d_27">
      <g>
       <use style="stroke:#000000;stroke-linecap:butt;stroke-width:0.5;" x="648.0" xlink:href="#m0d5b0a6425" y="134.608695652"/>
      </g>
     </g>
     <g id="text_4">
      <!--   6.0 -->
      <defs>
       <path d="
M33.0156 40.375
Q26.375 40.375 22.4844 35.8281
Q18.6094 31.2969 18.6094 23.3906
Q18.6094 15.5312 22.4844 10.9531
Q26.375 6.39062 33.0156 6.39062
Q39.6562 6.39062 43.5312 10.9531
Q47.4062 15.5312 47.4062 23.3906
Q47.4062 31.2969 43.5312 35.8281
Q39.6562 40.375 33.0156 40.375
M52.5938 71.2969
L52.5938 62.3125
Q48.875 64.0625 45.0938 64.9844
Q41.3125 65.9219 37.5938 65.9219
Q27.8281 65.9219 22.6719 59.3281
Q17.5312 52.7344 16.7969 39.4062
Q19.6719 43.6562 24.0156 45.9219
Q28.375 48.1875 33.5938 48.1875
Q44.5781 48.1875 50.9531 41.5156
Q57.3281 34.8594 57.3281 23.3906
Q57.3281 12.1562 50.6875 5.35938
Q44.0469 -1.42188 33.0156 -1.42188
Q20.3594 -1.42188 13.6719 8.26562
Q6.98438 17.9688 6.98438 36.375
Q6.98438 53.6562 15.1875 63.9375
Q23.3906 74.2188 37.2031 74.2188
Q40.9219 74.2188 44.7031 73.4844
Q48.4844 72.75 52.5938 71.2969" id="DejaVuSans-36"/>
      </defs>
      <g transform="translate(64.4046875 138.248539402)scale(0.1 -0.1)">
       <use xlink:href="#DejaVuSans-20"/>
       <use x="31.787109375" xlink:href="#DejaVuSans-20"/>
       <use x="63.57421875" xlink:href="#DejaVuSans-36"/>
       <use x="127.197265625" xlink:href="#DejaVuSans-2e"/>
       <use x="158.984375" xlink:href="#DejaVuSans-30"/>
      </g>
     </g>
    </g>
    <g id="ytick_5">
     <g id="line2d_28">
      <g>
       <use style="stroke:#000000;stroke-linecap:butt;stroke-width:0.5;" x="90.0" xlink:href="#mc8fcea1516" y="118.956521739"/>
      </g>
     </g>
     <g id="line2d_29">
      <g>
       <use style="stroke:#000000;stroke-linecap:butt;stroke-width:0.5;" x="648.0" xlink:href="#m0d5b0a6425" y="118.956521739"/>
      </g>
     </g>
     <g id="text_5">
      <!--   8.0 -->
      <defs>
       <path d="
M31.7812 34.625
Q24.75 34.625 20.7188 30.8594
Q16.7031 27.0938 16.7031 20.5156
Q16.7031 13.9219 20.7188 10.1562
Q24.75 6.39062 31.7812 6.39062
Q38.8125 6.39062 42.8594 10.1719
Q46.9219 13.9688 46.9219 20.5156
Q46.9219 27.0938 42.8906 30.8594
Q38.875 34.625 31.7812 34.625
M21.9219 38.8125
Q15.5781 40.375 12.0312 44.7188
Q8.5 49.0781 8.5 55.3281
Q8.5 64.0625 14.7188 69.1406
Q20.9531 74.2188 31.7812 74.2188
Q42.6719 74.2188 48.875 69.1406
Q55.0781 64.0625 55.0781 55.3281
Q55.0781 49.0781 51.5312 44.7188
Q48 40.375 41.7031 38.8125
Q48.8281 37.1562 52.7969 32.3125
Q56.7812 27.4844 56.7812 20.5156
Q56.7812 9.90625 50.3125 4.23438
Q43.8438 -1.42188 31.7812 -1.42188
Q19.7344 -1.42188 13.25 4.23438
Q6.78125 9.90625 6.78125 20.5156
Q6.78125 27.4844 10.7812 32.3125
Q14.7969 37.1562 21.9219 38.8125
M18.3125 54.3906
Q18.3125 48.7344 21.8438 45.5625
Q25.3906 42.3906 31.7812 42.3906
Q38.1406 42.3906 41.7188 45.5625
Q45.3125 48.7344 45.3125 54.3906
Q45.3125 60.0625 41.7188 63.2344
Q38.1406 66.4062 31.7812 66.4062
Q25.3906 66.4062 21.8438 63.2344
Q18.3125 60.0625 18.3125 54.3906" id="DejaVuSans-38"/>
      </defs>
      <g transform="translate(64.4046875 122.596365489)scale(0.1 -0.1)">
       <use xlink:href="#DejaVuSans-20"/>
       <use x="31.787109375" xlink:href="#DejaVuSans-20"/>
       <use x="63.57421875" xlink:href="#DejaVuSans-38"/>
       <use x="127.197265625" xlink:href="#DejaVuSans-2e"/>
       <use x="158.984375" xlink:href="#DejaVuSans-30"/>
      </g>
     </g>
    </g>
    <g id="ytick_6">
     <g id="line2d_30">
      <g>
       <use style="stroke:#000000;stroke-linecap:butt;stroke-width:0.5;" x="90.0" xlink:href="#mc8fcea1516" y="103.304347826"/>
      </g>
     </g>
     <g id="line2d_31">
      <g>
       <use style="stroke:#000000;stroke-linecap:butt;stroke-width:0.5;" x="648.0" xlink:href="#m0d5b0a6425" y="103.304347826"/>
      </g>
     </g>
     <g id="text_6">
      <!--  10.0 -->
      <defs>
       <path d="
M12.4062 8.29688
L28.5156 8.29688
L28.5156 63.9219
L10.9844 60.4062
L10.9844 69.3906
L28.4219 72.9062
L38.2812 72.9062
L38.2812 8.29688
L54.3906 8.29688
L54.3906 0
L12.4062 0
z
" id="DejaVuSans-31"/>
      </defs>
      <g transform="translate(61.2203125 106.944191576)scale(0.1 -0.1)">
       <use xlink:href="#DejaVuSans-20"/>
       <use x="31.787109375" xlink:href="#DejaVuSans-31"/>
       <use x="95.41015625" xlink:href="#DejaVuSans-30"/>
       <use x="159.033203125" xlink:href="#DejaVuSans-2e"/>
       <use x="190.8203125" xlink:href="#DejaVuSans-30"/>
      </g>
     </g>
    </g>
    <g id="ytick_7">
     <g id="line2d_32">
      <g>
       <use style="stroke:#000000;stroke-linecap:butt;stroke-width:0.5;" x="90.0" xlink:href="#mc8fcea1516" y="87.652173913"/>
      </g>
     </g>
     <g id="line2d_33">
      <g>
       <use style="stroke:#000000;stroke-linecap:butt;stroke-width:0.5;" x="648.0" xlink:href="#m0d5b0a6425" y="87.652173913"/>
      </g>
     </g>
     <g id="text_7">
      <!--  12.0 -->
      <g transform="translate(61.2203125 91.292017663)scale(0.1 -0.1)">
       <use xlink:href="#DejaVuSans-20"/>
       <use x="31.787109375" xlink:href="#DejaVuSans-31"/>
       <use x="95.41015625" xlink:href="#DejaVuSans-32"/>
       <use x="159.033203125" xlink:href="#DejaVuSans-2e"/>
       <use x="190.8203125" xlink:href="#DejaVuSans-30"/>
      </g>
     </g>
    </g>
    <g id="ytick_8">
     <g id="line2d_34">
      <g>
       <use style="stroke:#000000;stroke-linecap:butt;stroke-width:0.5;" x="90.0" xlink:href="#mc8fcea1516" y="72.0"/>
      </g>
     </g>
     <g id="line2d_35">
      <g>
       <use style="stroke:#000000;stroke-linecap:butt;stroke-width:0.5;" x="648.0" xlink:href="#m0d5b0a6425" y="72.0"/>
      </g>
     </g>
     <g id="text_8">
      <!--  14.0 -->
      <g transform="translate(61.2203125 75.63984375)scale(0.1 -0.1)">
       <use xlink:href="#DejaVuSans-20"/>
       <use x="31.787109375" xlink:href="#DejaVuSans-31"/>
       <use x="95.41015625" xlink:href="#DejaVuSans-34"/>
       <use x="159.033203125" xlink:href="#DejaVuSans-2e"/>
       <use x="190.8203125" xlink:href="#DejaVuSans-30"/>
      </g>
     </g>
    </g>
   </g>
   <g id="patch_3">
    <path d="
M90 72
L648 72" style="fill:none;stroke:#000000;"/>
   </g>
   <g id="patch_4">
    <path d="
M648 181.565
L648 72" style="fill:none;stroke:#000000;"/>
   </g>
   <g id="patch_5">
    <path d="
M90 181.565
L648 181.565" style="fill:none;stroke:#000000;"/>
   </g>
   <g id="patch_6">
    <path d="
M90 181.565
L90 72" style="fill:none;stroke:#000000;"/>
   </g>
   <g id="legend_1">
    <g id="patch_7">
     <path d="
M593.628 96.7181
L642 96.7181
L642 78
L593.628 78
L593.628 96.7181
z
" style="fill:#ffffff;stroke:#000000;"/>
    </g>
    <g id="line2d_36">
     <path d="
M602.028 87.7181
L618.828 87.7181" style="fill:none;stroke:#000000;"/>
    </g>
    <g id="line2d_37"/>
    <g id="text_9">
     <!-- 1 -->
     <g transform="translate(632.028125 91.918125)scale(0.12 -0.12)">
      <use xlink:href="#DejaVuSans-31"/>
     </g>
    </g>
   </g>
  </g>
  <g id="axes_2">
   <g id="patch_8">
    <path d="
M90 313.043
L648 313.043
L648 203.478
L90 203.478
z
" style="fill:#ffffff;"/>
   </g>
   <g id="line2d_38">
    <path clip-path="url(#p13888d3786)" d="
M90 294.905
L92.0925 295.159
L94.185 295.097
L97.6725 294.998
L99.765 295.157
L105.345 295.051
L108.832 295.356
L111.623 294.892
L113.715 294.978
L115.11 295.156
L116.505 295.509
L119.993 295.038
L122.085 295.611
L123.48 296.298
L124.875 295.982
L125.572 295.816
L126.968 295.293
L128.363 295.244
L129.06 295.238
L131.153 294.903
L132.548 295.035
L133.942 295.36
L134.64 295.612
L136.035 295.656
L136.733 295.687
L137.43 295.554
L138.127 295.243
L138.825 295.086
L142.312 295.1
L143.708 295.366
L145.8 296.03
L147.195 295.767
L149.287 295.065
L151.38 294.942
L152.775 295.049
L154.17 295.076
L154.868 295.197
L155.565 295.191
L156.96 294.941
L162.54 294.817
L163.935 295.018
L165.33 295.298
L166.028 295.436
L166.725 295.2
L167.423 294.798
L168.12 294.62
L168.817 294.646
L171.608 295.235
L172.305 295.184
L173.7 294.725
L175.095 294.678
L177.885 295.1
L179.978 295.488
L181.373 294.94
L182.767 294.93
L184.86 295.067
L186.255 294.803
L188.347 294.757
L193.23 294.777
L196.718 294.841
L203.692 294.859
L205.785 294.781
L209.97 294.79
L211.365 294.902
L212.76 295.056
L214.853 295.111
L216.248 294.766
L217.642 294.679
L222.525 294.816
L223.92 294.923
L226.71 294.437
L228.105 294.711
L230.895 295.414
L231.593 295.345
L232.29 295.088
L232.988 295.1
L234.382 295.647
L235.778 295.899
L236.475 295.745
L237.87 294.831
L238.567 294.559
L239.265 294.514
L244.148 295.11
L246.24 294.648
L249.03 294.724
L253.912 295.224
L256.005 295.367
L257.4 294.879
L258.795 294.797
L272.745 294.839
L274.837 294.854
L276.233 294.924
L279.023 295.322
L281.115 294.882
L283.905 295.081
L285.998 294.791
L288.09 294.697
L290.88 294.796
L294.368 294.514
L297.855 294.481
L300.645 294.458
L303.435 294.473
L309.015 294.902
L310.41 295.112
L311.108 294.833
L311.805 294.428
L312.502 294.236
L314.595 294.204
L315.99 294.168
L317.385 294.038
L320.873 294.395
L322.268 294.173
L322.965 294.297
L323.663 294.228
L325.058 293.592
L326.452 293.353
L329.94 292.997
L330.638 292.975
L332.033 293.175
L334.125 293.169
L334.822 292.825
L335.52 292.327
L336.217 291.983
L337.613 291.488
L340.403 289.772
L341.798 288.657
L343.89 286.55
L345.285 284.612
L345.983 283.539
L346.68 282.174
L348.075 278.209
L349.47 273.476
L350.865 267.321
L352.26 259.942
L353.655 251.487
L355.05 241.894
L357.142 225.635
L357.84 223.056
L358.538 223.297
L359.235 225.445
L359.933 228.891
L360.63 234.16
L361.327 238.106
L362.025 236.604
L362.723 231.703
L363.42 225.059
L364.118 215.885
L364.815 208.876
L365.512 208.303
L366.21 212.277
L366.908 218.215
L370.395 253.694
L371.79 263.976
L373.185 271.545
L374.58 277.141
L375.975 281.374
L377.37 284.373
L378.067 285.603
L378.765 286.538
L380.16 287.955
L381.555 289.142
L385.043 291.375
L387.135 292.31
L389.228 292.247
L390.623 292.544
L394.808 293.86
L396.202 293.452
L397.598 293.501
L403.178 294.053
L405.968 294.17
L408.757 294.288
L410.85 294.478
L412.942 294.323
L416.43 294.375
L417.825 293.959
L418.522 293.946
L420.615 294.33
L423.405 294.485
L425.498 294.629
L426.195 294.691
L429.683 294.4
L439.447 294.599
L444.33 294.681
L447.12 294.733
L448.515 294.68
L450.608 294.632
L455.49 294.687
L457.582 294.671
L461.767 294.842
L463.86 294.686
L470.137 294.728
L472.23 294.722
L476.415 294.776
L495.248 294.889
L496.642 295.152
L498.038 295.429
L499.433 295.249
L501.525 294.886
L504.315 294.813
L511.29 294.796
L524.543 294.838
L528.03 294.813
L544.072 294.814
L551.745 294.859
L567.09 294.794
L578.25 294.896
L589.41 294.796
L624.285 294.866
L626.378 294.976
L630.562 294.852
L631.957 294.837
L631.957 294.837" style="fill:none;stroke:#000000;"/>
   </g>
   <g id="matplotlib.axis_3">
    <g id="xtick_10">
     <g id="line2d_39">
      <g>
       <use style="stroke:#000000;stroke-linecap:butt;stroke-width:0.5;" x="90.0" xlink:href="#mcb557df647" y="313.043478261"/>
      </g>
     </g>
     <g id="line2d_40">
      <g>
       <use style="stroke:#000000;stroke-linecap:butt;stroke-width:0.5;" x="90.0" xlink:href="#mdad270ee8e" y="203.47826087"/>
      </g>
     </g>
    </g>
    <g id="xtick_11">
     <g id="line2d_41">
      <g>
       <use style="stroke:#000000;stroke-linecap:butt;stroke-width:0.5;" x="159.75" xlink:href="#mcb557df647" y="313.043478261"/>
      </g>
     </g>
     <g id="line2d_42">
      <g>
       <use style="stroke:#000000;stroke-linecap:butt;stroke-width:0.5;" x="159.75" xlink:href="#mdad270ee8e" y="203.47826087"/>
      </g>
     </g>
    </g>
    <g id="xtick_12">
     <g id="line2d_43">
      <g>
       <use style="stroke:#000000;stroke-linecap:butt;stroke-width:0.5;" x="229.5" xlink:href="#mcb557df647" y="313.043478261"/>
      </g>
     </g>
     <g id="line2d_44">
      <g>
       <use style="stroke:#000000;stroke-linecap:butt;stroke-width:0.5;" x="229.5" xlink:href="#mdad270ee8e" y="203.47826087"/>
      </g>
     </g>
    </g>
    <g id="xtick_13">
     <g id="line2d_45">
      <g>
       <use style="stroke:#000000;stroke-linecap:butt;stroke-width:0.5;" x="299.25" xlink:href="#mcb557df647" y="313.043478261"/>
      </g>
     </g>
     <g id="line2d_46">
      <g>
       <use style="stroke:#000000;stroke-linecap:butt;stroke-width:0.5;" x="299.25" xlink:href="#mdad270ee8e" y="203.47826087"/>
      </g>
     </g>
    </g>
    <g id="xtick_14">
     <g id="line2d_47">
      <g>
       <use style="stroke:#000000;stroke-linecap:butt;stroke-width:0.5;" x="369.0" xlink:href="#mcb557df647" y="313.043478261"/>
      </g>
     </g>
     <g id="line2d_48">
      <g>
       <use style="stroke:#000000;stroke-linecap:butt;stroke-width:0.5;" x="369.0" xlink:href="#mdad270ee8e" y="203.47826087"/>
      </g>
     </g>
    </g>
    <g id="xtick_15">
     <g id="line2d_49">
      <g>
       <use style="stroke:#000000;stroke-linecap:butt;stroke-width:0.5;" x="438.75" xlink:href="#mcb557df647" y="313.043478261"/>
      </g>
     </g>
     <g id="line2d_50">
      <g>
       <use style="stroke:#000000;stroke-linecap:butt;stroke-width:0.5;" x="438.75" xlink:href="#mdad270ee8e" y="203.47826087"/>
      </g>
     </g>
    </g>
    <g id="xtick_16">
     <g id="line2d_51">
      <g>
       <use style="stroke:#000000;stroke-linecap:butt;stroke-width:0.5;" x="508.5" xlink:href="#mcb557df647" y="313.043478261"/>
      </g>
     </g>
     <g id="line2d_52">
      <g>
       <use style="stroke:#000000;stroke-linecap:butt;stroke-width:0.5;" x="508.5" xlink:href="#mdad270ee8e" y="203.47826087"/>
      </g>
     </g>
    </g>
    <g id="xtick_17">
     <g id="line2d_53">
      <g>
       <use style="stroke:#000000;stroke-linecap:butt;stroke-width:0.5;" x="578.25" xlink:href="#mcb557df647" y="313.043478261"/>
      </g>
     </g>
     <g id="line2d_54">
      <g>
       <use style="stroke:#000000;stroke-linecap:butt;stroke-width:0.5;" x="578.25" xlink:href="#mdad270ee8e" y="203.47826087"/>
      </g>
     </g>
    </g>
    <g id="xtick_18">
     <g id="line2d_55">
      <g>
       <use style="stroke:#000000;stroke-linecap:butt;stroke-width:0.5;" x="648.0" xlink:href="#mcb557df647" y="313.043478261"/>
      </g>
     </g>
     <g id="line2d_56">
      <g>
       <use style="stroke:#000000;stroke-linecap:butt;stroke-width:0.5;" x="648.0" xlink:href="#mdad270ee8e" y="203.47826087"/>
      </g>
     </g>
    </g>
   </g>
   <g id="matplotlib.axis_4">
    <g id="ytick_9">
     <g id="line2d_57">
      <g>
       <use style="stroke:#000000;stroke-linecap:butt;stroke-width:0.5;" x="90.0" xlink:href="#mc8fcea1516" y="313.043478261"/>
      </g>
     </g>
     <g id="line2d_58">
      <g>
       <use style="stroke:#000000;stroke-linecap:butt;stroke-width:0.5;" x="648.0" xlink:href="#m0d5b0a6425" y="313.043478261"/>
      </g>
     </g>
     <g id="text_10">
      <!--   0.0 -->
      <g transform="translate(64.4046875 316.683322011)scale(0.1 -0.1)">
       <use xlink:href="#DejaVuSans-20"/>
       <use x="31.787109375" xlink:href="#DejaVuSans-20"/>
       <use x="63.57421875" xlink:href="#DejaVuSans-30"/>
       <use x="127.197265625" xlink:href="#DejaVuSans-2e"/>
       <use x="158.984375" xlink:href="#DejaVuSans-30"/>
      </g>
     </g>
    </g>
    <g id="ytick_10">
     <g id="line2d_59">
      <g>
       <use style="stroke:#000000;stroke-linecap:butt;stroke-width:0.5;" x="90.0" xlink:href="#mc8fcea1516" y="294.782608696"/>
      </g>
     </g>
     <g id="line2d_60">
      <g>
       <use style="stroke:#000000;stroke-linecap:butt;stroke-width:0.5;" x="648.0" xlink:href="#m0d5b0a6425" y="294.782608696"/>
      </g>
     </g>
     <g id="text_11">
      <!--   1.0 -->
      <g transform="translate(64.4046875 298.422452446)scale(0.1 -0.1)">
       <use xlink:href="#DejaVuSans-20"/>
       <use x="31.787109375" xlink:href="#DejaVuSans-20"/>
       <use x="63.57421875" xlink:href="#DejaVuSans-31"/>
       <use x="127.197265625" xlink:href="#DejaVuSans-2e"/>
       <use x="158.984375" xlink:href="#DejaVuSans-30"/>
      </g>
     </g>
    </g>
    <g id="ytick_11">
     <g id="line2d_61">
      <g>
       <use style="stroke:#000000;stroke-linecap:butt;stroke-width:0.5;" x="90.0" xlink:href="#mc8fcea1516" y="276.52173913"/>
      </g>
     </g>
     <g id="line2d_62">
      <g>
       <use style="stroke:#000000;stroke-linecap:butt;stroke-width:0.5;" x="648.0" xlink:href="#m0d5b0a6425" y="276.52173913"/>
      </g>
     </g>
     <g id="text_12">
      <!--   2.0 -->
      <g transform="translate(64.4046875 280.16158288)scale(0.1 -0.1)">
       <use xlink:href="#DejaVuSans-20"/>
       <use x="31.787109375" xlink:href="#DejaVuSans-20"/>
       <use x="63.57421875" xlink:href="#DejaVuSans-32"/>
       <use x="127.197265625" xlink:href="#DejaVuSans-2e"/>
       <use x="158.984375" xlink:href="#DejaVuSans-30"/>
      </g>
     </g>
    </g>
    <g id="ytick_12">
     <g id="line2d_63">
      <g>
       <use style="stroke:#000000;stroke-linecap:butt;stroke-width:0.5;" x="90.0" xlink:href="#mc8fcea1516" y="258.260869565"/>
      </g>
     </g>
     <g id="line2d_64">
      <g>
       <use style="stroke:#000000;stroke-linecap:butt;stroke-width:0.5;" x="648.0" xlink:href="#m0d5b0a6425" y="258.260869565"/>
      </g>
     </g>
     <g id="text_13">
      <!--   3.0 -->
      <defs>
       <path d="
M40.5781 39.3125
Q47.6562 37.7969 51.625 33
Q55.6094 28.2188 55.6094 21.1875
Q55.6094 10.4062 48.1875 4.48438
Q40.7656 -1.42188 27.0938 -1.42188
Q22.5156 -1.42188 17.6562 -0.515625
Q12.7969 0.390625 7.625 2.20312
L7.625 11.7188
Q11.7188 9.32812 16.5938 8.10938
Q21.4844 6.89062 26.8125 6.89062
Q36.0781 6.89062 40.9375 10.5469
Q45.7969 14.2031 45.7969 21.1875
Q45.7969 27.6406 41.2812 31.2656
Q36.7656 34.9062 28.7188 34.9062
L20.2188 34.9062
L20.2188 43.0156
L29.1094 43.0156
Q36.375 43.0156 40.2344 45.9219
Q44.0938 48.8281 44.0938 54.2969
Q44.0938 59.9062 40.1094 62.9062
Q36.1406 65.9219 28.7188 65.9219
Q24.6562 65.9219 20.0156 65.0312
Q15.375 64.1562 9.8125 62.3125
L9.8125 71.0938
Q15.4375 72.6562 20.3438 73.4375
Q25.25 74.2188 29.5938 74.2188
Q40.8281 74.2188 47.3594 69.1094
Q53.9062 64.0156 53.9062 55.3281
Q53.9062 49.2656 50.4375 45.0938
Q46.9688 40.9219 40.5781 39.3125" id="DejaVuSans-33"/>
      </defs>
      <g transform="translate(64.4046875 261.900713315)scale(0.1 -0.1)">
       <use xlink:href="#DejaVuSans-20"/>
       <use x="31.787109375" xlink:href="#DejaVuSans-20"/>
       <use x="63.57421875" xlink:href="#DejaVuSans-33"/>
       <use x="127.197265625" xlink:href="#DejaVuSans-2e"/>
       <use x="158.984375" xlink:href="#DejaVuSans-30"/>
      </g>
     </g>
    </g>
    <g id="ytick_13">
     <g id="line2d_65">
      <g>
       <use style="stroke:#000000;stroke-linecap:butt;stroke-width:0.5;" x="90.0" xlink:href="#mc8fcea1516" y="240.0"/>
      </g>
     </g>
     <g id="line2d_66">
      <g>
       <use style="stroke:#000000;stroke-linecap:butt;stroke-width:0.5;" x="648.0" xlink:href="#m0d5b0a6425" y="240.0"/>
      </g>
     </g>
     <g id="text_14">
      <!--   4.0 -->
      <g transform="translate(64.4046875 243.63984375)scale(0.1 -0.1)">
       <use xlink:href="#DejaVuSans-20"/>
       <use x="31.787109375" xlink:href="#DejaVuSans-20"/>
       <use x="63.57421875" xlink:href="#DejaVuSans-34"/>
       <use x="127.197265625" xlink:href="#DejaVuSans-2e"/>
       <use x="158.984375" xlink:href="#DejaVuSans-30"/>
      </g>
     </g>
    </g>
    <g id="ytick_14">
     <g id="line2d_67">
      <g>
       <use style="stroke:#000000;stroke-linecap:butt;stroke-width:0.5;" x="90.0" xlink:href="#mc8fcea1516" y="221.739130435"/>
      </g>
     </g>
     <g id="line2d_68">
      <g>
       <use style="stroke:#000000;stroke-linecap:butt;stroke-width:0.5;" x="648.0" xlink:href="#m0d5b0a6425" y="221.739130435"/>
      </g>
     </g>
     <g id="text_15">
      <!--   5.0 -->
      <defs>
       <path d="
M10.7969 72.9062
L49.5156 72.9062
L49.5156 64.5938
L19.8281 64.5938
L19.8281 46.7344
Q21.9688 47.4688 24.1094 47.8281
Q26.2656 48.1875 28.4219 48.1875
Q40.625 48.1875 47.75 41.5
Q54.8906 34.8125 54.8906 23.3906
Q54.8906 11.625 47.5625 5.09375
Q40.2344 -1.42188 26.9062 -1.42188
Q22.3125 -1.42188 17.5469 -0.640625
Q12.7969 0.140625 7.71875 1.70312
L7.71875 11.625
Q12.1094 9.23438 16.7969 8.0625
Q21.4844 6.89062 26.7031 6.89062
Q35.1562 6.89062 40.0781 11.3281
Q45.0156 15.7656 45.0156 23.3906
Q45.0156 31 40.0781 35.4375
Q35.1562 39.8906 26.7031 39.8906
Q22.75 39.8906 18.8125 39.0156
Q14.8906 38.1406 10.7969 36.2812
z
" id="DejaVuSans-35"/>
      </defs>
      <g transform="translate(64.4046875 225.378974185)scale(0.1 -0.1)">
       <use xlink:href="#DejaVuSans-20"/>
       <use x="31.787109375" xlink:href="#DejaVuSans-20"/>
       <use x="63.57421875" xlink:href="#DejaVuSans-35"/>
       <use x="127.197265625" xlink:href="#DejaVuSans-2e"/>
       <use x="158.984375" xlink:href="#DejaVuSans-30"/>
      </g>
     </g>
    </g>
    <g id="ytick_15">
     <g id="line2d_69">
      <g>
       <use style="stroke:#000000;stroke-linecap:butt;stroke-width:0.5;" x="90.0" xlink:href="#mc8fcea1516" y="203.47826087"/>
      </g>
     </g>
     <g id="line2d_70">
      <g>
       <use style="stroke:#000000;stroke-linecap:butt;stroke-width:0.5;" x="648.0" xlink:href="#m0d5b0a6425" y="203.47826087"/>
      </g>
     </g>
     <g id="text_16">
      <!--   6.0 -->
      <g transform="translate(64.4046875 207.11810462)scale(0.1 -0.1)">
       <use xlink:href="#DejaVuSans-20"/>
       <use x="31.787109375" xlink:href="#DejaVuSans-20"/>
       <use x="63.57421875" xlink:href="#DejaVuSans-36"/>
       <use x="127.197265625" xlink:href="#DejaVuSans-2e"/>
       <use x="158.984375" xlink:href="#DejaVuSans-30"/>
      </g>
     </g>
    </g>
   </g>
   <g id="patch_9">
    <path d="
M90 203.478
L648 203.478" style="fill:none;stroke:#000000;"/>
   </g>
   <g id="patch_10">
    <path d="
M648 313.043
L648 203.478" style="fill:none;stroke:#000000;"/>
   </g>
   <g id="patch_11">
    <path d="
M90 313.043
L648 313.043" style="fill:none;stroke:#000000;"/>
   </g>
   <g id="patch_12">
    <path d="
M90 313.043
L90 203.478" style="fill:none;stroke:#000000;"/>
   </g>
   <g id="legend_2">
    <g id="patch_13">
     <path d="
M593.3 228.196
L642 228.196
L642 209.478
L593.3 209.478
L593.3 228.196
z
" style="fill:#ffffff;stroke:#000000;"/>
    </g>
    <g id="line2d_71">
     <path d="
M601.7 219.196
L618.5 219.196" style="fill:none;stroke:#000000;"/>
    </g>
    <g id="line2d_72"/>
    <g id="text_17">
     <!-- 2 -->
     <g transform="translate(631.7 223.39638587)scale(0.12 -0.12)">
      <use xlink:href="#DejaVuSans-32"/>
     </g>
    </g>
   </g>
  </g>
  <g id="axes_3">
   <g id="patch_14">
    <path d="
M90 444.522
L648 444.522
L648 334.957
L90 334.957
z
" style="fill:#ffffff;"/>
   </g>
   <g id="line2d_73">
    <path clip-path="url(#p8c0260904f)" d="
M90 357.259
L90.6975 356.729
L92.0925 356.864
L92.79 356.734
L93.4875 356.394
L94.185 355.814
L95.58 354.041
L96.2775 353.811
L96.975 354.142
L98.37 355.588
L99.0675 355.898
L99.765 355.622
L100.463 355.113
L101.16 355.026
L101.858 355.194
L103.252 355.831
L103.95 355.83
L104.648 355.965
L105.345 356.458
L107.438 358.567
L108.135 358.454
L108.832 357.379
L109.53 355.988
L110.227 355.276
L110.925 355.643
L111.623 356.527
L112.32 356.773
L113.017 356.278
L113.715 356.241
L114.412 356.835
L115.808 358.851
L116.505 359.033
L117.203 358.319
L119.295 354.687
L119.993 354.828
L120.69 356.899
L121.388 360.042
L122.782 367.157
L123.48 368.136
L124.178 366.493
L126.27 358.287
L126.968 357.036
L128.363 356.9
L129.06 356.203
L130.455 353.812
L131.153 353.423
L131.85 354.032
L132.548 355.259
L133.245 356.801
L134.64 360.65
L135.338 361.4
L136.035 361.304
L136.733 360.167
L137.43 358.147
L138.127 356.561
L138.825 356.557
L139.523 357.613
L140.22 358.271
L140.918 358.005
L141.615 357.51
L142.312 357.608
L143.01 358.651
L143.708 360.712
L144.405 363.53
L145.102 365.79
L145.8 366.094
L146.498 364.646
L147.195 362.364
L148.59 357.435
L149.287 356.337
L149.985 355.947
L150.683 355.794
L151.38 355.756
L152.077 355.859
L152.775 356.193
L154.17 357.399
L154.868 357.505
L155.565 356.833
L156.262 355.947
L156.96 355.388
L157.657 355.184
L158.355 355.098
L159.053 355.2
L161.145 355.863
L161.843 355.32
L162.54 355.128
L163.238 356.588
L164.632 362.066
L165.33 364.076
L166.028 363.805
L167.423 357.669
L168.12 356.088
L168.817 356.714
L169.515 358.906
L170.91 364.766
L171.608 366.62
L172.305 365.872
L173.002 363.495
L173.7 362.146
L174.398 362.779
L175.095 364.047
L175.793 363.937
L176.49 363.215
L177.188 363.698
L177.885 364.938
L179.28 368.242
L179.978 368.63
L180.675 366.491
L181.373 363.245
L182.07 360.797
L182.767 359.538
L184.162 358.419
L184.86 357.479
L185.558 356.786
L186.255 356.717
L186.952 357.148
L187.65 357.859
L188.347 357.896
L189.743 355.496
L190.44 354.64
L191.137 354.116
L191.835 354.1
L192.532 354.336
L193.23 354.727
L193.928 354.899
L196.718 354.253
L197.415 354.274
L198.113 354.453
L199.507 355.175
L200.205 355.739
L200.903 355.988
L201.6 355.796
L202.298 355.171
L202.995 354.328
L203.692 353.664
L204.39 353.417
L205.088 353.634
L205.785 353.977
L206.483 354.146
L207.877 354.146
L209.273 353.991
L209.97 354.125
L210.668 354.393
L211.365 355.062
L212.76 357.065
L213.457 357.554
L214.155 357.27
L214.853 356.166
L215.55 354.759
L216.248 353.821
L216.945 353.504
L217.642 353.352
L219.735 353.484
L220.433 353.855
L221.13 354.915
L222.525 357.386
L223.222 358.01
L223.92 357.677
L225.315 355.303
L226.012 354.823
L226.71 355.16
L227.407 356.046
L228.105 357.963
L228.803 360.613
L229.5 362.756
L230.197 363.91
L230.895 364.058
L231.593 363.544
L232.29 363.509
L232.988 365.06
L234.382 370.472
L235.08 372.093
L235.778 371.639
L236.475 368.544
L237.173 364.443
L237.87 361.803
L238.567 361.154
L239.265 361.111
L240.66 360.348
L241.358 360.389
L242.752 361.426
L243.45 361.016
L244.148 359.488
L244.845 357.296
L245.542 355.668
L246.24 354.906
L246.938 354.656
L247.635 354.693
L250.425 355.97
L251.82 356.257
L252.518 356.948
L253.912 360.279
L254.61 361.274
L255.308 361.016
L256.005 359.482
L256.702 357.295
L257.4 355.575
L258.097 354.977
L258.795 355.11
L259.493 355.476
L260.19 355.994
L261.585 357.296
L262.283 357.657
L262.98 357.618
L264.375 356.667
L265.072 356.328
L267.863 355.581
L270.653 355.685
L271.35 355.932
L272.745 356.89
L273.442 357.171
L274.14 357.193
L274.837 356.948
L275.535 357.153
L276.233 358.464
L277.627 361.887
L278.325 362.668
L279.023 362.038
L279.72 360.421
L280.418 359.494
L281.115 359.906
L281.812 360.669
L282.51 361.177
L283.207 361.258
L283.905 360.618
L285.3 358.545
L285.998 357.975
L286.695 357.708
L287.393 357.83
L288.788 358.95
L289.485 359.529
L290.183 359.74
L290.88 359.52
L292.275 358.448
L292.972 358.284
L294.368 358.25
L295.762 358.155
L296.46 358.204
L298.553 358.749
L302.04 359.476
L302.738 359.957
L304.132 361.787
L304.83 362.709
L305.528 363.28
L306.923 363.144
L307.62 364.406
L309.015 368.345
L309.712 369.305
L310.41 368.305
L311.108 365.854
L311.805 363.911
L312.502 363.693
L313.2 365.103
L313.898 367.179
L314.595 368.613
L315.293 368.421
L316.688 365.942
L317.385 365.566
L318.082 366.108
L318.78 367.159
L319.477 368.449
L320.175 369.996
L320.873 371.19
L322.268 372.31
L322.965 372.141
L323.663 370.676
L324.36 368.853
L325.058 367.82
L325.755 367.637
L327.15 368.045
L327.847 368.392
L328.545 368.885
L329.94 370.346
L330.638 371.704
L332.73 378.373
L333.428 379.5
L334.125 379.315
L334.822 378.367
L335.52 377.925
L336.217 378.238
L337.613 379.036
L338.31 379.46
L339.007 380.105
L340.403 381.545
L342.495 383.062
L343.192 384.08
L344.587 387.194
L345.983 390.389
L346.68 391.328
L347.377 391.825
L348.075 392.533
L349.47 394.672
L351.562 398.792
L352.26 400.38
L352.957 402.463
L354.353 407.604
L356.445 415.981
L357.142 419.943
L359.235 434.953
L359.933 437.164
L360.63 436.96
L361.327 434.735
L366.908 406.248
L368.303 401.216
L369.697 397.181
L371.093 393.857
L372.488 390.934
L373.882 388.452
L374.58 387.556
L375.278 387.273
L375.975 387.551
L376.673 387.954
L377.37 387.642
L378.067 386.13
L379.462 382.255
L380.16 380.846
L380.858 379.928
L382.252 378.586
L382.95 377.775
L383.647 377.339
L384.345 377.589
L385.74 379.099
L386.438 379.126
L387.135 377.667
L387.832 375.274
L388.53 373.405
L389.228 372.45
L389.925 371.976
L390.623 372.058
L391.32 372.993
L392.715 376.575
L393.413 377.183
L394.11 376.164
L394.808 373.604
L395.505 370.458
L396.202 368.365
L396.9 367.531
L397.598 367.282
L399.69 367.375
L401.085 367.914
L401.783 367.929
L402.48 367.542
L403.875 365.917
L405.27 364.437
L406.665 363.644
L407.363 363.527
L408.06 363.977
L408.757 364.673
L409.455 365.085
L410.153 365.032
L410.85 364.353
L411.548 363.48
L412.245 363.05
L412.942 363.139
L415.035 364.619
L415.733 364.774
L416.43 364.463
L417.127 363.687
L419.22 360.414
L419.918 359.86
L420.615 359.755
L421.312 359.978
L422.01 360.432
L422.707 361.231
L423.405 362.232
L424.103 363.03
L424.8 363.464
L425.498 363.595
L426.195 363.144
L426.892 361.933
L427.59 360.374
L428.288 359.228
L428.985 358.677
L429.683 358.459
L431.775 358.113
L432.473 357.764
L433.868 357.297
L434.565 357.017
L435.262 356.909
L438.75 357.484
L439.447 358.079
L440.145 359.36
L440.843 360.99
L441.54 361.98
L442.935 361.481
L443.632 361.628
L444.33 361.285
L445.725 359.182
L447.12 357.978
L447.817 357.244
L448.515 356.689
L449.212 356.29
L451.305 355.957
L452.002 356.175
L453.397 357.113
L454.095 357.381
L455.49 356.742
L456.885 356.623
L457.582 356.67
L458.28 356.841
L458.978 357.198
L459.675 357.418
L460.373 357.431
L461.07 356.976
L462.465 355.407
L463.163 355.081
L464.558 354.782
L465.255 354.818
L466.65 355.474
L467.348 355.795
L468.045 355.823
L470.835 354.67
L471.533 355.109
L472.928 356.843
L473.625 356.962
L475.02 355.839
L476.415 355.77
L477.113 355.739
L478.507 355.489
L479.205 355.658
L479.903 355.686
L481.995 355.015
L483.39 355.061
L484.087 355.266
L485.483 356.77
L486.18 356.696
L489.668 354.569
L490.365 354.411
L491.76 354.458
L492.457 354.408
L493.853 354.621
L495.248 355.04
L495.945 355.566
L497.34 358.054
L498.038 358.421
L498.735 357.792
L500.13 355.318
L500.827 354.59
L501.525 354.124
L502.223 353.925
L504.315 354.025
L508.5 353.964
L509.895 353.945
L512.685 353.729
L514.08 353.748
L516.173 353.465
L518.265 353.402
L521.055 353.72
L525.24 353.685
L525.938 353.597
L526.635 353.632
L528.03 354.017
L528.727 354.063
L532.215 353.638
L533.61 353.988
L535.005 354.496
L535.702 354.485
L539.888 353.775
L541.98 353.655
L543.375 353.45
L544.77 353.675
L545.467 353.65
L549.653 354.331
L550.35 354.876
L551.048 355.668
L551.745 356.739
L552.442 357.495
L553.14 357.327
L555.233 355.061
L556.628 354.529
L558.023 354.157
L560.115 353.24
L560.812 353.094
L562.905 353.054
L566.392 353.027
L567.09 353.256
L568.485 353.961
L569.183 354.019
L571.973 353.156
L574.763 353.106
L576.158 353.317
L576.855 353.637
L577.553 354.335
L578.947 356.476
L579.645 356.735
L581.04 355.001
L581.737 354.362
L582.435 353.992
L583.83 353.717
L585.923 353.023
L589.41 353.05
L590.108 352.937
L591.503 352.907
L592.898 352.838
L594.293 352.804
L596.385 352.622
L597.78 352.688
L604.755 352.707
L606.847 353.128
L610.335 352.91
L611.73 352.937
L615.217 352.775
L616.612 352.812
L618.705 352.487
L621.495 352.598
L623.587 352.847
L624.285 353.066
L625.68 354.058
L626.378 354.269
L628.47 353.339
L629.168 353.186
L629.865 353.178
L630.562 353.41
L631.26 354.089
L631.957 355.274
L631.957 355.274" style="fill:none;stroke:#000000;"/>
   </g>
   <g id="matplotlib.axis_5">
    <g id="xtick_19">
     <g id="line2d_74">
      <g>
       <use style="stroke:#000000;stroke-linecap:butt;stroke-width:0.5;" x="90.0" xlink:href="#mcb557df647" y="444.52173913"/>
      </g>
     </g>
     <g id="line2d_75">
      <g>
       <use style="stroke:#000000;stroke-linecap:butt;stroke-width:0.5;" x="90.0" xlink:href="#mdad270ee8e" y="334.956521739"/>
      </g>
     </g>
    </g>
    <g id="xtick_20">
     <g id="line2d_76">
      <g>
       <use style="stroke:#000000;stroke-linecap:butt;stroke-width:0.5;" x="159.75" xlink:href="#mcb557df647" y="444.52173913"/>
      </g>
     </g>
     <g id="line2d_77">
      <g>
       <use style="stroke:#000000;stroke-linecap:butt;stroke-width:0.5;" x="159.75" xlink:href="#mdad270ee8e" y="334.956521739"/>
      </g>
     </g>
    </g>
    <g id="xtick_21">
     <g id="line2d_78">
      <g>
       <use style="stroke:#000000;stroke-linecap:butt;stroke-width:0.5;" x="229.5" xlink:href="#mcb557df647" y="444.52173913"/>
      </g>
     </g>
     <g id="line2d_79">
      <g>
       <use style="stroke:#000000;stroke-linecap:butt;stroke-width:0.5;" x="229.5" xlink:href="#mdad270ee8e" y="334.956521739"/>
      </g>
     </g>
    </g>
    <g id="xtick_22">
     <g id="line2d_80">
      <g>
       <use style="stroke:#000000;stroke-linecap:butt;stroke-width:0.5;" x="299.25" xlink:href="#mcb557df647" y="444.52173913"/>
      </g>
     </g>
     <g id="line2d_81">
      <g>
       <use style="stroke:#000000;stroke-linecap:butt;stroke-width:0.5;" x="299.25" xlink:href="#mdad270ee8e" y="334.956521739"/>
      </g>
     </g>
    </g>
    <g id="xtick_23">
     <g id="line2d_82">
      <g>
       <use style="stroke:#000000;stroke-linecap:butt;stroke-width:0.5;" x="369.0" xlink:href="#mcb557df647" y="444.52173913"/>
      </g>
     </g>
     <g id="line2d_83">
      <g>
       <use style="stroke:#000000;stroke-linecap:butt;stroke-width:0.5;" x="369.0" xlink:href="#mdad270ee8e" y="334.956521739"/>
      </g>
     </g>
    </g>
    <g id="xtick_24">
     <g id="line2d_84">
      <g>
       <use style="stroke:#000000;stroke-linecap:butt;stroke-width:0.5;" x="438.75" xlink:href="#mcb557df647" y="444.52173913"/>
      </g>
     </g>
     <g id="line2d_85">
      <g>
       <use style="stroke:#000000;stroke-linecap:butt;stroke-width:0.5;" x="438.75" xlink:href="#mdad270ee8e" y="334.956521739"/>
      </g>
     </g>
    </g>
    <g id="xtick_25">
     <g id="line2d_86">
      <g>
       <use style="stroke:#000000;stroke-linecap:butt;stroke-width:0.5;" x="508.5" xlink:href="#mcb557df647" y="444.52173913"/>
      </g>
     </g>
     <g id="line2d_87">
      <g>
       <use style="stroke:#000000;stroke-linecap:butt;stroke-width:0.5;" x="508.5" xlink:href="#mdad270ee8e" y="334.956521739"/>
      </g>
     </g>
    </g>
    <g id="xtick_26">
     <g id="line2d_88">
      <g>
       <use style="stroke:#000000;stroke-linecap:butt;stroke-width:0.5;" x="578.25" xlink:href="#mcb557df647" y="444.52173913"/>
      </g>
     </g>
     <g id="line2d_89">
      <g>
       <use style="stroke:#000000;stroke-linecap:butt;stroke-width:0.5;" x="578.25" xlink:href="#mdad270ee8e" y="334.956521739"/>
      </g>
     </g>
    </g>
    <g id="xtick_27">
     <g id="line2d_90">
      <g>
       <use style="stroke:#000000;stroke-linecap:butt;stroke-width:0.5;" x="648.0" xlink:href="#mcb557df647" y="444.52173913"/>
      </g>
     </g>
     <g id="line2d_91">
      <g>
       <use style="stroke:#000000;stroke-linecap:butt;stroke-width:0.5;" x="648.0" xlink:href="#mdad270ee8e" y="334.956521739"/>
      </g>
     </g>
    </g>
   </g>
   <g id="matplotlib.axis_6">
    <g id="ytick_16">
     <g id="line2d_92">
      <g>
       <use style="stroke:#000000;stroke-linecap:butt;stroke-width:0.5;" x="90.0" xlink:href="#mc8fcea1516" y="444.52173913"/>
      </g>
     </g>
     <g id="line2d_93">
      <g>
       <use style="stroke:#000000;stroke-linecap:butt;stroke-width:0.5;" x="648.0" xlink:href="#m0d5b0a6425" y="444.52173913"/>
      </g>
     </g>
     <g id="text_18">
      <!--   0.5 -->
      <g transform="translate(64.6140625 448.16158288)scale(0.1 -0.1)">
       <use xlink:href="#DejaVuSans-20"/>
       <use x="31.787109375" xlink:href="#DejaVuSans-20"/>
       <use x="63.57421875" xlink:href="#DejaVuSans-30"/>
       <use x="127.197265625" xlink:href="#DejaVuSans-2e"/>
       <use x="158.984375" xlink:href="#DejaVuSans-35"/>
      </g>
     </g>
    </g>
    <g id="ytick_17">
     <g id="line2d_94">
      <g>
       <use style="stroke:#000000;stroke-linecap:butt;stroke-width:0.5;" x="90.0" xlink:href="#mc8fcea1516" y="426.260869565"/>
      </g>
     </g>
     <g id="line2d_95">
      <g>
       <use style="stroke:#000000;stroke-linecap:butt;stroke-width:0.5;" x="648.0" xlink:href="#m0d5b0a6425" y="426.260869565"/>
      </g>
     </g>
     <g id="text_19">
      <!--   0.6 -->
      <g transform="translate(64.3703125 429.900713315)scale(0.1 -0.1)">
       <use xlink:href="#DejaVuSans-20"/>
       <use x="31.787109375" xlink:href="#DejaVuSans-20"/>
       <use x="63.57421875" xlink:href="#DejaVuSans-30"/>
       <use x="127.197265625" xlink:href="#DejaVuSans-2e"/>
       <use x="158.984375" xlink:href="#DejaVuSans-36"/>
      </g>
     </g>
    </g>
    <g id="ytick_18">
     <g id="line2d_96">
      <g>
       <use style="stroke:#000000;stroke-linecap:butt;stroke-width:0.5;" x="90.0" xlink:href="#mc8fcea1516" y="408.0"/>
      </g>
     </g>
     <g id="line2d_97">
      <g>
       <use style="stroke:#000000;stroke-linecap:butt;stroke-width:0.5;" x="648.0" xlink:href="#m0d5b0a6425" y="408.0"/>
      </g>
     </g>
     <g id="text_20">
      <!--   0.7 -->
      <defs>
       <path d="
M8.20312 72.9062
L55.0781 72.9062
L55.0781 68.7031
L28.6094 0
L18.3125 0
L43.2188 64.5938
L8.20312 64.5938
z
" id="DejaVuSans-37"/>
      </defs>
      <g transform="translate(64.5953125 411.63984375)scale(0.1 -0.1)">
       <use xlink:href="#DejaVuSans-20"/>
       <use x="31.787109375" xlink:href="#DejaVuSans-20"/>
       <use x="63.57421875" xlink:href="#DejaVuSans-30"/>
       <use x="127.197265625" xlink:href="#DejaVuSans-2e"/>
       <use x="158.984375" xlink:href="#DejaVuSans-37"/>
      </g>
     </g>
    </g>
    <g id="ytick_19">
     <g id="line2d_98">
      <g>
       <use style="stroke:#000000;stroke-linecap:butt;stroke-width:0.5;" x="90.0" xlink:href="#mc8fcea1516" y="389.739130435"/>
      </g>
     </g>
     <g id="line2d_99">
      <g>
       <use style="stroke:#000000;stroke-linecap:butt;stroke-width:0.5;" x="648.0" xlink:href="#m0d5b0a6425" y="389.739130435"/>
      </g>
     </g>
     <g id="text_21">
      <!--   0.8 -->
      <g transform="translate(64.425 393.378974185)scale(0.1 -0.1)">
       <use xlink:href="#DejaVuSans-20"/>
       <use x="31.787109375" xlink:href="#DejaVuSans-20"/>
       <use x="63.57421875" xlink:href="#DejaVuSans-30"/>
       <use x="127.197265625" xlink:href="#DejaVuSans-2e"/>
       <use x="158.984375" xlink:href="#DejaVuSans-38"/>
      </g>
     </g>
    </g>
    <g id="ytick_20">
     <g id="line2d_100">
      <g>
       <use style="stroke:#000000;stroke-linecap:butt;stroke-width:0.5;" x="90.0" xlink:href="#mc8fcea1516" y="371.47826087"/>
      </g>
     </g>
     <g id="line2d_101">
      <g>
       <use style="stroke:#000000;stroke-linecap:butt;stroke-width:0.5;" x="648.0" xlink:href="#m0d5b0a6425" y="371.47826087"/>
      </g>
     </g>
     <g id="text_22">
      <!--   0.9 -->
      <defs>
       <path d="
M10.9844 1.51562
L10.9844 10.5
Q14.7031 8.73438 18.5 7.8125
Q22.3125 6.89062 25.9844 6.89062
Q35.75 6.89062 40.8906 13.4531
Q46.0469 20.0156 46.7812 33.4062
Q43.9531 29.2031 39.5938 26.9531
Q35.25 24.7031 29.9844 24.7031
Q19.0469 24.7031 12.6719 31.3125
Q6.29688 37.9375 6.29688 49.4219
Q6.29688 60.6406 12.9375 67.4219
Q19.5781 74.2188 30.6094 74.2188
Q43.2656 74.2188 49.9219 64.5156
Q56.5938 54.8281 56.5938 36.375
Q56.5938 19.1406 48.4062 8.85938
Q40.2344 -1.42188 26.4219 -1.42188
Q22.7031 -1.42188 18.8906 -0.6875
Q15.0938 0.046875 10.9844 1.51562
M30.6094 32.4219
Q37.25 32.4219 41.125 36.9531
Q45.0156 41.5 45.0156 49.4219
Q45.0156 57.2812 41.125 61.8438
Q37.25 66.4062 30.6094 66.4062
Q23.9688 66.4062 20.0938 61.8438
Q16.2188 57.2812 16.2188 49.4219
Q16.2188 41.5 20.0938 36.9531
Q23.9688 32.4219 30.6094 32.4219" id="DejaVuSans-39"/>
      </defs>
      <g transform="translate(64.44375 375.11810462)scale(0.1 -0.1)">
       <use xlink:href="#DejaVuSans-20"/>
       <use x="31.787109375" xlink:href="#DejaVuSans-20"/>
       <use x="63.57421875" xlink:href="#DejaVuSans-30"/>
       <use x="127.197265625" xlink:href="#DejaVuSans-2e"/>
       <use x="158.984375" xlink:href="#DejaVuSans-39"/>
      </g>
     </g>
    </g>
    <g id="ytick_21">
     <g id="line2d_102">
      <g>
       <use style="stroke:#000000;stroke-linecap:butt;stroke-width:0.5;" x="90.0" xlink:href="#mc8fcea1516" y="353.217391304"/>
      </g>
     </g>
     <g id="line2d_103">
      <g>
       <use style="stroke:#000000;stroke-linecap:butt;stroke-width:0.5;" x="648.0" xlink:href="#m0d5b0a6425" y="353.217391304"/>
      </g>
     </g>
     <g id="text_23">
      <!--   1.0 -->
      <g transform="translate(64.4046875 356.857235054)scale(0.1 -0.1)">
       <use xlink:href="#DejaVuSans-20"/>
       <use x="31.787109375" xlink:href="#DejaVuSans-20"/>
       <use x="63.57421875" xlink:href="#DejaVuSans-31"/>
       <use x="127.197265625" xlink:href="#DejaVuSans-2e"/>
       <use x="158.984375" xlink:href="#DejaVuSans-30"/>
      </g>
     </g>
    </g>
    <g id="ytick_22">
     <g id="line2d_104">
      <g>
       <use style="stroke:#000000;stroke-linecap:butt;stroke-width:0.5;" x="90.0" xlink:href="#mc8fcea1516" y="334.956521739"/>
      </g>
     </g>
     <g id="line2d_105">
      <g>
       <use style="stroke:#000000;stroke-linecap:butt;stroke-width:0.5;" x="648.0" xlink:href="#m0d5b0a6425" y="334.956521739"/>
      </g>
     </g>
     <g id="text_24">
      <!--   1.1 -->
      <g transform="translate(64.6640625 338.601834239)scale(0.1 -0.1)">
       <use xlink:href="#DejaVuSans-20"/>
       <use x="31.787109375" xlink:href="#DejaVuSans-20"/>
       <use x="63.57421875" xlink:href="#DejaVuSans-31"/>
       <use x="127.197265625" xlink:href="#DejaVuSans-2e"/>
       <use x="158.984375" xlink:href="#DejaVuSans-31"/>
      </g>
     </g>
    </g>
   </g>
   <g id="patch_15">
    <path d="
M90 334.957
L648 334.957" style="fill:none;stroke:#000000;"/>
   </g>
   <g id="patch_16">
    <path d="
M648 444.522
L648 334.957" style="fill:none;stroke:#000000;"/>
   </g>
   <g id="patch_17">
    <path d="
M90 444.522
L648 444.522" style="fill:none;stroke:#000000;"/>
   </g>
   <g id="patch_18">
    <path d="
M90 444.522
L90 334.957" style="fill:none;stroke:#000000;"/>
   </g>
   <g id="legend_3">
    <g id="patch_19">
     <path d="
M96 438.522
L144.966 438.522
L144.966 419.633
L96 419.633
L96 438.522
z
" style="fill:#ffffff;stroke:#000000;"/>
    </g>
    <g id="line2d_106">
     <path d="
M104.4 429.351
L121.2 429.351" style="fill:none;stroke:#000000;"/>
    </g>
    <g id="line2d_107"/>
    <g id="text_25">
     <!-- 3 -->
     <g transform="translate(134.4 433.55111413)scale(0.12 -0.12)">
      <use xlink:href="#DejaVuSans-33"/>
     </g>
    </g>
   </g>
  </g>
  <g id="axes_4">
   <g id="patch_20">
    <path d="
M90 576
L648 576
L648 466.435
L90 466.435
z
" style="fill:#ffffff;"/>
   </g>
   <g id="line2d_108">
    <path clip-path="url(#pdfa8d2f562)" d="
M90 510.306
L90.6975 510.053
L91.395 510.361
L92.0925 510.892
L92.79 510.43
L93.4875 509.581
L94.8825 508.964
L95.58 508.42
L96.2775 508.457
L97.6725 509.742
L98.37 509.968
L99.765 510.272
L100.463 510.443
L101.858 510.482
L102.555 510.353
L103.252 510.058
L103.95 510.014
L104.648 509.739
L105.345 510.276
L106.043 511.251
L106.74 511.786
L107.438 512.09
L108.135 511.905
L108.832 511.212
L110.925 508.334
L111.623 507.932
L112.32 507.943
L113.017 508.473
L114.412 510.635
L115.11 511.189
L115.808 512.568
L116.505 512.987
L117.203 511.841
L117.9 511.033
L118.597 510.478
L119.295 509.692
L119.993 509.943
L121.388 515.662
L122.085 517.087
L122.782 519.353
L123.48 520.949
L124.178 518.922
L124.875 516.439
L125.572 515.152
L126.968 512.123
L127.665 511.29
L128.363 510.97
L129.06 510.392
L130.455 508.433
L131.153 508.012
L131.85 508.855
L132.548 510.345
L133.245 511.427
L133.942 513.461
L134.64 515.84
L135.338 515.605
L136.035 514.552
L136.733 514.308
L137.43 513.632
L138.127 512.402
L138.825 512.036
L139.523 512.537
L140.918 514.507
L142.312 515.126
L144.405 518.371
L145.102 520.256
L145.8 520.023
L147.195 517.118
L148.59 512.495
L150.683 509.847
L151.38 509.62
L152.775 511.348
L154.17 511.159
L154.868 511.71
L155.565 511.768
L157.657 509.178
L158.355 509.223
L159.053 509.671
L159.75 509.552
L160.447 508.935
L161.145 508.899
L161.843 509.277
L162.54 510.235
L163.935 516.168
L165.33 517.458
L166.028 518.789
L166.725 518.187
L167.423 515.529
L168.12 513.404
L168.817 513.465
L169.515 515.075
L170.213 516.208
L170.91 516.517
L171.608 516.693
L172.305 515.761
L173.7 512.059
L174.398 510.75
L175.095 510.427
L175.793 511.193
L176.49 513.131
L177.188 516.159
L177.885 517.999
L178.582 517.898
L179.28 518.809
L179.978 520.621
L180.675 520.921
L181.373 520.269
L182.07 518.642
L183.465 512.561
L184.162 510.903
L184.86 509.981
L185.558 508.617
L186.255 507.619
L186.952 507.208
L187.65 507.179
L188.347 507.365
L189.743 507.356
L191.137 507.167
L191.835 507.132
L193.23 507.392
L193.928 507.396
L196.718 508.045
L197.415 507.961
L198.81 508.617
L199.507 508.831
L200.205 509.287
L200.903 509.306
L201.6 508.919
L202.995 508.498
L204.39 507.777
L205.088 507.836
L205.785 508.238
L206.483 508.511
L207.18 508.581
L208.575 507.977
L209.273 507.895
L209.97 507.684
L210.668 507.791
L211.365 508.823
L212.062 510.113
L212.76 510.363
L213.457 510.004
L214.155 509.929
L214.853 509.505
L216.248 507.426
L216.945 507.097
L218.34 506.908
L219.735 507.052
L220.433 507.643
L221.828 510.356
L222.525 510.71
L223.222 510.679
L223.92 510.966
L224.618 510.45
L226.012 508.849
L226.71 508.329
L227.407 509.12
L228.105 511.907
L228.803 515.572
L229.5 517.322
L230.197 517.99
L232.29 523.322
L232.988 527.014
L233.685 531.474
L234.382 532.082
L235.778 526.272
L236.475 522.7
L237.87 514.933
L238.567 512.284
L239.265 511.03
L239.963 511.199
L240.66 511.854
L241.358 512.91
L242.055 513.379
L242.752 512.887
L243.45 512.576
L244.148 512.128
L245.542 509.183
L246.24 508.45
L246.938 508.189
L247.635 508.2
L249.03 508.788
L250.425 508.779
L251.82 509.472
L252.518 510.645
L253.215 512.615
L253.912 513.746
L256.005 512.437
L257.4 508.948
L258.097 508.243
L259.493 508.455
L260.887 508.413
L262.283 508.379
L264.375 508.702
L265.072 508.476
L267.165 508.351
L268.56 508.146
L269.257 508.322
L269.955 508.377
L270.653 508.588
L272.048 509.529
L274.14 509.854
L274.837 509.614
L275.535 509.638
L276.93 513.253
L278.325 512.946
L279.023 512.801
L280.418 510.811
L281.812 511.7
L282.51 511.77
L283.207 512.095
L283.905 511.946
L284.602 511.207
L285.3 510.269
L285.998 509.696
L287.393 509.373
L288.09 509.879
L288.788 510.743
L289.485 510.776
L290.88 510.339
L292.275 509.285
L294.368 508.493
L299.25 508.79
L302.04 508.765
L302.738 509.357
L303.435 510.443
L304.132 510.992
L304.83 510.947
L306.225 511.441
L306.923 511.898
L307.62 513.982
L308.317 515.712
L309.015 515.286
L309.712 515.062
L310.41 515.348
L311.108 513.897
L311.805 511.726
L312.502 511.168
L313.898 512.147
L314.595 511.893
L315.293 511.22
L316.688 508.904
L317.385 508.891
L318.78 511.585
L319.477 512.081
L320.873 516.321
L321.57 516.247
L322.268 515.301
L322.965 515.191
L323.663 514.303
L324.36 512.389
L325.058 510.824
L325.755 510.203
L327.15 510.156
L327.847 509.999
L328.545 509.966
L329.243 510.125
L329.94 510.671
L330.638 511.934
L332.033 516.683
L332.73 516.6
L333.428 516.391
L334.125 517.074
L334.822 516.525
L335.52 514.837
L336.217 513.771
L336.915 513.731
L337.613 513.549
L338.31 512.552
L339.007 511.872
L340.403 511.065
L341.798 509.854
L342.495 509.204
L343.192 509.112
L343.89 509.757
L344.587 509.638
L345.285 508.331
L346.68 507.025
L347.377 504.989
L350.168 493.315
L352.957 479.186
L353.655 478.856
L354.353 483.526
L355.05 489.557
L355.748 491.385
L356.445 490.864
L357.142 495.323
L357.84 511.818
L359.235 564.603
L359.933 575.376
L360.63 570.469
L361.327 554.277
L362.723 516.371
L363.42 503.763
L364.118 494.762
L364.815 489.781
L365.512 487.812
L366.908 485.056
L367.605 485.066
L368.303 486.309
L371.093 494.616
L372.488 498.936
L374.58 504.467
L375.975 508.409
L377.37 510.467
L378.067 511.292
L378.765 511.296
L379.462 510.777
L380.16 510.673
L381.555 511.128
L382.95 511.46
L383.647 512.312
L384.345 514.119
L385.043 514.895
L385.74 514.411
L386.438 514.569
L387.135 514.548
L388.53 511.867
L389.228 511.15
L389.925 511.067
L390.623 511.325
L391.32 512.695
L392.017 515.152
L392.715 516.025
L393.413 515.399
L394.11 515.384
L394.808 514.65
L396.202 510.686
L396.9 509.849
L398.295 509.588
L398.993 509.432
L399.69 509.427
L401.783 509.11
L403.178 509.25
L404.572 509.047
L405.968 508.98
L406.665 509.066
L407.363 509.374
L408.06 510.18
L408.757 510.668
L409.455 510.505
L410.153 510.191
L410.85 509.089
L412.245 505.47
L412.942 504.714
L413.64 505.133
L415.035 508.146
L415.733 509.149
L416.43 509.274
L417.825 509.273
L419.22 508.545
L419.918 508.462
L420.615 508.692
L422.707 510.162
L424.103 513.235
L424.8 513.621
L425.498 513.414
L426.195 513.394
L426.892 512.503
L427.59 511.026
L428.288 509.907
L428.985 509.175
L430.38 508.593
L433.868 507.904
L435.262 507.995
L435.96 507.945
L440.843 508.713
L441.54 509.132
L442.238 509.212
L443.632 508.979
L445.725 509.157
L447.12 508.841
L448.515 508.244
L449.212 507.963
L449.91 507.827
L451.305 508.167
L452.7 508.387
L454.095 508.88
L454.793 508.782
L456.188 508.102
L456.885 508.102
L457.582 508.303
L458.28 508.895
L458.978 509.244
L460.373 509.234
L461.07 509.32
L461.767 508.873
L462.465 508.156
L463.163 507.654
L463.86 507.396
L464.558 507.393
L466.65 508.266
L468.045 507.744
L470.137 508.107
L470.835 508.02
L472.23 507.672
L472.928 508.066
L473.625 508.826
L474.322 509.162
L475.718 508.936
L477.113 509.275
L477.81 509.199
L479.205 508.318
L479.903 508.14
L480.6 508.181
L481.298 507.982
L482.692 507.307
L483.39 507.158
L485.483 507.338
L486.877 507.177
L488.97 507.441
L489.668 507.383
L491.76 507.544
L492.457 507.461
L493.155 507.65
L493.853 508.088
L494.55 508.691
L495.945 509.386
L496.642 510.553
L497.34 512.716
L498.038 515.269
L498.735 516.232
L499.433 515.161
L501.525 509.063
L502.223 508.444
L502.92 507.976
L503.618 507.704
L505.012 507.794
L507.105 507.477
L508.5 507.549
L509.197 507.367
L511.29 507.651
L514.08 507.528
L515.475 507.487
L516.87 507.362
L518.265 507.385
L519.66 507.758
L521.055 507.875
L521.753 507.75
L522.45 507.913
L523.148 508.202
L523.845 508.202
L524.543 507.851
L526.635 507.26
L528.727 507.468
L530.122 507.645
L530.82 507.626
L532.215 508.26
L532.913 508.306
L533.61 508.574
L534.308 509.077
L535.005 509.236
L536.4 508.754
L537.795 508.144
L539.888 507.912
L541.283 507.446
L541.98 507.576
L542.678 507.517
L544.072 507.229
L546.165 507.594
L547.56 507.499
L549.653 507.682
L550.35 508.002
L551.048 508.158
L551.745 508.191
L552.442 507.976
L553.14 507.624
L554.535 507.534
L555.233 507.326
L558.72 507.462
L560.812 507.354
L561.51 507.449
L562.207 507.231
L563.602 507.288
L564.997 507.197
L566.392 507.266
L567.09 507.353
L567.788 507.205
L568.485 507.253
L569.183 507.423
L569.88 507.161
L571.275 507.159
L572.67 507.217
L573.368 507.227
L574.763 507.474
L576.158 507.583
L577.553 507.952
L578.25 507.953
L579.645 508.385
L580.342 508.471
L581.737 508.2
L582.435 508.165
L583.132 508.302
L583.83 508.308
L585.225 507.792
L585.923 507.737
L586.62 507.821
L588.713 507.482
L589.41 507.491
L590.805 507.294
L591.503 507.238
L592.2 507.295
L592.898 507.525
L595.688 507.358
L596.385 507.471
L597.78 507.17
L599.175 507.33
L599.872 507.21
L600.57 507.223
L601.267 507.394
L602.663 507.444
L603.36 507.674
L604.755 507.616
L605.452 507.78
L606.847 507.867
L608.242 507.517
L609.638 507.496
L610.335 507.715
L611.73 507.518
L613.125 507.654
L615.915 507.392
L620.1 507.524
L621.495 507.498
L622.192 507.556
L622.89 507.399
L624.285 507.567
L624.982 507.923
L625.68 508.686
L626.378 509.183
L627.075 509.049
L628.47 507.825
L629.168 507.598
L630.562 507.614
L631.26 507.703
L631.957 507.626
L631.957 507.626" style="fill:none;stroke:#000000;"/>
   </g>
   <g id="matplotlib.axis_7">
    <g id="xtick_28">
     <g id="line2d_109">
      <g>
       <use style="stroke:#000000;stroke-linecap:butt;stroke-width:0.5;" x="90.0" xlink:href="#mcb557df647" y="576.0"/>
      </g>
     </g>
     <g id="line2d_110">
      <g>
       <use style="stroke:#000000;stroke-linecap:butt;stroke-width:0.5;" x="90.0" xlink:href="#mdad270ee8e" y="466.434782609"/>
      </g>
     </g>
     <g id="text_26">
      <!-- 0 -->
      <g transform="translate(85.6360438637 588.928014031)rotate(-30.0)scale(0.1 -0.1)">
       <use xlink:href="#DejaVuSans-30"/>
      </g>
     </g>
    </g>
    <g id="xtick_29">
     <g id="line2d_111">
      <g>
       <use style="stroke:#000000;stroke-linecap:butt;stroke-width:0.5;" x="159.75" xlink:href="#mcb557df647" y="576.0"/>
      </g>
     </g>
     <g id="line2d_112">
      <g>
       <use style="stroke:#000000;stroke-linecap:butt;stroke-width:0.5;" x="159.75" xlink:href="#mdad270ee8e" y="466.434782609"/>
      </g>
     </g>
     <g id="text_27">
      <!-- 100 -->
      <g transform="translate(144.746109879 595.070982781)rotate(-30.0)scale(0.1 -0.1)">
       <use xlink:href="#DejaVuSans-31"/>
       <use x="63.623046875" xlink:href="#DejaVuSans-30"/>
       <use x="127.24609375" xlink:href="#DejaVuSans-30"/>
      </g>
     </g>
    </g>
    <g id="xtick_30">
     <g id="line2d_113">
      <g>
       <use style="stroke:#000000;stroke-linecap:butt;stroke-width:0.5;" x="229.5" xlink:href="#mcb557df647" y="576.0"/>
      </g>
     </g>
     <g id="line2d_114">
      <g>
       <use style="stroke:#000000;stroke-linecap:butt;stroke-width:0.5;" x="229.5" xlink:href="#mdad270ee8e" y="466.434782609"/>
      </g>
     </g>
     <g id="text_28">
      <!-- 200 -->
      <g transform="translate(214.179469341 595.253795281)rotate(-30.0)scale(0.1 -0.1)">
       <use xlink:href="#DejaVuSans-32"/>
       <use x="63.623046875" xlink:href="#DejaVuSans-30"/>
       <use x="127.24609375" xlink:href="#DejaVuSans-30"/>
      </g>
     </g>
    </g>
    <g id="xtick_31">
     <g id="line2d_115">
      <g>
       <use style="stroke:#000000;stroke-linecap:butt;stroke-width:0.5;" x="299.25" xlink:href="#mcb557df647" y="576.0"/>
      </g>
     </g>
     <g id="line2d_116">
      <g>
       <use style="stroke:#000000;stroke-linecap:butt;stroke-width:0.5;" x="299.25" xlink:href="#mdad270ee8e" y="466.434782609"/>
      </g>
     </g>
     <g id="text_29">
      <!-- 300 -->
      <g transform="translate(283.95517947 595.238951531)rotate(-30.0)scale(0.1 -0.1)">
       <use xlink:href="#DejaVuSans-33"/>
       <use x="63.623046875" xlink:href="#DejaVuSans-30"/>
       <use x="127.24609375" xlink:href="#DejaVuSans-30"/>
      </g>
     </g>
    </g>
    <g id="xtick_32">
     <g id="line2d_117">
      <g>
       <use style="stroke:#000000;stroke-linecap:butt;stroke-width:0.5;" x="369.0" xlink:href="#mcb557df647" y="576.0"/>
      </g>
     </g>
     <g id="line2d_118">
      <g>
       <use style="stroke:#000000;stroke-linecap:butt;stroke-width:0.5;" x="369.0" xlink:href="#mdad270ee8e" y="466.434782609"/>
      </g>
     </g>
     <g id="text_30">
      <!-- 400 -->
      <g transform="translate(353.468375649 595.375670281)rotate(-30.0)scale(0.1 -0.1)">
       <use xlink:href="#DejaVuSans-34"/>
       <use x="63.623046875" xlink:href="#DejaVuSans-30"/>
       <use x="127.24609375" xlink:href="#DejaVuSans-30"/>
      </g>
     </g>
    </g>
    <g id="xtick_33">
     <g id="line2d_119">
      <g>
       <use style="stroke:#000000;stroke-linecap:butt;stroke-width:0.5;" x="438.75" xlink:href="#mcb557df647" y="576.0"/>
      </g>
     </g>
     <g id="line2d_120">
      <g>
       <use style="stroke:#000000;stroke-linecap:butt;stroke-width:0.5;" x="438.75" xlink:href="#mdad270ee8e" y="466.434782609"/>
      </g>
     </g>
     <g id="text_31">
      <!-- 500 -->
      <g transform="translate(423.463298459 595.234264031)rotate(-30.0)scale(0.1 -0.1)">
       <use xlink:href="#DejaVuSans-35"/>
       <use x="63.623046875" xlink:href="#DejaVuSans-30"/>
       <use x="127.24609375" xlink:href="#DejaVuSans-30"/>
      </g>
     </g>
    </g>
    <g id="xtick_34">
     <g id="line2d_121">
      <g>
       <use style="stroke:#000000;stroke-linecap:butt;stroke-width:0.5;" x="508.5" xlink:href="#mcb557df647" y="576.0"/>
      </g>
     </g>
     <g id="line2d_122">
      <g>
       <use style="stroke:#000000;stroke-linecap:butt;stroke-width:0.5;" x="508.5" xlink:href="#mdad270ee8e" y="466.434782609"/>
      </g>
     </g>
     <g id="text_32">
      <!-- 600 -->
      <g transform="translate(493.149699718 595.270982781)rotate(-30.0)scale(0.1 -0.1)">
       <use xlink:href="#DejaVuSans-36"/>
       <use x="63.623046875" xlink:href="#DejaVuSans-30"/>
       <use x="127.24609375" xlink:href="#DejaVuSans-30"/>
      </g>
     </g>
    </g>
    <g id="xtick_35">
     <g id="line2d_123">
      <g>
       <use style="stroke:#000000;stroke-linecap:butt;stroke-width:0.5;" x="578.25" xlink:href="#mcb557df647" y="576.0"/>
      </g>
     </g>
     <g id="line2d_124">
      <g>
       <use style="stroke:#000000;stroke-linecap:butt;stroke-width:0.5;" x="578.25" xlink:href="#mdad270ee8e" y="466.434782609"/>
      </g>
     </g>
     <g id="text_33">
      <!-- 700 -->
      <g transform="translate(563.005246564 595.210045281)rotate(-30.0)scale(0.1 -0.1)">
       <use xlink:href="#DejaVuSans-37"/>
       <use x="63.623046875" xlink:href="#DejaVuSans-30"/>
       <use x="127.24609375" xlink:href="#DejaVuSans-30"/>
      </g>
     </g>
    </g>
    <g id="xtick_36">
     <g id="line2d_125">
      <g>
       <use style="stroke:#000000;stroke-linecap:butt;stroke-width:0.5;" x="648.0" xlink:href="#mcb557df647" y="576.0"/>
      </g>
     </g>
     <g id="line2d_126">
      <g>
       <use style="stroke:#000000;stroke-linecap:butt;stroke-width:0.5;" x="648.0" xlink:href="#mdad270ee8e" y="466.434782609"/>
      </g>
     </g>
     <g id="text_34">
      <!-- 800 -->
      <g transform="translate(632.632108577 595.281139031)rotate(-30.0)scale(0.1 -0.1)">
       <use xlink:href="#DejaVuSans-38"/>
       <use x="63.623046875" xlink:href="#DejaVuSans-30"/>
       <use x="127.24609375" xlink:href="#DejaVuSans-30"/>
      </g>
     </g>
    </g>
   </g>
   <g id="matplotlib.axis_8">
    <g id="ytick_23">
     <g id="line2d_127">
      <g>
       <use style="stroke:#000000;stroke-linecap:butt;stroke-width:0.5;" x="90.0" xlink:href="#mc8fcea1516" y="576.0"/>
      </g>
     </g>
     <g id="line2d_128">
      <g>
       <use style="stroke:#000000;stroke-linecap:butt;stroke-width:0.5;" x="648.0" xlink:href="#m0d5b0a6425" y="576.0"/>
      </g>
     </g>
     <g id="text_35">
      <!--   0.5 -->
      <g transform="translate(64.6140625 579.63984375)scale(0.1 -0.1)">
       <use xlink:href="#DejaVuSans-20"/>
       <use x="31.787109375" xlink:href="#DejaVuSans-20"/>
       <use x="63.57421875" xlink:href="#DejaVuSans-30"/>
       <use x="127.197265625" xlink:href="#DejaVuSans-2e"/>
       <use x="158.984375" xlink:href="#DejaVuSans-35"/>
      </g>
     </g>
    </g>
    <g id="ytick_24">
     <g id="line2d_129">
      <g>
       <use style="stroke:#000000;stroke-linecap:butt;stroke-width:0.5;" x="90.0" xlink:href="#mc8fcea1516" y="562.304347826"/>
      </g>
     </g>
     <g id="line2d_130">
      <g>
       <use style="stroke:#000000;stroke-linecap:butt;stroke-width:0.5;" x="648.0" xlink:href="#m0d5b0a6425" y="562.304347826"/>
      </g>
     </g>
     <g id="text_36">
      <!--   0.6 -->
      <g transform="translate(64.3703125 565.944191576)scale(0.1 -0.1)">
       <use xlink:href="#DejaVuSans-20"/>
       <use x="31.787109375" xlink:href="#DejaVuSans-20"/>
       <use x="63.57421875" xlink:href="#DejaVuSans-30"/>
       <use x="127.197265625" xlink:href="#DejaVuSans-2e"/>
       <use x="158.984375" xlink:href="#DejaVuSans-36"/>
      </g>
     </g>
    </g>
    <g id="ytick_25">
     <g id="line2d_131">
      <g>
       <use style="stroke:#000000;stroke-linecap:butt;stroke-width:0.5;" x="90.0" xlink:href="#mc8fcea1516" y="548.608695652"/>
      </g>
     </g>
     <g id="line2d_132">
      <g>
       <use style="stroke:#000000;stroke-linecap:butt;stroke-width:0.5;" x="648.0" xlink:href="#m0d5b0a6425" y="548.608695652"/>
      </g>
     </g>
     <g id="text_37">
      <!--   0.7 -->
      <g transform="translate(64.5953125 552.248539402)scale(0.1 -0.1)">
       <use xlink:href="#DejaVuSans-20"/>
       <use x="31.787109375" xlink:href="#DejaVuSans-20"/>
       <use x="63.57421875" xlink:href="#DejaVuSans-30"/>
       <use x="127.197265625" xlink:href="#DejaVuSans-2e"/>
       <use x="158.984375" xlink:href="#DejaVuSans-37"/>
      </g>
     </g>
    </g>
    <g id="ytick_26">
     <g id="line2d_133">
      <g>
       <use style="stroke:#000000;stroke-linecap:butt;stroke-width:0.5;" x="90.0" xlink:href="#mc8fcea1516" y="534.913043478"/>
      </g>
     </g>
     <g id="line2d_134">
      <g>
       <use style="stroke:#000000;stroke-linecap:butt;stroke-width:0.5;" x="648.0" xlink:href="#m0d5b0a6425" y="534.913043478"/>
      </g>
     </g>
     <g id="text_38">
      <!--   0.8 -->
      <g transform="translate(64.425 538.552887228)scale(0.1 -0.1)">
       <use xlink:href="#DejaVuSans-20"/>
       <use x="31.787109375" xlink:href="#DejaVuSans-20"/>
       <use x="63.57421875" xlink:href="#DejaVuSans-30"/>
       <use x="127.197265625" xlink:href="#DejaVuSans-2e"/>
       <use x="158.984375" xlink:href="#DejaVuSans-38"/>
      </g>
     </g>
    </g>
    <g id="ytick_27">
     <g id="line2d_135">
      <g>
       <use style="stroke:#000000;stroke-linecap:butt;stroke-width:0.5;" x="90.0" xlink:href="#mc8fcea1516" y="521.217391304"/>
      </g>
     </g>
     <g id="line2d_136">
      <g>
       <use style="stroke:#000000;stroke-linecap:butt;stroke-width:0.5;" x="648.0" xlink:href="#m0d5b0a6425" y="521.217391304"/>
      </g>
     </g>
     <g id="text_39">
      <!--   0.9 -->
      <g transform="translate(64.44375 524.857235054)scale(0.1 -0.1)">
       <use xlink:href="#DejaVuSans-20"/>
       <use x="31.787109375" xlink:href="#DejaVuSans-20"/>
       <use x="63.57421875" xlink:href="#DejaVuSans-30"/>
       <use x="127.197265625" xlink:href="#DejaVuSans-2e"/>
       <use x="158.984375" xlink:href="#DejaVuSans-39"/>
      </g>
     </g>
    </g>
    <g id="ytick_28">
     <g id="line2d_137">
      <g>
       <use style="stroke:#000000;stroke-linecap:butt;stroke-width:0.5;" x="90.0" xlink:href="#mc8fcea1516" y="507.52173913"/>
      </g>
     </g>
     <g id="line2d_138">
      <g>
       <use style="stroke:#000000;stroke-linecap:butt;stroke-width:0.5;" x="648.0" xlink:href="#m0d5b0a6425" y="507.52173913"/>
      </g>
     </g>
     <g id="text_40">
      <!--   1.0 -->
      <g transform="translate(64.4046875 511.16158288)scale(0.1 -0.1)">
       <use xlink:href="#DejaVuSans-20"/>
       <use x="31.787109375" xlink:href="#DejaVuSans-20"/>
       <use x="63.57421875" xlink:href="#DejaVuSans-31"/>
       <use x="127.197265625" xlink:href="#DejaVuSans-2e"/>
       <use x="158.984375" xlink:href="#DejaVuSans-30"/>
      </g>
     </g>
    </g>
    <g id="ytick_29">
     <g id="line2d_139">
      <g>
       <use style="stroke:#000000;stroke-linecap:butt;stroke-width:0.5;" x="90.0" xlink:href="#mc8fcea1516" y="493.826086957"/>
      </g>
     </g>
     <g id="line2d_140">
      <g>
       <use style="stroke:#000000;stroke-linecap:butt;stroke-width:0.5;" x="648.0" xlink:href="#m0d5b0a6425" y="493.826086957"/>
      </g>
     </g>
     <g id="text_41">
      <!--   1.1 -->
      <g transform="translate(64.6640625 497.471399457)scale(0.1 -0.1)">
       <use xlink:href="#DejaVuSans-20"/>
       <use x="31.787109375" xlink:href="#DejaVuSans-20"/>
       <use x="63.57421875" xlink:href="#DejaVuSans-31"/>
       <use x="127.197265625" xlink:href="#DejaVuSans-2e"/>
       <use x="158.984375" xlink:href="#DejaVuSans-31"/>
      </g>
     </g>
    </g>
    <g id="ytick_30">
     <g id="line2d_141">
      <g>
       <use style="stroke:#000000;stroke-linecap:butt;stroke-width:0.5;" x="90.0" xlink:href="#mc8fcea1516" y="480.130434783"/>
      </g>
     </g>
     <g id="line2d_142">
      <g>
       <use style="stroke:#000000;stroke-linecap:butt;stroke-width:0.5;" x="648.0" xlink:href="#m0d5b0a6425" y="480.130434783"/>
      </g>
     </g>
     <g id="text_42">
      <!--   1.2 -->
      <g transform="translate(64.7421875 483.841372283)scale(0.1 -0.1)">
       <use xlink:href="#DejaVuSans-20"/>
       <use x="31.787109375" xlink:href="#DejaVuSans-20"/>
       <use x="63.57421875" xlink:href="#DejaVuSans-31"/>
       <use x="127.197265625" xlink:href="#DejaVuSans-2e"/>
       <use x="158.984375" xlink:href="#DejaVuSans-32"/>
      </g>
     </g>
    </g>
    <g id="ytick_31">
     <g id="line2d_143">
      <g>
       <use style="stroke:#000000;stroke-linecap:butt;stroke-width:0.5;" x="90.0" xlink:href="#mc8fcea1516" y="466.434782609"/>
      </g>
     </g>
     <g id="line2d_144">
      <g>
       <use style="stroke:#000000;stroke-linecap:butt;stroke-width:0.5;" x="648.0" xlink:href="#m0d5b0a6425" y="466.434782609"/>
      </g>
     </g>
     <g id="text_43">
      <!--   1.3 -->
      <g transform="translate(64.5421875 470.074626359)scale(0.1 -0.1)">
       <use xlink:href="#DejaVuSans-20"/>
       <use x="31.787109375" xlink:href="#DejaVuSans-20"/>
       <use x="63.57421875" xlink:href="#DejaVuSans-31"/>
       <use x="127.197265625" xlink:href="#DejaVuSans-2e"/>
       <use x="158.984375" xlink:href="#DejaVuSans-33"/>
      </g>
     </g>
    </g>
   </g>
   <g id="patch_21">
    <path d="
M90 466.435
L648 466.435" style="fill:none;stroke:#000000;"/>
   </g>
   <g id="patch_22">
    <path d="
M648 576
L648 466.435" style="fill:none;stroke:#000000;"/>
   </g>
   <g id="patch_23">
    <path d="
M90 576
L648 576" style="fill:none;stroke:#000000;"/>
   </g>
   <g id="patch_24">
    <path d="
M90 576
L90 466.435" style="fill:none;stroke:#000000;"/>
   </g>
   <g id="legend_4">
    <g id="patch_25">
     <path d="
M592.472 491.153
L642 491.153
L642 472.435
L592.472 472.435
L592.472 491.153
z
" style="fill:#ffffff;stroke:#000000;"/>
    </g>
    <g id="line2d_145">
     <path d="
M600.872 482.153
L617.672 482.153" style="fill:none;stroke:#000000;"/>
    </g>
    <g id="line2d_146"/>
    <g id="text_44">
     <!-- 4 -->
     <g transform="translate(630.871875 486.352907609)scale(0.12 -0.12)">
      <use xlink:href="#DejaVuSans-34"/>
     </g>
    </g>
   </g>
  </g>
 </g>
 <defs>
  <clipPath id="p8c0260904f">
   <rect height="109.565217391" width="558.0" x="90.0" y="334.956521739"/>
  </clipPath>
  <clipPath id="p13888d3786">
   <rect height="109.565217391" width="558.0" x="90.0" y="203.47826087"/>
  </clipPath>
  <clipPath id="pba3642048d">
   <rect height="109.565217391" width="558.0" x="90.0" y="72.0"/>
  </clipPath>
  <clipPath id="pdfa8d2f562">
   <rect height="109.565217391" width="558.0" x="90.0" y="466.434782609"/>
  </clipPath>
 </defs>
</svg>
