<?xml version="1.0" encoding="utf-8" standalone="no"?>
<!DOCTYPE svg PUBLIC "-//W3C//DTD SVG 1.1//EN"
  "http://www.w3.org/Graphics/SVG/1.1/DTD/svg11.dtd">
<!-- Created with matplotlib (http://matplotlib.org/) -->
<svg height="720pt" version="1.1" viewBox="0 0 720 720" width="720pt" xmlns="http://www.w3.org/2000/svg" xmlns:xlink="http://www.w3.org/1999/xlink">
 <defs>
  <style type="text/css">
*{stroke-linecap:square;stroke-linejoin:round;}
  </style>
 </defs>
 <g id="figure_1">
  <g id="patch_1">
   <path d="
M0 720
L720 720
L720 0
L0 0
z
" style="fill:#ffffff;"/>
  </g>
  <g id="axes_1">
   <g id="patch_2">
    <path d="
M90 168.207
L186.207 168.207
L186.207 72
L90 72
z
" style="fill:#ffffff;"/>
   </g>
   <g id="line2d_1">
    <path clip-path="url(#pf68211e43b)" d="
M90 83.5026
L90.1203 85.6199
L90.2405 86.8839
L90.3608 84.761
L90.481 85.0343
L90.6013 84.9726
L90.7216 83.6112
L90.8418 84.7386
L90.9621 87.0891
L91.0823 84.9361
L91.2026 80.0491
L91.3228 81.3884
L91.4431 84.7807
L91.5634 84.8975
L91.6836 85.8562
L91.8039 84.5381
L92.0444 86.2257
L92.2849 82.919
L92.5254 88.0385
L92.6457 87.1149
L93.0065 82.4537
L93.1267 83.6742
L93.3672 90.5734
L93.4875 89.9076
L94.0888 81.1209
L94.3293 79.924
L94.4496 82.044
L94.6901 90.5075
L94.8103 91.9441
L94.9306 91.4175
L95.2914 83.2396
L95.4116 82.8011
L95.6522 85.648
L95.7724 90.8148
L96.0129 103.253
L96.1332 100.457
L96.2534 101.511
L96.494 84.8472
L96.6142 84.9019
L96.7345 89.4262
L96.8547 89.6368
L96.975 89.3214
L97.0953 88.4334
L97.456 82.9691
L97.8168 91.855
L97.9371 90.4347
L98.0573 92.7454
L98.2978 98.3311
L98.5384 85.8589
L98.6586 84.3414
L98.7789 84.5066
L98.8991 87.0362
L99.0194 86.4405
L99.2599 84.4058
L99.3802 83.8414
L99.5004 86.7156
L99.7409 101.135
L99.8612 98.2932
L99.9815 98.7175
L100.102 97.4184
L100.342 85.4337
L100.463 84.8507
L100.703 87.9024
L100.823 89.4112
L100.944 88.6706
L101.064 85.2315
L101.184 86.0492
L101.304 89.6621
L101.425 88.9335
L101.545 85.7104
L101.785 86.9071
L101.906 85.1904
L102.146 85.4465
L102.266 83.5414
L102.627 89.3697
L102.868 82.4739
L102.988 83.7506
L103.228 98.2896
L103.349 98.1616
L103.589 87.4334
L103.709 88.259
L103.95 83.0206
L104.311 98.3052
L104.431 96.0085
L104.672 84.8582
L104.792 86.9608
L104.912 84.295
L105.153 86.9575
L105.273 81.9686
L105.393 83.7201
L105.634 102.721
L105.994 86.7983
L106.115 84.689
L106.355 87.4156
L106.475 89.2286
L106.716 84.2771
L106.836 85.5851
L107.077 83.9649
L107.197 84.5427
L107.438 80.793
L107.558 83.2686
L107.678 83.3861
L107.798 82.2397
L107.919 83.9421
L108.039 83.9082
L108.159 84.333
L108.279 88.3552
L108.4 88.3475
L108.76 81.9342
L108.881 82.9251
L109.001 82.6353
L109.241 85.4027
L109.362 85.1126
L109.482 88.1238
L109.722 85.6514
L109.963 81.7877
L110.083 83.4606
L110.203 83.259
L110.324 82.0581
L110.564 84.5146
L110.684 84.521
L110.805 84.9531
L110.925 86.4429
L111.166 83.4714
L111.286 84.3921
L111.406 86.5004
L111.647 93.6791
L112.007 84.0465
L112.128 83.9057
L112.248 81.9451
L112.368 82.1613
L112.609 85.0992
L112.729 84.8327
L112.849 83.221
L113.09 87.9304
L113.33 91.3999
L113.571 86.107
L113.811 82.9172
L113.931 83.1142
L114.052 84.5757
L114.292 91.9029
L114.533 102.148
L114.773 86.6734
L115.134 99.3021
L115.375 112.581
L115.495 107.746
L115.735 91.454
L115.976 88.7751
L116.096 90.4005
L116.337 84.4464
L116.697 97.9526
L117.058 84.8952
L117.178 88.8062
L117.299 87.4918
L117.419 82.7497
L117.539 83.0445
L117.659 82.7989
L117.9 88.3178
L118.141 85.0453
L118.261 84.5682
L118.381 85.0543
L118.501 86.6998
L118.742 97.2433
L119.223 85.0577
L119.343 85.9709
L119.584 81.5645
L119.704 88.3235
L119.824 87.4336
L120.185 82.7064
L120.305 86.9463
L120.425 86.9304
L120.546 86.4664
L120.786 83.537
L120.906 88.0113
L121.027 86.8144
L121.267 83.5422
L121.388 83.809
L121.628 88.6641
L121.748 89.3295
L121.869 88.2344
L121.989 89.4223
L122.229 87.4979
L122.35 89.0462
L122.47 88.1119
L122.71 99.1189
L122.831 95.6087
L123.071 87.3138
L123.312 85.9671
L123.552 94.9384
L123.672 93.3729
L123.913 88.1059
L124.033 88.8416
L124.274 87.5648
L124.514 90.2783
L124.634 90.6862
L124.755 93.8197
L124.875 93.3848
L124.995 90.9202
L125.116 91.3934
L125.356 86.3979
L125.717 93.1287
L125.957 89.7871
L126.078 91.6313
L126.198 90.5101
L126.318 90.4424
L126.559 91.7858
L126.799 90.2637
L127.04 93.8258
L127.16 92.0376
L127.28 93.7371
L127.4 99.2334
L127.641 93.5265
L127.881 99.1955
L128.122 110.917
L128.242 110.843
L128.483 97.8279
L128.603 97.9477
L128.723 97.1836
L129.084 100.309
L129.204 101.8
L129.445 98.178
L129.685 102.891
L129.926 109.405
L130.166 105.894
L130.407 114.965
L130.768 102.157
L131.008 108.288
L131.128 108.166
L131.369 106.778
L131.489 107.497
L131.609 107.064
L131.73 108.947
L132.211 125.901
L132.451 118.794
L132.932 125.103
L133.053 123.05
L133.173 125.692
L133.413 123.612
L133.534 124.216
L133.774 126.182
L133.894 125.209
L134.015 125.527
L134.135 126.207
L134.375 130.644
L134.496 128.432
L134.616 123.183
L134.736 123.139
L134.856 125.824
L135.217 119.559
L135.338 119.407
L135.578 122.458
L135.698 121.661
L136.54 151.357
L136.66 152.576
L136.901 159.627
L137.141 151.605
L137.382 146.125
L137.502 143.514
L137.622 144.092
L138.103 121.649
L138.344 119.032
L138.584 120.909
L138.705 119.44
L138.945 124.718
L139.066 124.847
L139.186 125.15
L139.306 124.521
L139.426 125.259
L139.547 125.237
L139.667 126.473
L139.787 129.649
L139.907 128.433
L140.268 120.934
L140.388 120.655
L140.509 121.96
L140.629 118.973
L140.869 119.984
L141.11 118.303
L141.23 118.865
L141.35 122.697
L141.831 111.101
L142.072 113.117
L142.192 112.581
L142.312 108.465
L142.433 108.791
L142.553 118.49
L142.673 119.059
L142.914 105.932
L143.275 100.807
L143.395 101.783
L143.515 101.409
L143.635 98.6053
L143.876 100.562
L144.116 98.6889
L144.477 95.4345
L144.597 96.0256
L144.718 97.978
L144.958 92.4167
L145.199 96.8129
L145.319 99.4986
L145.439 99.1274
L145.8 92.6333
L146.161 94.9208
L146.401 90.2507
L146.642 96.8581
L146.882 93.4095
L147.003 92.651
L147.123 90.4961
L147.243 90.4518
L147.604 95.2298
L147.724 90.8571
L147.844 90.9577
L148.205 97.137
L148.446 90.7089
L148.566 89.3547
L148.686 86.0927
L148.806 87.4372
L148.927 90.336
L149.167 88.819
L149.288 86.1488
L149.408 86.1006
L149.648 89.8308
L149.889 86.682
L150.129 91.88
L150.37 88.9557
L150.49 88.3687
L150.61 85.0962
L151.091 91.0479
L151.212 89.6917
L151.332 86.9144
L151.452 87.936
L151.572 87.5386
L151.693 85.992
L151.813 87.8089
L151.933 87.3014
L152.053 86.2921
L152.174 86.3576
L152.294 87.1
L152.414 88.9869
L152.534 88.9733
L152.655 88.1234
L152.775 85.5747
L152.895 86.0684
L153.016 87.4274
L153.136 85.4331
L153.256 86.0453
L153.376 88.8039
L153.497 88.0175
L153.737 83.7541
L154.098 91.0467
L154.579 86.3244
L154.699 87.8901
L154.819 84.7673
L155.06 87.7058
L155.3 84.5558
L155.541 87.0719
L155.661 84.2518
L155.781 85.7547
L155.902 85.5161
L156.022 84.5516
L156.263 87.6626
L156.383 89.0348
L156.503 88.8844
L156.623 83.79
L156.864 86.2131
L157.104 83.1878
L157.225 83.3879
L157.345 87.0485
L157.465 86.3591
L157.585 84.7412
L157.706 86.148
L157.826 85.7955
L157.946 86.0883
L158.066 87.603
L158.307 81.8008
L158.547 87.94
L158.668 85.595
L158.788 86.2265
L159.028 81.7548
L159.149 84.1409
L159.269 82.7619
L159.389 82.8625
L159.63 87.6669
L159.75 83.6065
L159.991 86.4471
L160.111 84.7334
L160.231 85.8095
L160.351 89.3502
L160.472 87.265
L160.712 93.5938
L160.832 86.6791
L160.953 89.0152
L161.073 88.7837
L161.193 84.2956
L161.313 84.7288
L161.434 84.2656
L161.554 82.5213
L161.794 84.9769
L161.915 84.8679
L162.035 85.5782
L162.155 87.6167
L162.396 84.0112
L162.516 87.9756
L162.756 85.1011
L162.877 85.3942
L162.997 82.7164
L163.117 83.1844
L163.238 86.2819
L163.478 83.0559
L163.598 85.4595
L163.719 84.8682
L163.839 82.9443
L163.959 83.3549
L164.079 83.2046
L164.32 86.0137
L164.44 84.8609
L164.56 82.4469
L164.801 86.3918
L164.921 86.8742
L165.282 84.2925
L165.402 83.8526
L165.522 83.9249
L165.763 85.2189
L165.883 82.5724
L166.124 85.4873
L166.244 85.291
L166.484 83.5968
L166.605 83.8312
L166.725 83.6697
L166.845 85.3589
L166.966 83.7784
L167.086 84.0685
L167.206 83.8674
L167.447 85.5701
L167.567 83.8475
L167.687 85.2054
L167.807 82.6938
L168.048 86.6043
L168.288 80.9097
L168.649 87.1582
L168.89 84.04
L169.13 81.9367
L169.25 82.35
L169.491 85.9896
L169.611 86.2745
L169.731 87.5026
L169.852 85.8782
L169.972 86.059
L170.092 86.5286
L170.213 85.2877
L170.333 86.4087
L170.453 85.8893
L170.573 84.3114
L170.694 86.469
L170.814 85.8793
L170.934 86.2083
L171.175 83.9745
L171.295 83.4942
L171.415 81.6847
L171.656 85.4841
L171.776 86.1015
L171.896 85.6865
L172.016 84.4402
L172.137 89.2908
L172.377 82.0016
L172.497 82.0283
L172.738 86.6799
L172.978 83.9483
L173.219 80.3737
L173.459 83.8794
L173.58 83.2272
L173.82 87.1922
L173.941 87.4651
L174.061 86.9006
L174.181 83.6817
L174.422 85.6496
L174.782 82.4041
L174.903 82.4695
L175.023 86.1266
L175.143 85.8504
L175.384 82.4746
L175.504 82.1501
L175.744 84.8922
L175.865 84.6525
L176.105 82.9687
L176.225 83.3445
L176.466 82.8698
L176.586 84.3301
L176.706 84.379
L176.827 84.0981
L177.067 80.5555
L177.188 82.1524
L177.428 87.2387
L177.548 82.0748
L177.789 83.3252
L177.909 82.3145
L178.15 83.808
L178.27 82.9493
L178.39 83.1477
L178.51 86.5644
L178.631 86.0375
L178.751 83.6479
L178.871 85.0508
L179.112 81.4913
L179.232 85.217
L179.352 85.3194
L179.472 82.3039
L179.713 86.2103
L179.833 82.9298
L180.074 83.6036
L180.194 82.6533
L180.434 85.5828
L180.675 78.9225
L180.795 80.1856
L180.916 84.2038
L181.036 83.5406
L181.156 85.2637
L181.276 85.1624
L181.397 83.5672
L181.517 83.6514
L181.637 83.2961
L181.878 86.1933
L181.998 84.9208
L182.118 86.7842
L182.238 85.111
L182.359 81.5456
L182.599 85.3468
L182.719 84.9525
L182.96 83.2633
L183.08 83.3167
L183.2 82.5453
L183.321 82.9769
L183.441 84.2585
L183.441 84.2585" style="fill:none;stroke:#000000;"/>
   </g>
   <g id="matplotlib.axis_1"/>
   <g id="matplotlib.axis_2"/>
   <g id="patch_3">
    <path d="
M90 72
L186.207 72" style="fill:none;stroke:#000000;"/>
   </g>
   <g id="patch_4">
    <path d="
M186.207 168.207
L186.207 72" style="fill:none;stroke:#000000;"/>
   </g>
   <g id="patch_5">
    <path d="
M90 168.207
L186.207 168.207" style="fill:none;stroke:#000000;"/>
   </g>
   <g id="patch_6">
    <path d="
M90 168.207
L90 72" style="fill:none;stroke:#000000;"/>
   </g>
   <g id="text_1">
    <!-- True: 4 Pred: 3 -->
    <defs>
     <path d="
M11.7188 12.4062
L22.0156 12.4062
L22.0156 0
L11.7188 0
z

M11.7188 51.7031
L22.0156 51.7031
L22.0156 39.3125
L11.7188 39.3125
z
" id="DejaVuSans-3a"/>
     <path d="
M19.6719 64.7969
L19.6719 37.4062
L32.0781 37.4062
Q38.9688 37.4062 42.7188 40.9688
Q46.4844 44.5312 46.4844 51.125
Q46.4844 57.6719 42.7188 61.2344
Q38.9688 64.7969 32.0781 64.7969
z

M9.8125 72.9062
L32.0781 72.9062
Q44.3438 72.9062 50.6094 67.3594
Q56.8906 61.8125 56.8906 51.125
Q56.8906 40.3281 50.6094 34.8125
Q44.3438 29.2969 32.0781 29.2969
L19.6719 29.2969
L19.6719 0
L9.8125 0
z
" id="DejaVuSans-50"/>
     <path d="
M-0.296875 72.9062
L61.375 72.9062
L61.375 64.5938
L35.5 64.5938
L35.5 0
L25.5938 0
L25.5938 64.5938
L-0.296875 64.5938
z
" id="DejaVuSans-54"/>
     <path d="
M40.5781 39.3125
Q47.6562 37.7969 51.625 33
Q55.6094 28.2188 55.6094 21.1875
Q55.6094 10.4062 48.1875 4.48438
Q40.7656 -1.42188 27.0938 -1.42188
Q22.5156 -1.42188 17.6562 -0.515625
Q12.7969 0.390625 7.625 2.20312
L7.625 11.7188
Q11.7188 9.32812 16.5938 8.10938
Q21.4844 6.89062 26.8125 6.89062
Q36.0781 6.89062 40.9375 10.5469
Q45.7969 14.2031 45.7969 21.1875
Q45.7969 27.6406 41.2812 31.2656
Q36.7656 34.9062 28.7188 34.9062
L20.2188 34.9062
L20.2188 43.0156
L29.1094 43.0156
Q36.375 43.0156 40.2344 45.9219
Q44.0938 48.8281 44.0938 54.2969
Q44.0938 59.9062 40.1094 62.9062
Q36.1406 65.9219 28.7188 65.9219
Q24.6562 65.9219 20.0156 65.0312
Q15.375 64.1562 9.8125 62.3125
L9.8125 71.0938
Q15.4375 72.6562 20.3438 73.4375
Q25.25 74.2188 29.5938 74.2188
Q40.8281 74.2188 47.3594 69.1094
Q53.9062 64.0156 53.9062 55.3281
Q53.9062 49.2656 50.4375 45.0938
Q46.9688 40.9219 40.5781 39.3125" id="DejaVuSans-33"/>
     <path id="DejaVuSans-20"/>
     <path d="
M37.7969 64.3125
L12.8906 25.3906
L37.7969 25.3906
z

M35.2031 72.9062
L47.6094 72.9062
L47.6094 25.3906
L58.0156 25.3906
L58.0156 17.1875
L47.6094 17.1875
L47.6094 0
L37.7969 0
L37.7969 17.1875
L4.89062 17.1875
L4.89062 26.7031
z
" id="DejaVuSans-34"/>
     <path d="
M8.5 21.5781
L8.5 54.6875
L17.4844 54.6875
L17.4844 21.9219
Q17.4844 14.1562 20.5 10.2656
Q23.5312 6.39062 29.5938 6.39062
Q36.8594 6.39062 41.0781 11.0312
Q45.3125 15.6719 45.3125 23.6875
L45.3125 54.6875
L54.2969 54.6875
L54.2969 0
L45.3125 0
L45.3125 8.40625
Q42.0469 3.42188 37.7188 1
Q33.4062 -1.42188 27.6875 -1.42188
Q18.2656 -1.42188 13.375 4.4375
Q8.5 10.2969 8.5 21.5781
M31.1094 56
z
" id="DejaVuSans-75"/>
     <path d="
M45.4062 46.3906
L45.4062 75.9844
L54.3906 75.9844
L54.3906 0
L45.4062 0
L45.4062 8.20312
Q42.5781 3.32812 38.25 0.953125
Q33.9375 -1.42188 27.875 -1.42188
Q17.9688 -1.42188 11.7344 6.48438
Q5.51562 14.4062 5.51562 27.2969
Q5.51562 40.1875 11.7344 48.0938
Q17.9688 56 27.875 56
Q33.9375 56 38.25 53.625
Q42.5781 51.2656 45.4062 46.3906
M14.7969 27.2969
Q14.7969 17.3906 18.875 11.75
Q22.9531 6.10938 30.0781 6.10938
Q37.2031 6.10938 41.2969 11.75
Q45.4062 17.3906 45.4062 27.2969
Q45.4062 37.2031 41.2969 42.8438
Q37.2031 48.4844 30.0781 48.4844
Q22.9531 48.4844 18.875 42.8438
Q14.7969 37.2031 14.7969 27.2969" id="DejaVuSans-64"/>
     <path d="
M56.2031 29.5938
L56.2031 25.2031
L14.8906 25.2031
Q15.4844 15.9219 20.4844 11.0625
Q25.4844 6.20312 34.4219 6.20312
Q39.5938 6.20312 44.4531 7.46875
Q49.3125 8.73438 54.1094 11.2812
L54.1094 2.78125
Q49.2656 0.734375 44.1875 -0.34375
Q39.1094 -1.42188 33.8906 -1.42188
Q20.7969 -1.42188 13.1562 6.1875
Q5.51562 13.8125 5.51562 26.8125
Q5.51562 40.2344 12.7656 48.1094
Q20.0156 56 32.3281 56
Q43.3594 56 49.7812 48.8906
Q56.2031 41.7969 56.2031 29.5938
M47.2188 32.2344
Q47.125 39.5938 43.0938 43.9844
Q39.0625 48.3906 32.4219 48.3906
Q24.9062 48.3906 20.3906 44.1406
Q15.875 39.8906 15.1875 32.1719
z
" id="DejaVuSans-65"/>
     <path d="
M41.1094 46.2969
Q39.5938 47.1719 37.8125 47.5781
Q36.0312 48 33.8906 48
Q26.2656 48 22.1875 43.0469
Q18.1094 38.0938 18.1094 28.8125
L18.1094 0
L9.07812 0
L9.07812 54.6875
L18.1094 54.6875
L18.1094 46.1875
Q20.9531 51.1719 25.4844 53.5781
Q30.0312 56 36.5312 56
Q37.4531 56 38.5781 55.875
Q39.7031 55.7656 41.0625 55.5156
z
" id="DejaVuSans-72"/>
    </defs>
    <g transform="translate(95.0825107759 67.0)scale(0.12 -0.12)">
     <use xlink:href="#DejaVuSans-54"/>
     <use x="46.333984375" xlink:href="#DejaVuSans-72"/>
     <use x="87.447265625" xlink:href="#DejaVuSans-75"/>
     <use x="150.826171875" xlink:href="#DejaVuSans-65"/>
     <use x="212.349609375" xlink:href="#DejaVuSans-3a"/>
     <use x="246.041015625" xlink:href="#DejaVuSans-20"/>
     <use x="277.828125" xlink:href="#DejaVuSans-34"/>
     <use x="341.451171875" xlink:href="#DejaVuSans-20"/>
     <use x="373.23828125" xlink:href="#DejaVuSans-50"/>
     <use x="431.791015625" xlink:href="#DejaVuSans-72"/>
     <use x="470.654296875" xlink:href="#DejaVuSans-65"/>
     <use x="532.177734375" xlink:href="#DejaVuSans-64"/>
     <use x="595.654296875" xlink:href="#DejaVuSans-3a"/>
     <use x="629.345703125" xlink:href="#DejaVuSans-20"/>
     <use x="661.1328125" xlink:href="#DejaVuSans-33"/>
    </g>
   </g>
  </g>
  <g id="axes_2">
   <g id="patch_7">
    <path d="
M205.448 168.207
L301.655 168.207
L301.655 72
L205.448 72
z
" style="fill:#ffffff;"/>
   </g>
   <g id="line2d_2">
    <path clip-path="url(#p707f87add5)" d="
M205.448 87.7989
L205.569 92.5936
L205.689 97.0871
L205.929 92.4363
L206.17 98.918
L206.41 88.0593
L206.771 89.9816
L207.012 98.8432
L207.132 97.8099
L207.372 89.9207
L207.493 90.0572
L207.733 99.7099
L208.214 88.1242
L208.575 107.3
L208.695 105.771
L209.056 88.1295
L209.297 89.7733
L209.537 86.3309
L209.657 87.0285
L209.898 106.188
L210.018 106.032
L210.138 104.322
L210.259 105.365
L210.619 90.4088
L210.74 90.6841
L210.86 90.2784
L211.221 128.495
L211.341 123.255
L211.461 127.595
L211.822 94.1447
L212.063 101.972
L212.183 101.186
L212.544 86.717
L212.664 86.118
L212.784 86.9186
L213.506 117.568
L213.746 92.4775
L213.866 95.6115
L214.107 106.203
L214.227 105.853
L214.588 86.7995
L214.708 89.6984
L215.069 121.932
L215.189 124.29
L215.309 119.381
L215.55 97.721
L215.791 91.6352
L215.911 92.9006
L216.031 97.4554
L216.151 94.8117
L216.272 89.5236
L216.392 90.2434
L216.632 104.465
L216.873 92.7055
L216.993 92.8334
L217.113 94.2641
L217.234 93.1442
L217.474 88.3165
L217.715 98.5765
L218.075 86.6707
L218.196 88.0593
L218.316 98.9288
L218.436 120.094
L218.556 119.761
L218.797 90.0814
L219.038 86.3535
L219.158 87.1231
L219.278 93.106
L219.519 120.214
L220 87.9439
L220.24 93.1366
L220.481 88.3388
L220.601 90.2999
L220.841 120.818
L220.962 114.042
L221.202 87.3727
L221.322 85.9398
L221.443 88.3879
L221.683 100.946
L222.164 85.9296
L222.284 85.855
L222.766 87.2814
L222.886 87.3065
L223.126 86.1286
L223.607 89.3212
L223.848 86.7089
L224.088 89.8225
L224.209 88.7282
L224.329 89.0663
L224.69 94.6128
L224.81 95.1886
L225.171 85.1375
L225.652 88.9422
L225.892 85.8538
L226.133 84.7448
L226.494 88.4343
L226.614 88.9674
L226.854 103.072
L227.215 86.3077
L227.335 85.9049
L227.456 86.0851
L227.576 85.4994
L227.696 85.9065
L227.816 85.7657
L228.057 84.7264
L228.177 86.2896
L228.538 103.911
L228.899 86.0458
L229.019 86.7862
L229.139 89.5784
L229.259 89.5833
L229.38 91.8742
L229.741 123.232
L229.981 93.4301
L230.101 96.3307
L230.342 107.304
L230.582 149.918
L231.063 94.325
L231.304 99.5791
L231.544 91.0217
L231.665 96.0731
L231.905 115.29
L232.386 86.7351
L232.506 86.7447
L232.747 85.6101
L232.988 89.0045
L233.228 92.3044
L233.469 88.1568
L233.589 89.112
L233.709 94.8829
L233.95 116.275
L234.431 86.2461
L234.551 86.0335
L234.671 86.1129
L234.912 88.4765
L235.272 85.0322
L235.393 85.4783
L235.753 88.726
L235.994 86.2164
L236.114 85.1526
L236.355 86.3053
L236.475 86.0615
L236.836 86.3904
L236.956 87.5495
L237.197 92.7128
L237.437 86.3781
L237.557 86.4566
L237.678 88.337
L237.918 112.677
L238.038 110.5
L238.279 87.8729
L238.399 86.4257
L238.519 88.5068
L238.76 102.522
L238.88 99.668
L239.121 91.8474
L239.241 90.6636
L239.481 86.7587
L239.602 86.6556
L239.722 87.2928
L239.842 89.251
L239.963 94.5175
L240.083 94.6892
L240.444 85.8256
L240.684 85.1599
L240.925 86.4189
L241.045 85.8782
L241.165 85.9324
L241.285 87.2627
L241.526 85.5291
L241.766 88.1973
L241.887 87.5263
L242.127 85.5201
L242.368 87.9449
L242.608 99.849
L243.089 90.0386
L243.33 122.118
L243.45 119.356
L243.691 89.8684
L243.811 88.9896
L243.931 89.269
L244.051 90.5411
L244.292 95.8368
L244.532 88.4546
L244.653 87.4448
L244.893 90.2254
L245.134 104.729
L245.374 100.782
L245.615 118.259
L245.975 92.8329
L246.096 90.0908
L246.456 91.2173
L246.577 91.2591
L246.697 91.6541
L246.817 91.2755
L246.938 91.439
L247.178 98.3517
L247.419 125.029
L247.539 122.46
L247.779 96.7517
L248.02 105.082
L248.381 95.2251
L248.741 92.4832
L248.982 90.0525
L249.102 90.1461
L249.222 89.0652
L249.343 90.1192
L249.583 106.693
L249.824 92.3013
L249.944 92.3812
L250.064 93.8199
L250.545 78.9147
L250.786 81.8026
L250.906 84.4398
L251.387 115.422
L251.988 155.619
L252.109 152.514
L252.71 114.182
L252.83 116.38
L253.311 77.5839
L253.552 75.7725
L253.792 77.3917
L254.033 83.065
L254.153 82.982
L254.273 83.2081
L254.514 87.2081
L254.754 88.9182
L255.115 99.1707
L255.356 93.3499
L255.476 91.9983
L255.596 92.1847
L255.957 97.9572
L256.197 94.9931
L256.318 96.2012
L256.558 116.492
L256.678 111.878
L256.919 94.0253
L257.039 93.2069
L257.28 94.9009
L257.4 94.2002
L257.52 92.0134
L257.641 95.9887
L257.881 125.688
L258.242 92.1378
L258.362 91.1421
L258.723 93.4913
L259.084 109.434
L259.204 106.293
L259.565 91.558
L259.685 89.9225
L259.805 90.3953
L259.925 90.1196
L260.046 89.4655
L260.166 89.4631
L260.406 89.143
L260.647 99.7399
L260.767 97.0658
L260.887 91.361
L261.008 91.0397
L261.369 104.484
L261.729 94.413
L261.85 95.9385
L261.97 94.8012
L262.21 87.4588
L262.331 86.8536
L262.451 86.9405
L262.812 89.7738
L262.932 91.1106
L263.052 90.3813
L263.172 93.0199
L263.413 104.387
L263.774 85.9172
L264.014 87.3845
L264.134 87.8845
L264.255 89.1237
L264.616 86.9155
L264.856 85.0011
L264.976 85.1478
L265.097 85.5357
L265.337 84.9402
L265.578 86.2427
L265.698 85.1658
L265.938 85.1652
L266.299 86.8182
L266.419 88.4206
L266.54 87.7568
L266.78 85.9351
L267.021 90.9104
L267.141 89.6329
L267.381 85.0362
L267.502 83.9693
L267.863 86.7085
L267.983 87.3437
L268.103 86.6537
L268.223 87.0558
L268.704 85.5894
L268.825 86.0162
L269.065 87.1136
L269.306 94.6603
L269.426 94.1542
L269.666 86.3646
L270.268 85.2375
L270.388 86.6293
L270.628 92.0851
L270.989 86.7068
L271.23 85.9861
L271.35 85.8254
L271.47 86.0268
L271.591 84.7545
L272.072 86.7712
L272.192 87.7953
L272.312 87.7223
L272.673 84.6853
L272.913 86.6534
L273.154 85.5183
L273.274 85.2894
L273.394 86.3932
L273.515 85.2762
L273.635 86.0872
L273.875 85.3636
L274.236 91.6223
L274.356 90.7451
L274.837 85.4968
L274.958 86.2278
L275.078 86.1403
L275.198 87.5286
L275.319 87.5822
L275.559 90.5593
L275.8 86.0476
L275.92 85.9129
L276.04 86.0833
L276.16 86.0557
L276.281 86.984
L276.401 86.5576
L276.521 85.4287
L276.882 86.7891
L277.122 87.8334
L277.363 86.4283
L277.483 86.3732
L277.603 87.0724
L277.964 86.5862
L278.084 86.9408
L278.325 86.1498
L278.445 86.3143
L278.566 86.9305
L278.686 86.4163
L278.806 86.5565
L278.926 87.1462
L279.047 86.8941
L279.287 85.7923
L279.528 85.7319
L279.768 87.8149
L280.009 86.3739
L280.129 86.5613
L280.249 87.1157
L280.369 87.1151
L280.49 86.3562
L280.61 86.3752
L280.73 85.9749
L280.85 86.5673
L280.971 86.3789
L281.091 86.6092
L281.211 86.1951
L281.331 86.2873
L281.572 85.7991
L281.812 86.3631
L282.053 89.5235
L282.414 87.1987
L282.654 86.176
L282.895 87.5445
L283.015 87.3548
L283.256 88.6152
L283.376 88.4776
L283.616 85.302
L283.857 86.5173
L284.097 85.6147
L284.218 84.6812
L284.338 86.0417
L284.458 85.3133
L284.578 85.5253
L284.819 87.4061
L284.939 87.1348
L285.059 86.44
L285.18 86.9659
L285.3 86.4886
L285.42 85.1347
L285.661 85.5191
L285.901 86.1359
L286.142 85.3615
L286.262 85.4219
L286.382 84.179
L286.743 85.4358
L286.863 85.3622
L286.984 85.0267
L287.104 86.3522
L287.224 85.6549
L287.344 85.7939
L287.465 86.5129
L287.705 85.5876
L287.825 84.9922
L287.946 86.4602
L288.066 85.909
L288.186 86.4608
L288.547 96.486
L288.667 96.8212
L289.148 85.7533
L289.269 85.7874
L289.509 87.4859
L289.75 86.7058
L289.87 86.9969
L289.99 85.543
L290.231 86.6283
L290.351 85.096
L290.471 85.2054
L290.832 84.1816
L290.952 85.3662
L291.072 84.9262
L291.193 84.9137
L291.433 85.5976
L291.553 85.4632
L291.674 85.8365
L291.914 84.9569
L292.155 86.1099
L292.275 85.3301
L292.395 85.6151
L292.516 87.2435
L292.636 85.3499
L292.756 85.418
L292.997 84.2089
L293.117 84.3878
L293.478 85.7651
L293.598 85.4345
L293.838 85.9336
L293.959 85.7351
L294.079 85.7647
L294.319 85.5184
L294.44 85.4399
L294.56 84.5442
L294.68 84.6057
L294.921 86.2556
L295.161 85.0706
L295.281 85.2846
L295.402 85.093
L295.522 85.4036
L295.762 84.7087
L296.003 86.0001
L296.364 84.5437
L296.604 85.0981
L296.845 84.1613
L297.085 85.5175
L297.326 84.85
L297.566 86.4214
L297.687 85.9419
L297.807 86.2126
L297.927 85.9901
L298.047 85.2978
L298.168 85.4043
L298.408 84.647
L298.649 86.4244
L298.889 85.216
L298.889 85.216" style="fill:none;stroke:#000000;"/>
   </g>
   <g id="matplotlib.axis_3"/>
   <g id="matplotlib.axis_4"/>
   <g id="patch_8">
    <path d="
M205.448 72
L301.655 72" style="fill:none;stroke:#000000;"/>
   </g>
   <g id="patch_9">
    <path d="
M301.655 168.207
L301.655 72" style="fill:none;stroke:#000000;"/>
   </g>
   <g id="patch_10">
    <path d="
M205.448 168.207
L301.655 168.207" style="fill:none;stroke:#000000;"/>
   </g>
   <g id="patch_11">
    <path d="
M205.448 168.207
L205.448 72" style="fill:none;stroke:#000000;"/>
   </g>
   <g id="text_2">
    <!-- True: 3 Pred: 4 -->
    <g transform="translate(210.386411638 67.0)scale(0.12 -0.12)">
     <use xlink:href="#DejaVuSans-54"/>
     <use x="46.333984375" xlink:href="#DejaVuSans-72"/>
     <use x="87.447265625" xlink:href="#DejaVuSans-75"/>
     <use x="150.826171875" xlink:href="#DejaVuSans-65"/>
     <use x="212.349609375" xlink:href="#DejaVuSans-3a"/>
     <use x="246.041015625" xlink:href="#DejaVuSans-20"/>
     <use x="277.828125" xlink:href="#DejaVuSans-33"/>
     <use x="341.451171875" xlink:href="#DejaVuSans-20"/>
     <use x="373.23828125" xlink:href="#DejaVuSans-50"/>
     <use x="431.791015625" xlink:href="#DejaVuSans-72"/>
     <use x="470.654296875" xlink:href="#DejaVuSans-65"/>
     <use x="532.177734375" xlink:href="#DejaVuSans-64"/>
     <use x="595.654296875" xlink:href="#DejaVuSans-3a"/>
     <use x="629.345703125" xlink:href="#DejaVuSans-20"/>
     <use x="661.1328125" xlink:href="#DejaVuSans-34"/>
    </g>
   </g>
  </g>
  <g id="axes_3">
   <g id="patch_12">
    <path d="
M320.897 168.207
L417.103 168.207
L417.103 72
L320.897 72
z
" style="fill:#ffffff;"/>
   </g>
   <g id="line2d_3">
    <path clip-path="url(#pe5b1fd4b54)" d="
M320.897 156.027
L321.017 156.548
L321.137 156.543
L321.257 156.334
L321.378 156.791
L321.618 156.081
L321.738 156.251
L321.859 156.678
L322.099 155.915
L322.34 157.142
L322.58 156.341
L322.7 156.879
L322.821 156.293
L322.941 156.356
L323.061 157.26
L323.422 156.113
L323.542 156.22
L323.663 156.894
L323.783 156.814
L323.903 156.376
L324.144 156.47
L324.264 157.043
L324.384 156.982
L324.625 156.318
L324.745 157.218
L324.985 156.083
L325.106 156.283
L325.346 155.73
L325.827 157.374
L326.068 156.324
L326.188 156.852
L326.308 156.656
L326.428 156.107
L326.549 156.166
L326.669 156.644
L326.909 158.972
L327.15 157.941
L327.391 155.692
L327.511 156.009
L327.631 157.035
L327.872 156.6
L327.992 156.948
L328.232 156.39
L328.473 155.732
L328.713 157.623
L328.954 156.84
L329.194 157.522
L329.435 156.243
L329.555 155.985
L329.675 156.361
L329.916 155.91
L330.036 155.97
L330.277 156.205
L330.397 156.02
L330.517 156.273
L330.638 157.345
L330.758 157.393
L330.878 156.926
L330.998 157.517
L331.239 156.838
L331.359 155.976
L331.479 156.023
L331.72 156.663
L331.96 155.728
L332.081 155.942
L332.201 157.012
L332.321 156.883
L332.441 156.505
L332.562 156.565
L332.682 156.487
L332.922 155.944
L333.163 156.839
L333.403 155.892
L333.524 155.881
L333.644 155.52
L333.764 155.535
L333.884 155.11
L334.125 157.204
L334.245 157.053
L334.366 156.846
L334.606 155.186
L334.847 155.608
L334.967 155.598
L335.087 155.871
L335.328 157.151
L335.568 155.515
L335.688 155.639
L335.809 155.087
L335.929 155.778
L336.049 155.811
L336.169 154.954
L336.41 156.843
L336.53 157.144
L336.65 157.128
L336.891 156.613
L337.011 155.547
L337.252 156.123
L337.372 156.399
L337.492 156.394
L337.613 155.668
L337.733 155.83
L337.853 156.252
L337.973 155.986
L338.094 156.049
L338.214 156.357
L338.334 155.81
L338.454 156.268
L338.575 156.137
L338.695 155.638
L338.815 155.89
L338.935 156.71
L339.056 156.629
L339.176 156.117
L339.296 156.249
L339.537 156.682
L339.777 155.998
L339.897 155.854
L340.018 156.26
L340.138 156.236
L340.258 156.085
L340.499 156.604
L340.859 156.015
L340.98 155.764
L341.1 156.044
L341.461 155.628
L341.581 155.94
L341.701 155.494
L341.822 155.975
L341.942 157.116
L342.303 155.804
L342.543 156.734
L342.663 156.476
L342.784 156.498
L343.024 155.529
L343.265 156.307
L343.385 155.939
L343.625 156.564
L343.746 156.487
L343.866 156.761
L343.986 156.745
L344.227 156.319
L344.347 156.593
L344.467 155.85
L344.588 156.004
L344.708 155.943
L344.828 154.829
L344.948 154.767
L345.069 155.069
L345.309 156.896
L345.429 156.45
L345.55 155.446
L345.79 156.106
L345.91 155.806
L346.031 156.104
L346.271 158.076
L346.391 157.611
L346.632 156.412
L346.872 155.78
L347.113 157.038
L347.353 155.762
L347.594 156.771
L347.834 155.774
L347.955 156.406
L348.195 155.582
L348.316 155.74
L348.436 155.366
L348.556 155.526
L348.917 156.9
L349.278 155.917
L349.759 156.885
L349.879 156.073
L350.119 156.55
L350.24 155.972
L350.36 156.082
L350.48 156.881
L350.6 156.648
L350.841 155.69
L351.081 156.768
L351.202 156.393
L351.322 157.111
L351.442 157.156
L351.563 156.159
L351.683 156.784
L351.803 156.517
L351.923 155.801
L352.164 155.932
L352.284 155.695
L352.525 156.193
L352.765 155.806
L352.885 155.735
L353.126 156.191
L353.366 155.884
L353.487 155.917
L353.727 156.991
L353.968 156.008
L354.088 156.577
L354.328 155.905
L354.449 156.64
L354.689 156.314
L354.809 156.416
L355.17 155.756
L355.411 155.968
L355.531 155.932
L355.651 155.231
L356.012 156.47
L356.132 156.496
L356.373 155.458
L356.493 156.089
L356.613 155.874
L356.734 156.188
L356.854 155.812
L356.974 156.048
L357.215 155.35
L357.455 156.075
L357.936 155.254
L358.056 155.642
L358.177 156.533
L358.417 155.962
L358.538 156.188
L358.658 155.981
L358.778 154.802
L358.898 154.886
L359.139 156.779
L359.259 156.449
L359.5 155.299
L359.62 155.257
L359.86 155.858
L359.981 155.561
L360.101 154.897
L360.221 155.654
L360.582 154.82
L360.822 155.4
L360.943 155.443
L361.063 155.317
L361.183 156.817
L361.303 156.441
L361.424 154.698
L361.664 155.443
L361.905 154.681
L362.025 154.899
L362.266 154.577
L362.386 154.352
L362.506 154.75
L362.747 153.419
L362.867 153.754
L363.107 155.048
L363.228 154.764
L363.468 152.992
L363.588 153.71
L363.709 153.04
L363.829 153.159
L364.31 150.977
L364.55 151.139
L365.031 147.607
L365.152 148.139
L365.272 147.659
L365.753 140.008
L366.956 103.077
L367.076 101.548
L367.316 92.4338
L367.557 82.4694
L367.918 85.8114
L368.639 111.967
L368.759 112.066
L368.88 113.769
L369.601 136.863
L370.082 145.039
L370.323 146.954
L370.924 151.393
L371.044 151.128
L371.165 151.368
L371.525 152.91
L371.646 152.68
L371.766 152.168
L372.127 154.672
L372.247 154.814
L372.608 154.403
L372.728 154.436
L372.848 154.164
L373.089 154.355
L373.329 154.738
L373.45 154.91
L373.57 156.324
L373.69 156.308
L373.931 155.008
L374.051 155.135
L374.171 155.076
L374.291 154.583
L374.652 155.034
L374.893 155.982
L375.013 155.551
L375.253 155.914
L375.374 155.814
L375.614 156.333
L375.734 156.141
L375.855 155.536
L376.095 155.619
L376.336 156.694
L376.456 156.254
L376.576 155.366
L376.697 155.472
L376.817 155.921
L376.937 155.824
L377.178 155.436
L377.298 155.706
L377.538 156.552
L377.659 156.392
L377.779 155.837
L377.899 155.9
L378.019 155.833
L378.14 155.414
L378.38 155.781
L378.621 155.956
L378.861 155.221
L379.102 156.425
L379.583 155.105
L379.703 155.248
L379.944 156.295
L380.304 155.786
L380.425 156.209
L380.785 155.675
L381.026 156.024
L381.146 156.097
L381.266 155.648
L381.507 155.695
L381.627 155.988
L381.868 155.151
L382.108 156.012
L382.228 155.738
L382.589 156.959
L382.83 156.246
L382.95 156.886
L383.191 155.98
L383.311 155.965
L383.431 156.301
L383.551 155.658
L383.672 155.765
L383.912 156.408
L384.032 156.357
L384.273 156.787
L384.513 156.038
L384.634 156.665
L384.754 156.601
L384.874 155.797
L385.235 156.585
L385.716 155.862
L385.836 156.597
L385.956 156.243
L386.077 156.456
L386.317 156.168
L386.558 156.59
L386.678 156.098
L386.798 156.092
L386.919 156.744
L387.159 155.912
L387.279 156.468
L387.52 156.186
L387.64 156.202
L387.881 155.63
L388.121 156.109
L388.241 155.804
L388.362 155.958
L388.482 156.535
L388.602 156.4
L388.843 155.953
L388.963 156.198
L389.083 155.607
L389.203 156.625
L389.324 156.605
L389.444 156.124
L389.684 156.627
L389.805 156.766
L390.045 156.338
L390.166 156.401
L390.406 155.947
L390.647 156.675
L390.767 156.754
L391.007 156.077
L391.248 156.674
L391.368 156.787
L391.609 157.321
L391.849 156.808
L391.969 156.91
L392.21 156.292
L392.33 156.498
L392.45 155.658
L392.691 156.661
L392.931 155.978
L393.052 156.97
L393.172 156.68
L393.413 155.55
L393.533 155.736
L393.773 156.521
L394.014 156.711
L394.254 156.538
L394.375 157.038
L394.495 156.505
L394.615 157.123
L394.856 156.266
L394.976 156.407
L395.096 155.963
L395.337 156.098
L395.457 156.747
L395.577 156.299
L395.818 156.343
L395.938 155.567
L396.058 156.435
L396.178 156.077
L396.299 156.104
L396.419 156.884
L396.659 156.592
L396.78 156.525
L397.02 156.109
L397.381 156.6
L397.501 155.825
L397.622 155.942
L397.862 156.901
L398.223 155.946
L398.343 156.186
L398.463 156.688
L398.584 156.083
L398.704 156.431
L398.824 156.415
L399.065 156.642
L399.185 156.033
L399.305 156.224
L399.425 156.771
L399.546 156.604
L399.666 155.894
L399.786 155.905
L400.027 156.744
L400.267 156.334
L400.388 156.188
L400.628 156.462
L400.869 156.47
L400.989 155.391
L401.109 155.52
L401.47 156.668
L401.59 156.202
L401.951 156.682
L402.071 156.61
L402.191 155.999
L402.552 156.202
L402.672 156.094
L402.793 156.427
L402.913 156.256
L403.033 156.49
L403.153 156.203
L403.274 156.746
L403.394 155.811
L403.514 156.084
L403.634 156.847
L403.755 156.077
L403.995 157.034
L404.236 156.032
L404.476 156.505
L404.717 156.457
L404.837 156.294
L404.957 155.788
L405.318 156.659
L405.679 156.328
L405.799 156.326
L405.919 156.464
L406.04 156.142
L406.28 157.002
L406.521 156.336
L406.641 156.934
L406.881 155.836
L407.122 156.269
L407.242 156.093
L407.363 156.165
L407.603 156.674
L407.964 156.199
L408.204 156.814
L408.445 156.214
L408.565 156.18
L408.685 156.35
L408.806 156.258
L408.926 155.714
L409.046 155.884
L409.166 156.844
L409.407 155.848
L409.527 155.977
L409.647 156.434
L409.768 156.417
L409.888 156.257
L410.008 156.446
L410.128 156.996
L410.249 156.194
L410.369 156.261
L410.489 156.462
L410.609 156.126
L410.73 155.411
L410.85 155.839
L411.091 155.911
L411.211 156.31
L411.451 155.641
L411.812 156.667
L411.932 156.59
L412.053 156.159
L412.173 156.259
L412.413 155.849
L412.534 155.84
L412.654 156.021
L412.894 156.724
L413.015 156.147
L413.135 156.727
L413.255 156.344
L413.375 156.574
L413.496 157.189
L413.616 156.145
L413.736 156.353
L413.977 157.287
L414.217 156.476
L414.338 156.727
L414.338 156.727" style="fill:none;stroke:#000000;"/>
   </g>
   <g id="matplotlib.axis_5"/>
   <g id="matplotlib.axis_6"/>
   <g id="patch_13">
    <path d="
M320.897 72
L417.103 72" style="fill:none;stroke:#000000;"/>
   </g>
   <g id="patch_14">
    <path d="
M417.103 168.207
L417.103 72" style="fill:none;stroke:#000000;"/>
   </g>
   <g id="patch_15">
    <path d="
M320.897 168.207
L417.103 168.207" style="fill:none;stroke:#000000;"/>
   </g>
   <g id="patch_16">
    <path d="
M320.897 168.207
L320.897 72" style="fill:none;stroke:#000000;"/>
   </g>
   <g id="text_3">
    <!-- True: 2 Pred: 1 -->
    <defs>
     <path d="
M12.4062 8.29688
L28.5156 8.29688
L28.5156 63.9219
L10.9844 60.4062
L10.9844 69.3906
L28.4219 72.9062
L38.2812 72.9062
L38.2812 8.29688
L54.3906 8.29688
L54.3906 0
L12.4062 0
z
" id="DejaVuSans-31"/>
     <path d="
M19.1875 8.29688
L53.6094 8.29688
L53.6094 0
L7.32812 0
L7.32812 8.29688
Q12.9375 14.1094 22.625 23.8906
Q32.3281 33.6875 34.8125 36.5312
Q39.5469 41.8438 41.4219 45.5312
Q43.3125 49.2188 43.3125 52.7812
Q43.3125 58.5938 39.2344 62.25
Q35.1562 65.9219 28.6094 65.9219
Q23.9688 65.9219 18.8125 64.3125
Q13.6719 62.7031 7.8125 59.4219
L7.8125 69.3906
Q13.7656 71.7812 18.9375 73
Q24.125 74.2188 28.4219 74.2188
Q39.75 74.2188 46.4844 68.5469
Q53.2188 62.8906 53.2188 53.4219
Q53.2188 48.9219 51.5312 44.8906
Q49.8594 40.875 45.4062 35.4062
Q44.1875 33.9844 37.6406 27.2188
Q31.1094 20.4531 19.1875 8.29688" id="DejaVuSans-32"/>
    </defs>
    <g transform="translate(326.0521875 67.0)scale(0.12 -0.12)">
     <use xlink:href="#DejaVuSans-54"/>
     <use x="46.333984375" xlink:href="#DejaVuSans-72"/>
     <use x="87.447265625" xlink:href="#DejaVuSans-75"/>
     <use x="150.826171875" xlink:href="#DejaVuSans-65"/>
     <use x="212.349609375" xlink:href="#DejaVuSans-3a"/>
     <use x="246.041015625" xlink:href="#DejaVuSans-20"/>
     <use x="277.828125" xlink:href="#DejaVuSans-32"/>
     <use x="341.451171875" xlink:href="#DejaVuSans-20"/>
     <use x="373.23828125" xlink:href="#DejaVuSans-50"/>
     <use x="431.791015625" xlink:href="#DejaVuSans-72"/>
     <use x="470.654296875" xlink:href="#DejaVuSans-65"/>
     <use x="532.177734375" xlink:href="#DejaVuSans-64"/>
     <use x="595.654296875" xlink:href="#DejaVuSans-3a"/>
     <use x="629.345703125" xlink:href="#DejaVuSans-20"/>
     <use x="661.1328125" xlink:href="#DejaVuSans-31"/>
    </g>
   </g>
  </g>
  <g id="axes_4">
   <g id="patch_17">
    <path d="
M436.345 168.207
L532.552 168.207
L532.552 72
L436.345 72
z
" style="fill:#ffffff;"/>
   </g>
   <g id="line2d_4">
    <path clip-path="url(#p7fc8e9000b)" d="
M436.345 154.636
L436.465 154.71
L436.826 154.562
L436.946 154.748
L437.187 154.474
L437.307 154.312
L437.427 154.536
L437.547 154.454
L438.028 154.682
L438.149 154.401
L438.389 154.611
L438.509 154.744
L438.991 154.436
L439.111 154.505
L439.351 155.061
L439.592 154.755
L439.832 154.418
L440.434 154.533
L440.554 154.618
L440.794 155.03
L441.035 155.01
L441.516 154.538
L441.636 154.504
L441.756 154.883
L441.997 155.902
L442.117 155.717
L442.238 155.757
L442.358 155.544
L442.598 154.657
L442.839 154.962
L442.959 154.885
L443.2 154.337
L443.32 154.24
L444.041 154.901
L444.282 155.492
L444.522 154.55
L445.124 154.498
L445.244 154.385
L445.484 154.484
L445.845 155.576
L445.966 155.614
L446.086 155.482
L446.326 154.771
L446.567 154.51
L446.687 154.525
L446.807 154.708
L447.168 154.342
L447.409 154.833
L447.769 154.382
L448.01 154.371
L448.13 154.279
L448.25 154.007
L448.491 154.399
L448.972 154.112
L449.092 154.333
L449.333 155.081
L449.573 154.118
L449.934 154.022
L450.054 154.259
L450.295 155.17
L450.656 154.119
L450.776 154.182
L451.016 154.285
L451.257 154.077
L451.377 154.126
L451.738 155.284
L451.978 154.42
L452.099 154.319
L452.339 154.51
L452.459 154.702
L452.941 154.357
L453.301 154.413
L453.782 154.391
L454.023 154.411
L455.225 154.433
L455.466 154.723
L456.188 154.527
L456.909 154.429
L457.15 154.645
L457.27 154.533
L457.631 154.96
L457.991 154.419
L458.833 154.386
L459.314 154.671
L459.675 153.719
L460.156 153.564
L460.276 153.857
L460.517 154.991
L460.757 153.94
L460.878 154.023
L461.118 154.592
L461.359 155.967
L461.479 155.619
L461.719 154.225
L461.84 153.958
L462.08 154.048
L462.321 153.62
L462.561 154.092
L462.681 154.373
L463.163 153.933
L464.125 154.56
L464.485 154.756
L464.846 155.306
L465.087 154.577
L465.447 154.476
L465.568 154.594
L465.928 154.482
L466.65 154.513
L467.011 154.354
L467.131 154.496
L467.251 154.387
L467.372 154.5
L467.612 154.371
L467.973 154.652
L468.213 154.46
L468.454 154.443
L468.574 154.658
L468.815 155.275
L469.055 154.46
L469.416 154.545
L469.536 154.936
L469.656 154.883
L469.897 154.477
L470.739 154.534
L470.859 154.58
L471.22 154.355
L471.46 154.404
L471.821 154.258
L472.182 154.433
L472.422 154.265
L472.663 154.302
L472.903 154.252
L473.024 154.34
L473.144 154.275
L473.384 154.731
L473.625 154.453
L473.866 154.383
L474.226 155.531
L474.467 154.35
L474.707 154.203
L475.068 154.409
L475.188 154.372
L475.429 154.09
L476.03 154.558
L476.15 154.41
L476.391 155.044
L476.511 154.753
L476.752 153.919
L476.872 153.811
L477.113 153.816
L477.353 153.552
L477.594 153.499
L477.714 153.402
L478.075 153.646
L478.195 154.254
L478.315 154.218
L478.556 152.803
L478.796 152.878
L479.638 149.874
L479.999 147.339
L480.48 142.645
L481.081 129.531
L481.562 110.474
L481.803 101.439
L481.923 100.204
L482.043 100.309
L482.163 99.8369
L482.284 97.0621
L482.644 84.8535
L482.765 85.5719
L483.246 91.4002
L483.366 92.0317
L483.606 91.5252
L483.727 91.1621
L483.847 91.6731
L484.929 125.249
L485.41 137.313
L486.012 145.665
L486.613 150.216
L486.974 151.618
L487.214 152.447
L487.455 153.154
L487.695 153
L487.936 153.18
L488.176 153.414
L488.297 153.44
L488.417 153.723
L488.657 154.785
L488.778 154.602
L489.018 153.847
L490.461 154.178
L490.581 154.128
L490.822 154.305
L491.544 154.571
L491.904 154.268
L492.385 154.402
L492.506 154.37
L492.746 154.554
L493.227 154.041
L493.708 154.413
L493.828 154.364
L494.189 154.666
L494.55 154.271
L494.911 154.258
L495.632 154.241
L495.753 154.304
L495.993 154.106
L496.113 154.183
L496.354 154.495
L496.474 154.382
L496.715 154.446
L497.075 154.39
L497.436 154.508
L497.677 154.491
L497.797 154.614
L498.038 154.434
L498.278 154.326
L499.24 154.539
L499.36 154.441
L499.601 154.562
L499.962 154.501
L500.202 154.837
L500.443 154.536
L500.683 154.502
L500.803 154.412
L501.164 154.48
L501.284 154.502
L501.525 154.624
L501.645 154.479
L501.766 154.552
L502.126 154.451
L502.247 154.536
L502.487 154.4
L502.848 154.482
L503.69 154.474
L503.81 154.435
L504.05 154.515
L504.171 154.412
L504.291 154.605
L504.772 154.383
L505.013 154.585
L505.253 154.508
L505.494 154.497
L505.975 154.519
L506.095 154.449
L506.456 154.576
L506.696 154.545
L506.816 154.474
L507.057 154.592
L507.538 154.406
L507.778 154.46
L508.139 154.498
L508.38 154.467
L508.5 154.582
L508.981 154.45
L509.222 154.596
L510.184 154.52
L510.424 154.634
L510.665 154.543
L510.905 154.619
L511.386 154.459
L511.747 154.517
L512.95 154.564
L513.07 154.396
L513.31 154.579
L513.551 154.668
L513.912 154.492
L514.393 154.426
L514.633 154.505
L514.753 154.38
L514.994 154.479
L515.114 154.422
L515.234 154.513
L515.475 154.462
L516.197 154.58
L516.317 154.47
L516.437 154.514
L516.557 154.44
L516.918 154.568
L517.159 154.484
L517.399 154.514
L518.121 154.475
L518.241 154.493
L518.361 154.636
L518.602 154.377
L518.842 154.446
L519.083 154.459
L519.323 154.479
L519.564 154.534
L519.684 154.588
L519.925 154.343
L520.045 154.353
L520.285 154.571
L520.766 154.519
L521.127 154.574
L521.488 154.355
L521.728 154.591
L521.969 154.451
L522.811 154.513
L523.292 154.572
L523.773 154.502
L523.893 154.534
L524.134 154.371
L524.254 154.461
L524.374 154.348
L524.615 154.612
L524.975 154.508
L525.577 154.494
L525.817 154.36
L525.938 154.498
L526.178 154.476
L526.419 154.612
L526.9 154.421
L527.02 154.372
L527.26 154.493
L528.583 154.445
L528.944 154.663
L529.184 154.458
L529.305 154.563
L529.425 154.514
L529.666 154.676
L529.786 154.477
L529.786 154.477" style="fill:none;stroke:#000000;"/>
   </g>
   <g id="matplotlib.axis_7"/>
   <g id="matplotlib.axis_8"/>
   <g id="patch_18">
    <path d="
M436.345 72
L532.552 72" style="fill:none;stroke:#000000;"/>
   </g>
   <g id="patch_19">
    <path d="
M532.552 168.207
L532.552 72" style="fill:none;stroke:#000000;"/>
   </g>
   <g id="patch_20">
    <path d="
M436.345 168.207
L532.552 168.207" style="fill:none;stroke:#000000;"/>
   </g>
   <g id="patch_21">
    <path d="
M436.345 168.207
L436.345 72" style="fill:none;stroke:#000000;"/>
   </g>
   <g id="text_4">
    <!-- True: 1 Pred: 2 -->
    <g transform="translate(441.547338362 67.0)scale(0.12 -0.12)">
     <use xlink:href="#DejaVuSans-54"/>
     <use x="46.333984375" xlink:href="#DejaVuSans-72"/>
     <use x="87.447265625" xlink:href="#DejaVuSans-75"/>
     <use x="150.826171875" xlink:href="#DejaVuSans-65"/>
     <use x="212.349609375" xlink:href="#DejaVuSans-3a"/>
     <use x="246.041015625" xlink:href="#DejaVuSans-20"/>
     <use x="277.828125" xlink:href="#DejaVuSans-31"/>
     <use x="341.451171875" xlink:href="#DejaVuSans-20"/>
     <use x="373.23828125" xlink:href="#DejaVuSans-50"/>
     <use x="431.791015625" xlink:href="#DejaVuSans-72"/>
     <use x="470.654296875" xlink:href="#DejaVuSans-65"/>
     <use x="532.177734375" xlink:href="#DejaVuSans-64"/>
     <use x="595.654296875" xlink:href="#DejaVuSans-3a"/>
     <use x="629.345703125" xlink:href="#DejaVuSans-20"/>
     <use x="661.1328125" xlink:href="#DejaVuSans-32"/>
    </g>
   </g>
  </g>
  <g id="axes_5">
   <g id="patch_22">
    <path d="
M551.793 168.207
L648 168.207
L648 72
L551.793 72
z
" style="fill:#ffffff;"/>
   </g>
   <g id="line2d_5">
    <path clip-path="url(#pf3fe77fffd)" d="
M551.793 154.83
L552.154 154.72
L552.274 154.993
L552.394 154.882
L552.635 154.495
L552.875 154.479
L553.116 154.929
L553.236 154.824
L553.477 154.608
L553.597 154.563
L553.958 154.833
L554.439 154.528
L554.8 155.332
L555.16 154.544
L555.401 154.6
L555.641 154.518
L555.882 154.709
L556.122 155.244
L556.964 154.541
L557.084 154.89
L557.325 156.277
L557.686 155.969
L557.926 154.812
L558.047 154.793
L558.287 155.057
L558.768 154.268
L559.129 154.627
L559.249 155.109
L559.369 155.041
L559.61 155.739
L560.091 154.584
L560.211 154.502
L560.331 154.652
L560.813 154.392
L560.933 154.777
L561.173 155.89
L561.414 155.811
L561.775 154.749
L562.135 154.69
L562.256 154.78
L562.496 154.365
L562.857 154.956
L563.097 154.466
L563.338 154.409
L563.578 154.209
L563.699 154.152
L563.819 154.473
L563.939 154.449
L564.18 154.09
L564.3 154.077
L564.42 154.309
L564.661 155.549
L565.022 154.031
L565.142 153.905
L565.382 154.192
L565.623 155.351
L565.743 155.296
L565.984 154.077
L566.104 154.025
L566.344 154.303
L566.705 153.968
L567.066 155.481
L567.306 154.18
L567.547 154.261
L567.788 154.92
L567.908 154.846
L568.269 154.216
L568.629 154.378
L568.87 154.305
L569.11 154.435
L569.351 154.344
L569.712 154.411
L569.952 154.274
L570.313 154.536
L570.553 154.516
L571.034 154.486
L571.275 154.23
L571.395 154.379
L571.636 154.343
L571.997 154.28
L572.237 154.324
L572.598 154.624
L572.718 154.556
L573.079 154.961
L573.319 154.404
L573.56 154.294
L574.402 154.298
L574.642 154.772
L575.123 153.488
L575.244 153.547
L575.484 153.39
L575.604 153.647
L575.845 155.272
L575.965 154.836
L576.206 153.895
L576.446 154.465
L576.687 156.423
L576.807 156.387
L577.168 153.976
L577.408 154.081
L577.769 153.541
L578.13 154.52
L578.37 153.764
L578.611 153.866
L578.972 154.105
L579.453 154.568
L579.573 154.471
L579.813 154.638
L580.174 155.486
L580.415 154.406
L581.136 154.488
L581.377 154.294
L581.497 154.296
L581.858 154.501
L581.978 154.528
L582.219 154.218
L582.579 154.33
L582.7 154.328
L582.82 154.21
L583.06 154.399
L583.421 154.638
L583.662 154.312
L583.782 154.355
L583.902 154.564
L584.143 155.54
L584.503 154.319
L584.624 154.347
L584.864 154.962
L584.984 154.836
L585.225 154.391
L585.345 154.465
L585.706 154.233
L585.947 154.298
L586.187 154.595
L586.668 154.107
L586.909 154.216
L587.149 154.14
L587.39 154.209
L587.63 154.138
L587.75 154.286
L588.111 154.084
L588.472 154.025
L588.833 154.594
L589.073 154.278
L589.194 154.237
L589.314 154.54
L589.554 155.75
L589.915 154.12
L590.516 154.242
L590.757 153.886
L590.877 153.956
L590.997 153.809
L591.358 154.511
L591.478 154.267
L591.599 154.441
L591.719 155.021
L591.839 154.796
L592.08 153.768
L592.561 153.427
L592.801 153.281
L592.922 153.25
L593.042 153.097
L593.282 153.267
L593.403 153.481
L593.643 154.363
L594.004 152.622
L594.124 152.725
L594.365 151.972
L595.086 149.282
L595.808 143.616
L596.409 131.429
L596.89 113.719
L597.251 102.531
L597.371 101.987
L597.491 100.849
L597.732 91.6632
L597.972 83.9451
L598.934 93.9354
L599.055 93.9197
L599.175 92.4708
L599.295 92.6462
L600.859 137.156
L601.34 144.038
L602.061 149.9
L602.783 153.275
L603.023 152.574
L603.384 153.063
L603.504 152.965
L603.745 153.363
L603.985 154.937
L604.106 154.852
L604.346 153.746
L604.827 154.003
L605.068 154.013
L606.03 154.161
L606.15 154.296
L606.511 154.185
L606.872 154.737
L607.232 154.363
L607.473 154.337
L608.074 154.553
L608.555 154.114
L609.156 154.358
L609.397 154.606
L609.517 154.909
L610.119 154.236
L610.479 154.394
L610.96 154.212
L611.081 154.265
L611.321 154.142
L611.562 154.284
L612.163 154.436
L612.403 154.428
L613.366 154.432
L613.486 154.334
L613.726 154.381
L614.207 154.413
L614.568 154.504
L615.049 154.527
L615.29 154.691
L615.65 154.804
L615.891 154.498
L616.131 154.537
L616.372 154.535
L617.575 154.491
L617.695 154.434
L617.815 154.597
L618.056 154.486
L618.296 154.526
L618.416 154.525
L618.537 154.404
L618.777 154.519
L619.018 154.489
L619.378 154.534
L619.739 154.373
L619.98 154.502
L620.22 154.419
L620.461 154.666
L620.701 154.513
L621.423 154.546
L621.543 154.728
L622.024 154.51
L622.265 154.385
L622.505 154.609
L622.746 154.514
L623.106 154.563
L623.467 154.496
L623.708 154.517
L624.189 154.517
L624.309 154.433
L624.429 154.548
L624.79 154.463
L625.271 154.471
L625.391 154.552
L625.512 154.477
L625.752 154.546
L626.474 154.484
L626.594 154.566
L626.955 154.37
L627.316 154.52
L627.556 154.376
L627.797 154.499
L628.037 154.497
L628.278 154.498
L628.518 154.381
L628.759 154.441
L628.879 154.437
L628.999 154.548
L629.48 154.466
L629.721 154.567
L629.961 154.47
L630.322 154.522
L630.563 154.414
L630.803 154.515
L631.525 154.528
L631.765 154.421
L632.126 154.506
L632.487 154.467
L632.727 154.491
L632.968 154.425
L633.208 154.489
L633.569 154.463
L634.772 154.493
L634.892 154.64
L635.132 154.399
L635.373 154.509
L635.613 154.635
L635.854 154.7
L636.215 154.411
L636.335 154.62
L636.816 154.427
L637.056 154.548
L637.297 154.496
L637.417 154.421
L637.658 154.527
L638.019 154.498
L638.259 154.56
L638.379 154.453
L638.74 154.647
L638.981 154.523
L639.101 154.368
L639.943 154.533
L641.626 154.6
L641.867 154.437
L642.468 154.544
L643.069 154.436
L643.19 154.667
L643.791 154.562
L644.031 154.65
L644.513 154.615
L645.234 154.559
L645.234 154.559" style="fill:none;stroke:#000000;"/>
   </g>
   <g id="matplotlib.axis_9"/>
   <g id="matplotlib.axis_10"/>
   <g id="patch_23">
    <path d="
M551.793 72
L648 72" style="fill:none;stroke:#000000;"/>
   </g>
   <g id="patch_24">
    <path d="
M648 168.207
L648 72" style="fill:none;stroke:#000000;"/>
   </g>
   <g id="patch_25">
    <path d="
M551.793 168.207
L648 168.207" style="fill:none;stroke:#000000;"/>
   </g>
   <g id="patch_26">
    <path d="
M551.793 168.207
L551.793 72" style="fill:none;stroke:#000000;"/>
   </g>
   <g id="text_5">
    <!-- True: 1 Pred: 2 -->
    <g transform="translate(556.995614224 67.0)scale(0.12 -0.12)">
     <use xlink:href="#DejaVuSans-54"/>
     <use x="46.333984375" xlink:href="#DejaVuSans-72"/>
     <use x="87.447265625" xlink:href="#DejaVuSans-75"/>
     <use x="150.826171875" xlink:href="#DejaVuSans-65"/>
     <use x="212.349609375" xlink:href="#DejaVuSans-3a"/>
     <use x="246.041015625" xlink:href="#DejaVuSans-20"/>
     <use x="277.828125" xlink:href="#DejaVuSans-31"/>
     <use x="341.451171875" xlink:href="#DejaVuSans-20"/>
     <use x="373.23828125" xlink:href="#DejaVuSans-50"/>
     <use x="431.791015625" xlink:href="#DejaVuSans-72"/>
     <use x="470.654296875" xlink:href="#DejaVuSans-65"/>
     <use x="532.177734375" xlink:href="#DejaVuSans-64"/>
     <use x="595.654296875" xlink:href="#DejaVuSans-3a"/>
     <use x="629.345703125" xlink:href="#DejaVuSans-20"/>
     <use x="661.1328125" xlink:href="#DejaVuSans-32"/>
    </g>
   </g>
  </g>
  <g id="axes_6">
   <g id="patch_27">
    <path d="
M90 283.655
L186.207 283.655
L186.207 187.448
L90 187.448
z
" style="fill:#ffffff;"/>
   </g>
   <g id="line2d_6">
    <path clip-path="url(#paa7f9e13be)" d="
M90 267.694
L90.1203 267.96
L90.2405 267.94
L90.3608 267.766
L90.6013 267.939
L90.7216 267.989
L90.8418 267.875
L91.0823 267.454
L91.4431 267.907
L91.5634 268.058
L91.8039 267.901
L91.9241 267.705
L92.0444 267.747
L92.2849 267.957
L92.7659 267.692
L92.8862 267.839
L93.1267 268.478
L93.6078 267.646
L93.8483 267.698
L94.2091 267.736
L94.5698 268.275
L94.8103 268.275
L95.0509 267.84
L95.1711 267.918
L95.2914 267.808
L95.4116 267.887
L95.7724 269.29
L95.8927 269.135
L96.0129 269.222
L96.3737 268
L96.7345 268.152
L97.0953 267.501
L97.456 267.802
L97.6966 268.323
L97.8168 268.384
L97.9371 268.768
L98.0573 268.702
L98.2978 267.702
L98.4181 267.634
L98.8991 267.804
L99.1397 267.579
L99.2599 267.822
L99.5004 268.914
L99.6207 268.852
L99.7409 268.926
L100.222 267.796
L100.342 267.677
L100.583 267.983
L100.823 267.563
L101.184 268
L101.545 267.655
L101.665 267.685
L102.026 267.324
L102.266 267.673
L102.507 267.145
L102.747 267.374
L102.988 268.653
L103.108 268.408
L103.349 267.11
L103.709 267.095
L103.83 267.422
L104.07 268.499
L104.431 267.303
L104.551 267.284
L104.792 267.408
L105.032 267.367
L105.153 267.489
L105.393 268.643
L105.754 267.365
L105.874 267.462
L106.235 268.044
L106.596 267.551
L106.836 267.546
L106.956 267.556
L107.197 267.763
L107.438 267.676
L107.678 267.576
L107.919 267.805
L108.52 267.633
L108.76 267.731
L109.001 267.866
L109.362 267.939
L109.602 267.737
L109.843 267.772
L110.444 267.766
L110.684 267.575
L110.925 267.873
L111.045 267.736
L111.286 268.223
L111.406 268.221
L111.887 267.574
L112.248 267.594
L112.488 267.499
L112.609 267.592
L112.849 267.496
L112.969 267.711
L113.09 267.601
L113.45 266.599
L113.691 266.563
L113.931 267
L114.172 268.331
L114.292 268.245
L114.533 267.062
L114.894 267.947
L115.134 269.364
L115.615 266.836
L115.735 266.889
L115.976 266.693
L116.216 266.958
L116.457 267.789
L116.577 267.676
L116.818 267.212
L117.299 267.554
L117.419 267.437
L117.78 267.831
L118.02 267.762
L118.141 267.857
L118.501 268.787
L118.862 267.716
L118.982 267.763
L119.103 267.631
L119.463 267.712
L120.425 267.62
L120.546 267.667
L120.786 267.492
L121.027 267.629
L121.267 267.635
L121.388 267.545
L121.748 267.833
L121.989 267.617
L122.229 267.821
L122.47 268.611
L122.951 267.587
L123.312 268.105
L123.913 267.553
L124.033 267.589
L124.153 267.451
L124.274 267.552
L124.394 267.809
L125.356 267.432
L126.198 267.562
L126.318 267.416
L126.559 267.549
L126.799 267.55
L127.04 267.759
L127.16 267.957
L127.4 267.474
L127.521 267.479
L127.641 267.644
L127.881 269.059
L128.002 268.76
L128.242 267.562
L128.483 267.588
L128.603 267.416
L128.844 267.557
L129.084 267.346
L129.445 267.385
L129.685 267.868
L129.926 267.525
L130.166 267.992
L130.407 267.2
L130.527 267.1
L130.768 266.782
L131.489 266.408
L131.73 266.438
L131.97 267.264
L132.091 266.855
L132.331 265.536
L132.692 264.85
L133.053 262.988
L133.293 261.793
L133.654 258.372
L134.135 252.656
L134.616 240.683
L135.217 216.533
L135.698 199.299
L136.179 191.718
L136.3 192.229
L136.54 194.406
L136.66 193.691
L137.141 187.703
L137.262 189.856
L137.622 200.056
L137.863 206.21
L139.066 248.976
L139.547 257.079
L140.028 261.736
L140.629 264.557
L140.749 264.694
L141.11 266.422
L141.471 266.228
L141.711 266.354
L141.952 266.741
L142.072 266.69
L142.192 266.796
L142.433 268.128
L142.673 266.982
L143.034 267.092
L143.154 267.307
L143.395 267.189
L143.515 267.336
L143.876 267.333
L144.237 267.426
L144.357 267.574
L144.958 267.471
L145.199 267.88
L145.319 267.72
L145.439 267.355
L145.8 267.489
L146.041 267.352
L146.281 267.605
L146.642 267.534
L146.882 267.323
L147.003 267.332
L147.243 267.52
L147.363 267.418
L147.604 267.558
L147.724 267.558
L147.965 267.866
L148.205 267.512
L148.446 267.431
L148.686 267.298
L148.927 267.365
L149.167 267.291
L149.889 267.634
L150.129 267.479
L150.37 267.59
L150.971 267.713
L151.212 267.638
L151.452 267.73
L151.813 267.43
L151.933 267.658
L152.053 267.616
L152.174 267.384
L152.534 267.693
L152.775 267.728
L152.895 267.606
L153.136 267.703
L153.256 267.6
L153.497 267.748
L153.737 267.768
L153.978 268.023
L154.218 267.746
L154.459 267.709
L154.699 267.579
L155.18 267.799
L155.661 267.514
L156.142 267.624
L157.826 267.785
L157.946 267.844
L158.187 267.567
L158.307 267.713
L158.547 267.595
L158.788 267.769
L159.028 267.676
L159.63 267.712
L160.111 267.825
L160.472 267.547
L161.674 267.667
L162.275 267.62
L162.396 267.531
L162.636 267.753
L162.756 267.592
L162.997 267.72
L163.238 267.601
L163.598 267.802
L163.839 267.673
L163.959 267.647
L164.2 267.718
L165.162 267.728
L165.282 267.795
L165.643 267.598
L166.244 267.608
L166.605 267.673
L167.086 267.602
L167.326 267.837
L167.567 267.68
L168.048 267.667
L168.409 267.615
L168.89 267.675
L169.01 267.6
L169.25 267.798
L169.491 267.556
L169.852 267.736
L170.092 267.678
L170.213 267.76
L170.573 267.588
L170.814 267.633
L170.934 267.543
L171.175 267.651
L171.415 267.532
L171.535 267.639
L171.776 267.545
L172.257 267.662
L172.497 267.56
L172.858 267.671
L173.099 267.555
L173.339 267.711
L174.061 267.658
L174.301 267.755
L174.903 267.791
L175.143 267.647
L175.384 267.628
L175.624 267.646
L175.985 267.558
L176.105 267.67
L176.466 267.586
L176.706 267.742
L176.827 267.566
L177.188 267.668
L177.428 267.634
L177.789 267.641
L177.909 267.547
L178.27 267.617
L178.631 267.58
L178.991 267.543
L179.232 267.72
L179.352 267.551
L179.593 267.646
L179.833 267.612
L180.434 267.607
L180.675 267.697
L180.916 267.551
L181.036 267.76
L181.397 267.645
L181.637 267.668
L183.441 267.685
L183.441 267.685" style="fill:none;stroke:#000000;"/>
   </g>
   <g id="matplotlib.axis_11"/>
   <g id="matplotlib.axis_12"/>
   <g id="patch_28">
    <path d="
M90 187.448
L186.207 187.448" style="fill:none;stroke:#000000;"/>
   </g>
   <g id="patch_29">
    <path d="
M186.207 283.655
L186.207 187.448" style="fill:none;stroke:#000000;"/>
   </g>
   <g id="patch_30">
    <path d="
M90 283.655
L186.207 283.655" style="fill:none;stroke:#000000;"/>
   </g>
   <g id="patch_31">
    <path d="
M90 283.655
L90 187.448" style="fill:none;stroke:#000000;"/>
   </g>
   <g id="text_6">
    <!-- True: 1 Pred: 2 -->
    <g transform="translate(95.2025107759 182.448275862)scale(0.12 -0.12)">
     <use xlink:href="#DejaVuSans-54"/>
     <use x="46.333984375" xlink:href="#DejaVuSans-72"/>
     <use x="87.447265625" xlink:href="#DejaVuSans-75"/>
     <use x="150.826171875" xlink:href="#DejaVuSans-65"/>
     <use x="212.349609375" xlink:href="#DejaVuSans-3a"/>
     <use x="246.041015625" xlink:href="#DejaVuSans-20"/>
     <use x="277.828125" xlink:href="#DejaVuSans-31"/>
     <use x="341.451171875" xlink:href="#DejaVuSans-20"/>
     <use x="373.23828125" xlink:href="#DejaVuSans-50"/>
     <use x="431.791015625" xlink:href="#DejaVuSans-72"/>
     <use x="470.654296875" xlink:href="#DejaVuSans-65"/>
     <use x="532.177734375" xlink:href="#DejaVuSans-64"/>
     <use x="595.654296875" xlink:href="#DejaVuSans-3a"/>
     <use x="629.345703125" xlink:href="#DejaVuSans-20"/>
     <use x="661.1328125" xlink:href="#DejaVuSans-32"/>
    </g>
   </g>
  </g>
  <g id="axes_7">
   <g id="patch_32">
    <path d="
M205.448 283.655
L301.655 283.655
L301.655 187.448
L205.448 187.448
z
" style="fill:#ffffff;"/>
   </g>
   <g id="line2d_7">
    <path clip-path="url(#pc3a1c6e615)" d="
M205.448 269.707
L206.41 269.685
L206.651 269.673
L206.891 269.664
L207.132 269.797
L207.252 269.837
L207.372 269.702
L207.613 269.762
L207.853 269.699
L208.214 269.677
L208.575 269.962
L209.176 269.633
L209.537 269.68
L209.898 269.866
L210.018 269.764
L210.259 269.935
L210.499 269.732
L210.98 269.853
L211.221 270.004
L211.461 270.099
L211.702 269.682
L211.822 269.831
L212.063 269.767
L212.183 269.798
L212.664 269.518
L212.904 269.651
L213.145 269.718
L213.506 269.886
L213.746 269.594
L214.227 269.78
L214.588 269.466
L215.069 269.943
L215.189 269.987
L215.55 269.533
L215.791 269.609
L216.392 269.599
L216.512 269.662
L216.873 269.496
L217.354 269.321
L217.474 269.26
L217.715 269.39
L218.075 269.32
L218.196 269.136
L218.316 269.325
L218.436 269.751
L219.038 269.19
L219.158 269.243
L219.398 269.595
L220 269.252
L220.36 269.271
L220.481 269.141
L220.841 269.703
L221.082 269.645
L221.322 269.518
L221.803 269.63
L222.044 269.536
L222.284 269.647
L222.525 269.631
L222.645 269.527
L223.126 269.668
L223.247 269.605
L223.487 269.799
L223.728 269.595
L223.968 269.722
L224.209 269.631
L224.449 269.721
L224.93 269.665
L225.05 269.578
L225.291 269.811
L225.772 269.805
L226.013 269.825
L226.133 269.799
L226.373 269.874
L226.614 269.828
L226.975 269.676
L227.215 269.782
L227.576 269.479
L227.816 269.569
L227.937 269.525
L228.177 269.31
L228.297 269.447
L228.538 269.172
L229.139 268.443
L229.741 269.28
L229.861 269.176
L229.981 268.92
L230.462 269.422
L230.582 269.614
L231.184 268.749
L231.544 268.561
L231.665 268.669
L231.905 269.192
L232.025 269.074
L232.146 269.14
L232.386 269.461
L232.506 269.415
L233.108 269.7
L233.348 269.632
L234.07 269.923
L234.912 269.593
L235.152 269.821
L235.393 269.578
L235.633 269.746
L235.753 269.607
L235.994 269.762
L236.114 269.62
L236.475 269.738
L236.716 269.791
L237.317 269.721
L237.437 269.6
L237.798 269.803
L237.918 270.05
L238.038 270.001
L238.159 269.811
L238.519 269.817
L239.241 269.663
L239.602 269.628
L239.722 269.589
L239.963 269.789
L240.203 269.747
L240.444 269.602
L241.766 269.4
L241.887 269.583
L242.127 269.354
L242.368 269.582
L242.969 269.56
L243.089 269.501
L243.45 269.758
L243.691 269.548
L243.931 269.321
L244.172 269.527
L244.412 269.294
L244.653 269.353
L245.013 269.266
L245.494 269.283
L245.615 269.255
L245.855 269
L247.298 268.187
L247.419 268.186
L247.9 267.016
L248.14 266.57
L248.862 262.8
L249.343 258.15
L249.703 252.889
L250.184 241.794
L251.147 209.886
L251.387 201.219
L251.628 199.57
L251.868 201.521
L251.988 201.612
L252.109 201.113
L252.349 199.712
L252.469 199.812
L252.59 200.147
L252.83 203.234
L253.311 219.22
L254.514 253.124
L254.995 260.014
L255.476 263.957
L255.957 266.394
L256.919 268.324
L257.159 268.384
L257.4 268.694
L257.52 268.707
L257.881 269.226
L258.122 269.093
L258.362 269.112
L258.603 269.423
L258.843 269.494
L258.963 269.402
L259.805 269.73
L260.046 269.723
L260.406 269.858
L260.527 269.89
L260.767 269.797
L261.248 269.719
L261.97 269.804
L262.21 269.774
L262.331 269.798
L262.571 269.622
L262.932 269.683
L263.293 269.925
L263.533 269.775
L263.774 269.677
L263.894 269.746
L264.014 269.679
L264.255 269.789
L264.616 269.819
L264.856 269.827
L265.217 269.893
L265.457 269.903
L265.698 269.905
L265.818 269.892
L266.059 270.102
L266.179 269.962
L266.419 270.028
L266.54 269.864
L267.141 269.931
L267.381 269.873
L267.502 269.851
L267.742 270.005
L268.344 270.09
L268.464 269.987
L268.584 270.171
L269.306 270.085
L269.546 270.195
L270.027 269.953
L270.268 270.083
L270.508 270.01
L270.749 270.048
L270.989 270.154
L271.23 269.958
L271.47 270.016
L271.951 270.026
L272.192 270.069
L272.673 270.068
L272.913 270.149
L273.274 270.157
L273.394 270.074
L273.875 270.263
L274.116 270.19
L274.356 270.297
L274.477 270.196
L274.717 270.278
L274.958 270.178
L275.679 270.329
L275.8 270.14
L276.762 270.289
L277.603 270.135
L277.724 270.317
L278.325 270.253
L278.445 270.305
L278.686 270.278
L278.806 270.32
L279.047 270.128
L279.167 270.199
L279.287 270.135
L279.528 270.267
L279.768 270.161
L280.009 270.203
L280.129 270.113
L280.249 270.203
L280.49 270.073
L280.61 270.222
L280.85 270.089
L281.331 270.17
L281.692 270.057
L281.933 270.15
L282.294 270
L282.654 270.341
L282.895 270.078
L283.135 270.295
L283.256 270.305
L283.616 270.084
L284.218 270.08
L284.338 270.17
L284.458 270.084
L284.699 270.298
L284.939 270.108
L285.18 270.184
L285.781 270.149
L286.022 270.129
L286.142 270.163
L286.382 270.028
L286.623 270.186
L286.863 270.125
L287.104 270.165
L287.344 270.261
L287.585 270.116
L287.825 270.27
L287.946 270.171
L288.186 270.358
L288.427 270.048
L289.028 270.192
L289.148 270.144
L289.269 270.238
L289.629 270.116
L290.351 270.136
L291.072 270.071
L291.553 270.184
L292.034 270.139
L292.155 270.107
L292.395 270.216
L292.636 270.038
L292.876 270.17
L292.997 270.166
L293.237 270.063
L293.357 270.368
L293.598 270.063
L293.718 270.175
L293.959 270.05
L294.44 270.135
L294.68 270.193
L294.8 270.181
L294.921 270.022
L295.161 270.224
L295.522 269.999
L295.642 270.123
L295.883 270.08
L296.123 270.201
L296.725 270.122
L296.965 270.026
L297.206 270.249
L297.687 270.175
L298.288 270.194
L298.528 270.15
L298.769 270.308
L298.889 270.129
L298.889 270.129" style="fill:none;stroke:#000000;"/>
   </g>
   <g id="matplotlib.axis_13"/>
   <g id="matplotlib.axis_14"/>
   <g id="patch_33">
    <path d="
M205.448 187.448
L301.655 187.448" style="fill:none;stroke:#000000;"/>
   </g>
   <g id="patch_34">
    <path d="
M301.655 283.655
L301.655 187.448" style="fill:none;stroke:#000000;"/>
   </g>
   <g id="patch_35">
    <path d="
M205.448 283.655
L301.655 283.655" style="fill:none;stroke:#000000;"/>
   </g>
   <g id="patch_36">
    <path d="
M205.448 283.655
L205.448 187.448" style="fill:none;stroke:#000000;"/>
   </g>
   <g id="text_7">
    <!-- True: 1 Pred: 2 -->
    <g transform="translate(210.650786638 182.448275862)scale(0.12 -0.12)">
     <use xlink:href="#DejaVuSans-54"/>
     <use x="46.333984375" xlink:href="#DejaVuSans-72"/>
     <use x="87.447265625" xlink:href="#DejaVuSans-75"/>
     <use x="150.826171875" xlink:href="#DejaVuSans-65"/>
     <use x="212.349609375" xlink:href="#DejaVuSans-3a"/>
     <use x="246.041015625" xlink:href="#DejaVuSans-20"/>
     <use x="277.828125" xlink:href="#DejaVuSans-31"/>
     <use x="341.451171875" xlink:href="#DejaVuSans-20"/>
     <use x="373.23828125" xlink:href="#DejaVuSans-50"/>
     <use x="431.791015625" xlink:href="#DejaVuSans-72"/>
     <use x="470.654296875" xlink:href="#DejaVuSans-65"/>
     <use x="532.177734375" xlink:href="#DejaVuSans-64"/>
     <use x="595.654296875" xlink:href="#DejaVuSans-3a"/>
     <use x="629.345703125" xlink:href="#DejaVuSans-20"/>
     <use x="661.1328125" xlink:href="#DejaVuSans-32"/>
    </g>
   </g>
  </g>
  <g id="axes_8">
   <g id="patch_37">
    <path d="
M320.897 283.655
L417.103 283.655
L417.103 187.448
L320.897 187.448
z
" style="fill:#ffffff;"/>
   </g>
   <g id="line2d_8">
    <path clip-path="url(#pb5b2181504)" d="
M320.897 267.717
L321.257 268.292
L321.378 267.893
L321.738 268.352
L321.979 267.721
L322.219 267.981
L322.34 268.017
L322.58 268.38
L322.821 268.106
L322.941 267.937
L323.181 268.535
L323.302 268.421
L323.542 267.874
L323.783 267.943
L324.144 269.066
L324.504 267.777
L324.625 267.819
L324.745 267.998
L325.106 267.827
L325.226 267.958
L325.466 269.045
L325.827 268.614
L326.068 267.826
L326.188 268.067
L326.308 267.975
L326.428 268.191
L326.669 270.5
L326.789 270.093
L326.909 270.125
L327.03 270.038
L327.27 268.167
L327.631 268.616
L328.112 267.606
L328.232 267.621
L328.353 267.816
L328.593 268.829
L328.713 268.843
L328.834 269.065
L328.954 269.523
L329.074 269.093
L329.315 267.911
L329.675 267.93
L329.796 268.031
L329.916 267.914
L330.036 267.64
L330.156 267.699
L330.638 269.886
L330.758 269.838
L331.119 268.168
L331.239 267.921
L331.6 268.188
L331.84 267.806
L332.081 268.678
L332.201 268.532
L332.321 267.988
L332.562 268.098
L332.922 267.513
L333.283 267.962
L333.524 267.256
L333.644 267.342
L333.764 267.605
L334.005 269.455
L334.366 267.222
L334.486 267.457
L334.726 267.388
L334.967 269.32
L335.087 269.276
L335.328 267.53
L335.448 267.465
L335.688 267.758
L336.049 267.581
L336.169 268.065
L336.41 269.766
L336.65 267.642
L336.771 267.492
L336.891 267.624
L337.131 268.616
L337.252 268.488
L337.492 267.719
L337.613 267.584
L337.853 267.635
L338.094 267.464
L338.454 267.758
L338.815 267.705
L339.056 267.903
L339.176 267.572
L339.296 267.582
L339.537 267.887
L339.777 267.759
L340.258 268.181
L340.619 267.625
L340.739 267.583
L341.1 267.81
L341.341 267.783
L341.461 267.647
L341.581 267.829
L341.822 267.717
L341.942 267.89
L342.062 267.84
L342.303 268.711
L342.423 268.615
L342.663 267.711
L343.625 267.647
L343.746 267.811
L343.986 268.502
L344.347 267.001
L344.828 267.138
L344.948 267.574
L345.189 269.59
L345.309 269.062
L345.55 267.724
L345.91 269.315
L346.031 270.887
L346.151 270.794
L346.512 267.477
L346.752 267.722
L346.993 267.43
L347.113 267.656
L347.474 268.977
L347.714 267.717
L347.834 267.624
L347.955 267.763
L348.075 267.494
L348.195 267.543
L348.556 268.099
L348.676 268.061
L348.917 267.761
L349.157 268.059
L349.278 268.44
L349.518 269.285
L349.759 267.809
L349.879 267.775
L349.999 267.582
L350.24 267.684
L350.36 267.642
L350.48 267.758
L350.721 267.503
L351.322 267.727
L351.442 267.582
L351.563 267.658
L351.803 267.564
L351.923 267.65
L352.164 267.61
L352.765 267.892
L352.885 267.824
L353.006 267.466
L353.126 267.51
L353.246 267.945
L353.487 269.302
L353.727 267.642
L353.847 267.588
L353.968 267.663
L354.328 268.413
L354.449 268.037
L354.689 268.055
L354.93 267.486
L355.17 267.583
L355.291 267.495
L355.531 267.934
L355.772 267.543
L356.012 267.336
L356.132 267.271
L356.373 267.364
L356.613 267.319
L356.734 267.388
L357.094 267.203
L357.215 267.326
L357.816 267.064
L358.177 267.986
L358.538 267.131
L358.658 267.626
L358.898 269.391
L359.259 266.972
L359.5 266.955
L359.74 267.34
L359.86 267.206
L360.101 266.701
L360.341 266.614
L360.582 267.442
L360.702 267.761
L360.822 267.124
L360.943 267.515
L361.063 268.293
L361.183 267.964
L361.424 266.217
L361.544 265.935
L361.905 265.956
L362.145 265.845
L362.386 265.627
L362.747 265.992
L362.987 267.446
L363.348 264.905
L363.468 265.206
L363.588 264.917
L363.829 263.478
L363.949 263.278
L364.43 261.202
L364.911 258.112
L365.031 258.197
L365.152 257.073
L366.114 233.101
L366.595 219.286
L366.835 213.015
L367.196 199.495
L367.316 199.579
L367.557 201.661
L367.677 200.764
L367.797 201.527
L368.519 226.439
L368.639 228.071
L369.481 250.717
L369.962 257.203
L370.684 262.674
L370.804 262.828
L371.525 264.724
L371.766 264.926
L372.127 267.067
L372.367 265.569
L373.089 266.301
L373.45 268.473
L373.69 266.644
L373.81 266.653
L373.931 266.904
L374.051 266.866
L374.532 267.093
L374.652 266.973
L374.893 267.18
L375.013 267.22
L375.133 267.098
L375.494 267.379
L375.855 267.453
L376.216 268.017
L376.576 267.318
L376.697 267.293
L376.937 267.437
L377.057 267.361
L377.418 267.754
L377.779 267.062
L378.019 267.271
L378.26 267.347
L378.38 267.348
L378.621 267.476
L378.861 268.48
L379.342 267.072
L379.463 267.03
L379.944 267.38
L380.184 267.358
L380.545 267.285
L380.785 267.29
L381.026 267.506
L381.146 267.528
L381.387 267.357
L381.627 267.426
L381.868 267.688
L382.108 267.422
L382.228 267.347
L382.469 267.964
L382.589 267.881
L382.83 267.59
L383.07 267.315
L383.551 267.802
L384.153 267.545
L384.393 267.609
L384.513 267.577
L384.874 268.212
L385.115 267.645
L385.235 267.676
L385.355 267.559
L385.475 267.625
L385.716 267.529
L385.836 267.547
L386.197 267.961
L386.438 267.419
L387.279 267.651
L387.52 267.601
L387.881 267.733
L388.362 267.54
L388.602 267.585
L388.843 267.544
L389.203 267.699
L389.564 267.518
L389.805 267.735
L390.286 267.64
L390.406 267.752
L390.647 267.661
L391.007 268.135
L391.248 268.124
L391.368 268.125
L391.729 267.672
L392.571 267.773
L392.931 267.608
L393.292 267.757
L393.533 267.658
L394.134 267.721
L394.254 267.619
L394.375 267.716
L394.615 267.528
L394.856 267.717
L395.216 267.608
L395.337 267.754
L395.697 267.732
L395.818 267.814
L396.058 267.549
L396.178 267.662
L396.299 267.553
L396.419 267.619
L396.539 267.862
L396.9 267.684
L397.141 267.68
L397.381 267.728
L397.501 267.864
L397.742 267.619
L397.862 267.534
L398.223 267.794
L398.343 267.834
L398.463 267.586
L398.704 267.838
L398.944 267.635
L399.906 267.589
L400.147 267.777
L400.508 267.81
L401.109 267.432
L401.35 267.637
L401.47 267.638
L401.71 267.814
L402.071 267.694
L402.191 267.541
L402.432 267.628
L402.552 267.495
L402.913 267.718
L403.153 267.574
L403.394 267.702
L403.634 267.559
L403.875 267.715
L403.995 267.743
L404.116 267.578
L404.236 267.802
L404.476 267.454
L404.837 267.764
L405.318 267.672
L405.438 267.704
L405.679 267.584
L406.04 267.84
L406.641 267.495
L407.002 267.728
L407.242 267.56
L407.363 267.505
L407.483 267.592
L407.603 267.423
L407.844 267.734
L407.964 267.588
L408.084 267.701
L408.325 267.492
L408.565 267.639
L408.685 267.546
L408.806 267.68
L409.166 267.462
L409.407 267.671
L409.768 267.702
L410.008 267.427
L410.249 267.848
L410.609 267.533
L411.091 267.628
L411.451 267.629
L411.572 267.796
L411.692 267.567
L411.932 267.753
L412.053 267.422
L412.293 267.719
L412.774 267.507
L413.015 267.755
L413.135 267.815
L413.375 267.665
L413.496 267.793
L413.856 267.656
L414.097 267.799
L414.217 267.58
L414.338 267.626
L414.338 267.626" style="fill:none;stroke:#000000;"/>
   </g>
   <g id="matplotlib.axis_15"/>
   <g id="matplotlib.axis_16"/>
   <g id="patch_38">
    <path d="
M320.897 187.448
L417.103 187.448" style="fill:none;stroke:#000000;"/>
   </g>
   <g id="patch_39">
    <path d="
M417.103 283.655
L417.103 187.448" style="fill:none;stroke:#000000;"/>
   </g>
   <g id="patch_40">
    <path d="
M320.897 283.655
L417.103 283.655" style="fill:none;stroke:#000000;"/>
   </g>
   <g id="patch_41">
    <path d="
M320.897 283.655
L320.897 187.448" style="fill:none;stroke:#000000;"/>
   </g>
   <g id="text_8">
    <!-- True: 2 Pred: 1 -->
    <g transform="translate(326.0521875 182.448275862)scale(0.12 -0.12)">
     <use xlink:href="#DejaVuSans-54"/>
     <use x="46.333984375" xlink:href="#DejaVuSans-72"/>
     <use x="87.447265625" xlink:href="#DejaVuSans-75"/>
     <use x="150.826171875" xlink:href="#DejaVuSans-65"/>
     <use x="212.349609375" xlink:href="#DejaVuSans-3a"/>
     <use x="246.041015625" xlink:href="#DejaVuSans-20"/>
     <use x="277.828125" xlink:href="#DejaVuSans-32"/>
     <use x="341.451171875" xlink:href="#DejaVuSans-20"/>
     <use x="373.23828125" xlink:href="#DejaVuSans-50"/>
     <use x="431.791015625" xlink:href="#DejaVuSans-72"/>
     <use x="470.654296875" xlink:href="#DejaVuSans-65"/>
     <use x="532.177734375" xlink:href="#DejaVuSans-64"/>
     <use x="595.654296875" xlink:href="#DejaVuSans-3a"/>
     <use x="629.345703125" xlink:href="#DejaVuSans-20"/>
     <use x="661.1328125" xlink:href="#DejaVuSans-31"/>
    </g>
   </g>
  </g>
 </g>
 <defs>
  <clipPath id="p707f87add5">
   <rect height="96.2068965517" width="96.2068965517" x="205.448275862" y="72.0"/>
  </clipPath>
  <clipPath id="pf68211e43b">
   <rect height="96.2068965517" width="96.2068965517" x="90.0" y="72.0"/>
  </clipPath>
  <clipPath id="pc3a1c6e615">
   <rect height="96.2068965517" width="96.2068965517" x="205.448275862" y="187.448275862"/>
  </clipPath>
  <clipPath id="pf3fe77fffd">
   <rect height="96.2068965517" width="96.2068965517" x="551.793103448" y="72.0"/>
  </clipPath>
  <clipPath id="p7fc8e9000b">
   <rect height="96.2068965517" width="96.2068965517" x="436.344827586" y="72.0"/>
  </clipPath>
  <clipPath id="paa7f9e13be">
   <rect height="96.2068965517" width="96.2068965517" x="90.0" y="187.448275862"/>
  </clipPath>
  <clipPath id="pb5b2181504">
   <rect height="96.2068965517" width="96.2068965517" x="320.896551724" y="187.448275862"/>
  </clipPath>
  <clipPath id="pe5b1fd4b54">
   <rect height="96.2068965517" width="96.2068965517" x="320.896551724" y="72.0"/>
  </clipPath>
 </defs>
</svg>
