<?xml version="1.0" encoding="utf-8" standalone="no"?>
<!DOCTYPE svg PUBLIC "-//W3C//DTD SVG 1.1//EN"
  "http://www.w3.org/Graphics/SVG/1.1/DTD/svg11.dtd">
<!-- Created with matplotlib (http://matplotlib.org/) -->
<svg height="720pt" version="1.1" viewBox="0 0 720 720" width="720pt" xmlns="http://www.w3.org/2000/svg" xmlns:xlink="http://www.w3.org/1999/xlink">
 <defs>
  <style type="text/css">
*{stroke-linecap:butt;stroke-linejoin:round;}
  </style>
 </defs>
 <g id="figure_1">
  <g id="patch_1">
   <path d="
M0 720
L720 720
L720 0
L0 0
z
" style="fill:#ffffff;"/>
  </g>
  <g id="axes_1">
   <g id="patch_2">
    <path d="
M90 168.207
L186.207 168.207
L186.207 72
L90 72
z
" style="fill:#ffffff;"/>
   </g>
   <g id="line2d_1">
    <path clip-path="url(#pf68211e43b)" d="
M90 154.259
L90.9621 154.237
L91.2026 154.225
L91.4431 154.215
L91.6836 154.349
L91.8039 154.389
L91.9241 154.254
L92.1647 154.313
L92.4052 154.25
L92.7659 154.228
L93.1267 154.514
L93.728 154.185
L94.0888 154.232
L94.4496 154.417
L94.5698 154.315
L94.8103 154.487
L95.0509 154.284
L95.5319 154.405
L95.7724 154.556
L96.0129 154.651
L96.2534 154.234
L96.3737 154.383
L96.6142 154.319
L96.7345 154.35
L97.2155 154.07
L97.456 154.202
L97.6966 154.27
L98.0573 154.437
L98.2978 154.146
L98.7789 154.332
L99.1397 154.018
L99.6207 154.494
L99.7409 154.538
L100.102 154.084
L100.342 154.16
L100.944 154.15
L101.064 154.214
L101.425 154.048
L101.906 153.873
L102.026 153.812
L102.266 153.942
L102.627 153.871
L102.747 153.688
L102.868 153.876
L102.988 154.303
L103.589 153.741
L103.709 153.795
L103.95 154.146
L104.551 153.803
L104.912 153.823
L105.032 153.692
L105.393 154.255
L105.634 154.197
L105.874 154.07
L106.355 154.182
L106.596 154.088
L106.836 154.199
L107.077 154.183
L107.197 154.078
L107.678 154.219
L107.798 154.157
L108.039 154.351
L108.279 154.147
L108.52 154.274
L108.76 154.183
L109.001 154.273
L109.482 154.217
L109.602 154.129
L109.843 154.362
L110.324 154.357
L110.564 154.377
L110.684 154.351
L110.925 154.425
L111.166 154.379
L111.526 154.228
L111.767 154.333
L112.128 154.03
L112.368 154.12
L112.488 154.076
L112.729 153.862
L112.849 153.999
L113.09 153.724
L113.691 152.995
L114.292 153.832
L114.413 153.728
L114.533 153.472
L115.014 153.974
L115.134 154.166
L115.735 153.3
L116.096 153.112
L116.216 153.22
L116.457 153.744
L116.577 153.626
L116.697 153.692
L116.938 154.013
L117.058 153.967
L117.659 154.251
L117.9 154.184
L118.622 154.475
L119.463 154.145
L119.704 154.372
L119.944 154.13
L120.185 154.298
L120.305 154.159
L120.546 154.314
L120.666 154.172
L121.027 154.289
L121.267 154.342
L121.869 154.273
L121.989 154.152
L122.35 154.354
L122.47 154.602
L122.59 154.553
L122.71 154.362
L123.071 154.369
L123.793 154.215
L124.153 154.18
L124.274 154.141
L124.514 154.341
L124.755 154.299
L124.995 154.153
L126.318 153.952
L126.438 154.135
L126.679 153.905
L126.919 154.134
L127.521 154.111
L127.641 154.053
L128.002 154.309
L128.242 154.1
L128.483 153.872
L128.723 154.079
L128.964 153.846
L129.204 153.905
L129.565 153.817
L130.046 153.835
L130.166 153.806
L130.407 153.552
L131.85 152.738
L131.97 152.738
L132.451 151.568
L132.692 151.122
L133.413 147.352
L133.894 142.702
L134.255 137.441
L134.736 126.346
L135.698 94.4372
L135.939 85.7705
L136.179 84.1215
L136.42 86.0728
L136.54 86.1641
L136.66 85.6645
L136.901 84.2639
L137.021 84.3642
L137.141 84.6987
L137.382 87.7859
L137.863 103.772
L139.066 137.676
L139.547 144.566
L140.028 148.509
L140.509 150.945
L141.471 152.876
L141.711 152.936
L141.952 153.246
L142.072 153.259
L142.433 153.777
L142.673 153.645
L142.914 153.664
L143.154 153.975
L143.395 154.045
L143.515 153.954
L144.357 154.282
L144.597 154.275
L144.958 154.41
L145.078 154.442
L145.319 154.349
L145.8 154.27
L146.522 154.356
L146.762 154.325
L146.882 154.35
L147.123 154.174
L147.484 154.235
L147.844 154.476
L148.085 154.327
L148.325 154.229
L148.446 154.297
L148.566 154.231
L148.806 154.341
L149.167 154.371
L149.408 154.378
L149.769 154.445
L150.009 154.455
L150.25 154.457
L150.37 154.444
L150.61 154.653
L150.731 154.514
L150.971 154.58
L151.091 154.416
L151.693 154.483
L151.933 154.425
L152.053 154.403
L152.294 154.557
L152.895 154.642
L153.016 154.538
L153.136 154.723
L153.857 154.637
L154.098 154.747
L154.579 154.505
L154.819 154.635
L155.06 154.561
L155.3 154.6
L155.541 154.706
L155.781 154.51
L156.022 154.568
L156.503 154.578
L156.744 154.621
L157.225 154.62
L157.465 154.701
L157.826 154.709
L157.946 154.626
L158.427 154.815
L158.668 154.742
L158.908 154.848
L159.028 154.748
L159.269 154.829
L159.509 154.73
L160.231 154.881
L160.351 154.692
L161.313 154.841
L162.155 154.687
L162.275 154.869
L162.877 154.805
L162.997 154.857
L163.238 154.83
L163.358 154.872
L163.598 154.68
L163.719 154.751
L163.839 154.687
L164.079 154.819
L164.32 154.712
L164.56 154.755
L164.681 154.664
L164.801 154.755
L165.041 154.625
L165.162 154.774
L165.402 154.641
L165.883 154.722
L166.244 154.609
L166.484 154.702
L166.845 154.551
L167.206 154.892
L167.447 154.63
L167.687 154.847
L167.807 154.857
L168.168 154.636
L168.769 154.632
L168.89 154.722
L169.01 154.635
L169.25 154.849
L169.491 154.66
L169.731 154.735
L170.333 154.701
L170.573 154.681
L170.694 154.714
L170.934 154.579
L171.175 154.738
L171.415 154.677
L171.656 154.717
L171.896 154.812
L172.137 154.668
L172.377 154.822
L172.497 154.723
L172.738 154.91
L172.978 154.6
L173.58 154.743
L173.7 154.696
L173.82 154.789
L174.181 154.668
L174.903 154.688
L175.624 154.623
L176.105 154.736
L176.586 154.691
L176.706 154.658
L176.947 154.768
L177.188 154.59
L177.428 154.722
L177.548 154.717
L177.789 154.615
L177.909 154.92
L178.15 154.615
L178.27 154.726
L178.51 154.602
L178.991 154.687
L179.232 154.745
L179.352 154.732
L179.472 154.574
L179.713 154.775
L180.074 154.55
L180.194 154.675
L180.434 154.631
L180.675 154.752
L181.276 154.674
L181.517 154.578
L181.757 154.801
L182.238 154.727
L182.84 154.746
L183.08 154.702
L183.321 154.86
L183.441 154.681
L183.441 154.681" style="fill:none;stroke:#000000;stroke-linecap:square;"/>
   </g>
   <g id="matplotlib.axis_1"/>
   <g id="matplotlib.axis_2"/>
   <g id="patch_3">
    <path d="
M90 72
L186.207 72" style="fill:none;stroke:#000000;"/>
   </g>
   <g id="patch_4">
    <path d="
M186.207 168.207
L186.207 72" style="fill:none;stroke:#000000;"/>
   </g>
   <g id="patch_5">
    <path d="
M90 168.207
L186.207 168.207" style="fill:none;stroke:#000000;"/>
   </g>
   <g id="patch_6">
    <path d="
M90 168.207
L90 72" style="fill:none;stroke:#000000;"/>
   </g>
   <g id="text_1">
    <!-- true:1.0, pred:2.0  -->
    <defs>
     <path d="
M19.1875 8.29688
L53.6094 8.29688
L53.6094 0
L7.32812 0
L7.32812 8.29688
Q12.9375 14.1094 22.625 23.8906
Q32.3281 33.6875 34.8125 36.5312
Q39.5469 41.8438 41.4219 45.5312
Q43.3125 49.2188 43.3125 52.7812
Q43.3125 58.5938 39.2344 62.25
Q35.1562 65.9219 28.6094 65.9219
Q23.9688 65.9219 18.8125 64.3125
Q13.6719 62.7031 7.8125 59.4219
L7.8125 69.3906
Q13.7656 71.7812 18.9375 73
Q24.125 74.2188 28.4219 74.2188
Q39.75 74.2188 46.4844 68.5469
Q53.2188 62.8906 53.2188 53.4219
Q53.2188 48.9219 51.5312 44.8906
Q49.8594 40.875 45.4062 35.4062
Q44.1875 33.9844 37.6406 27.2188
Q31.1094 20.4531 19.1875 8.29688" id="BitstreamVeraSans-Roman-32"/>
     <path id="BitstreamVeraSans-Roman-20"/>
     <path d="
M31.7812 66.4062
Q24.1719 66.4062 20.3281 58.9062
Q16.5 51.4219 16.5 36.375
Q16.5 21.3906 20.3281 13.8906
Q24.1719 6.39062 31.7812 6.39062
Q39.4531 6.39062 43.2812 13.8906
Q47.125 21.3906 47.125 36.375
Q47.125 51.4219 43.2812 58.9062
Q39.4531 66.4062 31.7812 66.4062
M31.7812 74.2188
Q44.0469 74.2188 50.5156 64.5156
Q56.9844 54.8281 56.9844 36.375
Q56.9844 17.9688 50.5156 8.26562
Q44.0469 -1.42188 31.7812 -1.42188
Q19.5312 -1.42188 13.0625 8.26562
Q6.59375 17.9688 6.59375 36.375
Q6.59375 54.8281 13.0625 64.5156
Q19.5312 74.2188 31.7812 74.2188" id="BitstreamVeraSans-Roman-30"/>
     <path d="
M12.4062 8.29688
L28.5156 8.29688
L28.5156 63.9219
L10.9844 60.4062
L10.9844 69.3906
L28.4219 72.9062
L38.2812 72.9062
L38.2812 8.29688
L54.3906 8.29688
L54.3906 0
L12.4062 0
z
" id="BitstreamVeraSans-Roman-31"/>
     <path d="
M11.7188 12.4062
L22.0156 12.4062
L22.0156 4
L14.0156 -11.625
L7.71875 -11.625
L11.7188 4
z
" id="BitstreamVeraSans-Roman-2c"/>
     <path d="
M11.7188 12.4062
L22.0156 12.4062
L22.0156 0
L11.7188 0
z

M11.7188 51.7031
L22.0156 51.7031
L22.0156 39.3125
L11.7188 39.3125
z
" id="BitstreamVeraSans-Roman-3a"/>
     <path d="
M10.6875 12.4062
L21 12.4062
L21 0
L10.6875 0
z
" id="BitstreamVeraSans-Roman-2e"/>
     <path d="
M56.2031 29.5938
L56.2031 25.2031
L14.8906 25.2031
Q15.4844 15.9219 20.4844 11.0625
Q25.4844 6.20312 34.4219 6.20312
Q39.5938 6.20312 44.4531 7.46875
Q49.3125 8.73438 54.1094 11.2812
L54.1094 2.78125
Q49.2656 0.734375 44.1875 -0.34375
Q39.1094 -1.42188 33.8906 -1.42188
Q20.7969 -1.42188 13.1562 6.1875
Q5.51562 13.8125 5.51562 26.8125
Q5.51562 40.2344 12.7656 48.1094
Q20.0156 56 32.3281 56
Q43.3594 56 49.7812 48.8906
Q56.2031 41.7969 56.2031 29.5938
M47.2188 32.2344
Q47.125 39.5938 43.0938 43.9844
Q39.0625 48.3906 32.4219 48.3906
Q24.9062 48.3906 20.3906 44.1406
Q15.875 39.8906 15.1875 32.1719
z
" id="BitstreamVeraSans-Roman-65"/>
     <path d="
M45.4062 46.3906
L45.4062 75.9844
L54.3906 75.9844
L54.3906 0
L45.4062 0
L45.4062 8.20312
Q42.5781 3.32812 38.25 0.953125
Q33.9375 -1.42188 27.875 -1.42188
Q17.9688 -1.42188 11.7344 6.48438
Q5.51562 14.4062 5.51562 27.2969
Q5.51562 40.1875 11.7344 48.0938
Q17.9688 56 27.875 56
Q33.9375 56 38.25 53.625
Q42.5781 51.2656 45.4062 46.3906
M14.7969 27.2969
Q14.7969 17.3906 18.875 11.75
Q22.9531 6.10938 30.0781 6.10938
Q37.2031 6.10938 41.2969 11.75
Q45.4062 17.3906 45.4062 27.2969
Q45.4062 37.2031 41.2969 42.8438
Q37.2031 48.4844 30.0781 48.4844
Q22.9531 48.4844 18.875 42.8438
Q14.7969 37.2031 14.7969 27.2969" id="BitstreamVeraSans-Roman-64"/>
     <path d="
M18.3125 70.2188
L18.3125 54.6875
L36.8125 54.6875
L36.8125 47.7031
L18.3125 47.7031
L18.3125 18.0156
Q18.3125 11.3281 20.1406 9.42188
Q21.9688 7.51562 27.5938 7.51562
L36.8125 7.51562
L36.8125 0
L27.5938 0
Q17.1875 0 13.2344 3.875
Q9.28125 7.76562 9.28125 18.0156
L9.28125 47.7031
L2.6875 47.7031
L2.6875 54.6875
L9.28125 54.6875
L9.28125 70.2188
z
" id="BitstreamVeraSans-Roman-74"/>
     <path d="
M8.5 21.5781
L8.5 54.6875
L17.4844 54.6875
L17.4844 21.9219
Q17.4844 14.1562 20.5 10.2656
Q23.5312 6.39062 29.5938 6.39062
Q36.8594 6.39062 41.0781 11.0312
Q45.3125 15.6719 45.3125 23.6875
L45.3125 54.6875
L54.2969 54.6875
L54.2969 0
L45.3125 0
L45.3125 8.40625
Q42.0469 3.42188 37.7188 1
Q33.4062 -1.42188 27.6875 -1.42188
Q18.2656 -1.42188 13.375 4.4375
Q8.5 10.2969 8.5 21.5781" id="BitstreamVeraSans-Roman-75"/>
     <path d="
M41.1094 46.2969
Q39.5938 47.1719 37.8125 47.5781
Q36.0312 48 33.8906 48
Q26.2656 48 22.1875 43.0469
Q18.1094 38.0938 18.1094 28.8125
L18.1094 0
L9.07812 0
L9.07812 54.6875
L18.1094 54.6875
L18.1094 46.1875
Q20.9531 51.1719 25.4844 53.5781
Q30.0312 56 36.5312 56
Q37.4531 56 38.5781 55.875
Q39.7031 55.7656 41.0625 55.5156
z
" id="BitstreamVeraSans-Roman-72"/>
     <path d="
M18.1094 8.20312
L18.1094 -20.7969
L9.07812 -20.7969
L9.07812 54.6875
L18.1094 54.6875
L18.1094 46.3906
Q20.9531 51.2656 25.2656 53.625
Q29.5938 56 35.5938 56
Q45.5625 56 51.7812 48.0938
Q58.0156 40.1875 58.0156 27.2969
Q58.0156 14.4062 51.7812 6.48438
Q45.5625 -1.42188 35.5938 -1.42188
Q29.5938 -1.42188 25.2656 0.953125
Q20.9531 3.32812 18.1094 8.20312
M48.6875 27.2969
Q48.6875 37.2031 44.6094 42.8438
Q40.5312 48.4844 33.4062 48.4844
Q26.2656 48.4844 22.1875 42.8438
Q18.1094 37.2031 18.1094 27.2969
Q18.1094 17.3906 22.1875 11.75
Q26.2656 6.10938 33.4062 6.10938
Q40.5312 6.10938 44.6094 11.75
Q48.6875 17.3906 48.6875 27.2969" id="BitstreamVeraSans-Roman-70"/>
    </defs>
    <g transform="translate(85.6071982759 53.562625)scale(0.12 -0.12)">
     <use xlink:href="#BitstreamVeraSans-Roman-74"/>
     <use x="39.208984375" xlink:href="#BitstreamVeraSans-Roman-72"/>
     <use x="80.322265625" xlink:href="#BitstreamVeraSans-Roman-75"/>
     <use x="143.701171875" xlink:href="#BitstreamVeraSans-Roman-65"/>
     <use x="205.224609375" xlink:href="#BitstreamVeraSans-Roman-3a"/>
     <use x="238.916015625" xlink:href="#BitstreamVeraSans-Roman-31"/>
     <use x="302.5390625" xlink:href="#BitstreamVeraSans-Roman-2e"/>
     <use x="334.326171875" xlink:href="#BitstreamVeraSans-Roman-30"/>
     <use x="397.94921875" xlink:href="#BitstreamVeraSans-Roman-2c"/>
     <use x="429.736328125" xlink:href="#BitstreamVeraSans-Roman-20"/>
     <use x="461.5234375" xlink:href="#BitstreamVeraSans-Roman-70"/>
     <use x="525.0" xlink:href="#BitstreamVeraSans-Roman-72"/>
     <use x="563.86328125" xlink:href="#BitstreamVeraSans-Roman-65"/>
     <use x="625.38671875" xlink:href="#BitstreamVeraSans-Roman-64"/>
     <use x="688.86328125" xlink:href="#BitstreamVeraSans-Roman-3a"/>
     <use x="722.5546875" xlink:href="#BitstreamVeraSans-Roman-32"/>
     <use x="786.177734375" xlink:href="#BitstreamVeraSans-Roman-2e"/>
     <use x="817.96484375" xlink:href="#BitstreamVeraSans-Roman-30"/>
     <use x="881.587890625" xlink:href="#BitstreamVeraSans-Roman-20"/>
    </g>
    <!--  betpsc -->
    <defs>
     <path d="
M44.2812 53.0781
L44.2812 44.5781
Q40.4844 46.5312 36.375 47.5
Q32.2812 48.4844 27.875 48.4844
Q21.1875 48.4844 17.8438 46.4375
Q14.5 44.3906 14.5 40.2812
Q14.5 37.1562 16.8906 35.375
Q19.2812 33.5938 26.5156 31.9844
L29.5938 31.2969
Q39.1562 29.25 43.1875 25.5156
Q47.2188 21.7812 47.2188 15.0938
Q47.2188 7.46875 41.1875 3.01562
Q35.1562 -1.42188 24.6094 -1.42188
Q20.2188 -1.42188 15.4531 -0.5625
Q10.6875 0.296875 5.42188 2
L5.42188 11.2812
Q10.4062 8.6875 15.2344 7.39062
Q20.0625 6.10938 24.8125 6.10938
Q31.1562 6.10938 34.5625 8.28125
Q37.9844 10.4531 37.9844 14.4062
Q37.9844 18.0625 35.5156 20.0156
Q33.0625 21.9688 24.7031 23.7812
L21.5781 24.5156
Q13.2344 26.2656 9.51562 29.9062
Q5.8125 33.5469 5.8125 39.8906
Q5.8125 47.6094 11.2812 51.7969
Q16.75 56 26.8125 56
Q31.7812 56 36.1719 55.2656
Q40.5781 54.5469 44.2812 53.0781" id="BitstreamVeraSans-Roman-73"/>
     <path d="
M48.7812 52.5938
L48.7812 44.1875
Q44.9688 46.2969 41.1406 47.3438
Q37.3125 48.3906 33.4062 48.3906
Q24.6562 48.3906 19.8125 42.8438
Q14.9844 37.3125 14.9844 27.2969
Q14.9844 17.2812 19.8125 11.7344
Q24.6562 6.20312 33.4062 6.20312
Q37.3125 6.20312 41.1406 7.25
Q44.9688 8.29688 48.7812 10.4062
L48.7812 2.09375
Q45.0156 0.34375 40.9844 -0.53125
Q36.9688 -1.42188 32.4219 -1.42188
Q20.0625 -1.42188 12.7812 6.34375
Q5.51562 14.1094 5.51562 27.2969
Q5.51562 40.6719 12.8594 48.3281
Q20.2188 56 33.0156 56
Q37.1562 56 41.1094 55.1406
Q45.0625 54.2969 48.7812 52.5938" id="BitstreamVeraSans-Roman-63"/>
     <path d="
M48.6875 27.2969
Q48.6875 37.2031 44.6094 42.8438
Q40.5312 48.4844 33.4062 48.4844
Q26.2656 48.4844 22.1875 42.8438
Q18.1094 37.2031 18.1094 27.2969
Q18.1094 17.3906 22.1875 11.75
Q26.2656 6.10938 33.4062 6.10938
Q40.5312 6.10938 44.6094 11.75
Q48.6875 17.3906 48.6875 27.2969
M18.1094 46.3906
Q20.9531 51.2656 25.2656 53.625
Q29.5938 56 35.5938 56
Q45.5625 56 51.7812 48.0938
Q58.0156 40.1875 58.0156 27.2969
Q58.0156 14.4062 51.7812 6.48438
Q45.5625 -1.42188 35.5938 -1.42188
Q29.5938 -1.42188 25.2656 0.953125
Q20.9531 3.32812 18.1094 8.20312
L18.1094 0
L9.07812 0
L9.07812 75.9844
L18.1094 75.9844
z
" id="BitstreamVeraSans-Roman-62"/>
    </defs>
    <g transform="translate(116.481885776 67.0)scale(0.12 -0.12)">
     <use xlink:href="#BitstreamVeraSans-Roman-20"/>
     <use x="31.787109375" xlink:href="#BitstreamVeraSans-Roman-62"/>
     <use x="95.263671875" xlink:href="#BitstreamVeraSans-Roman-65"/>
     <use x="156.787109375" xlink:href="#BitstreamVeraSans-Roman-74"/>
     <use x="195.99609375" xlink:href="#BitstreamVeraSans-Roman-70"/>
     <use x="259.47265625" xlink:href="#BitstreamVeraSans-Roman-73"/>
     <use x="311.572265625" xlink:href="#BitstreamVeraSans-Roman-63"/>
    </g>
   </g>
  </g>
  <g id="axes_2">
   <g id="patch_7">
    <path d="
M205.448 168.207
L301.655 168.207
L301.655 72
L205.448 72
z
" style="fill:#ffffff;"/>
   </g>
   <g id="line2d_2">
    <path clip-path="url(#p707f87add5)" d="
M205.448 152.246
L205.569 152.512
L205.689 152.492
L205.809 152.317
L206.05 152.491
L206.17 152.54
L206.29 152.427
L206.531 152.006
L206.891 152.459
L207.012 152.61
L207.252 152.453
L207.372 152.257
L207.493 152.298
L207.733 152.508
L208.214 152.244
L208.334 152.391
L208.575 153.029
L209.056 152.197
L209.297 152.25
L209.657 152.287
L210.018 152.827
L210.259 152.826
L210.499 152.392
L210.619 152.47
L210.74 152.36
L210.86 152.439
L211.221 153.842
L211.341 153.687
L211.461 153.774
L211.822 152.551
L212.183 152.704
L212.544 152.053
L212.904 152.354
L213.145 152.875
L213.265 152.936
L213.385 153.319
L213.506 153.254
L213.746 152.254
L213.866 152.185
L214.347 152.356
L214.588 152.131
L214.708 152.374
L214.949 153.466
L215.069 153.404
L215.189 153.478
L215.67 152.348
L215.791 152.229
L216.031 152.535
L216.272 152.115
L216.632 152.552
L216.993 152.207
L217.113 152.237
L217.474 151.876
L217.715 152.225
L217.955 151.697
L218.196 151.926
L218.436 153.205
L218.556 152.959
L218.797 151.662
L219.158 151.647
L219.278 151.973
L219.519 153.051
L219.879 151.855
L220 151.836
L220.24 151.959
L220.481 151.919
L220.601 152.041
L220.841 153.195
L221.202 151.917
L221.322 152.014
L221.683 152.596
L222.044 152.102
L222.284 152.098
L222.405 152.108
L222.645 152.315
L222.886 152.227
L223.126 152.128
L223.367 152.356
L223.968 152.185
L224.209 152.283
L224.449 152.418
L224.81 152.49
L225.05 152.288
L225.291 152.323
L225.892 152.318
L226.133 152.126
L226.373 152.425
L226.494 152.287
L226.734 152.775
L226.854 152.773
L227.335 152.126
L227.696 152.145
L227.937 152.05
L228.057 152.144
L228.297 152.047
L228.418 152.263
L228.538 152.153
L228.899 151.15
L229.139 151.115
L229.38 151.551
L229.62 152.883
L229.741 152.797
L229.981 151.614
L230.342 152.499
L230.582 153.915
L231.063 151.388
L231.184 151.441
L231.424 151.244
L231.665 151.509
L231.905 152.34
L232.025 152.228
L232.266 151.764
L232.747 152.106
L232.867 151.989
L233.228 152.383
L233.469 152.314
L233.589 152.409
L233.95 153.339
L234.31 152.268
L234.431 152.315
L234.551 152.182
L234.912 152.264
L235.874 152.172
L235.994 152.219
L236.234 152.044
L236.475 152.18
L236.716 152.187
L236.836 152.096
L237.197 152.385
L237.437 152.168
L237.678 152.373
L237.918 153.163
L238.399 152.138
L238.76 152.657
L239.361 152.104
L239.481 152.141
L239.602 152.003
L239.722 152.103
L239.842 152.361
L240.804 151.984
L241.646 152.113
L241.766 151.967
L242.007 152.1
L242.247 152.102
L242.488 152.311
L242.608 152.509
L242.849 152.026
L242.969 152.031
L243.089 152.196
L243.33 153.611
L243.45 153.312
L243.691 152.114
L243.931 152.14
L244.051 151.968
L244.292 152.109
L244.532 151.897
L244.893 151.936
L245.134 152.419
L245.374 152.076
L245.615 152.544
L245.855 151.752
L245.975 151.652
L246.216 151.334
L246.938 150.96
L247.178 150.989
L247.419 151.815
L247.539 151.407
L247.779 150.088
L248.14 149.401
L248.501 147.54
L248.741 146.345
L249.102 142.923
L249.583 137.207
L250.064 125.235
L250.666 101.085
L251.147 83.8505
L251.628 76.2698
L251.748 76.7811
L251.988 78.9573
L252.109 78.2431
L252.59 72.2548
L252.71 74.408
L253.071 84.6078
L253.311 90.7614
L254.514 133.528
L254.995 141.631
L255.476 146.288
L256.077 149.109
L256.197 149.246
L256.558 150.973
L256.919 150.78
L257.159 150.905
L257.4 151.293
L257.52 151.241
L257.641 151.347
L257.881 152.68
L258.122 151.534
L258.482 151.644
L258.603 151.858
L258.843 151.741
L258.963 151.888
L259.324 151.884
L259.685 151.978
L259.805 152.126
L260.406 152.023
L260.647 152.432
L260.767 152.272
L260.887 151.907
L261.248 152.04
L261.489 151.904
L261.729 152.156
L262.09 152.086
L262.331 151.875
L262.451 151.884
L262.691 152.071
L262.812 151.97
L263.052 152.109
L263.172 152.109
L263.413 152.418
L263.653 152.064
L263.894 151.983
L264.134 151.85
L264.375 151.917
L264.616 151.843
L265.337 152.185
L265.578 152.031
L265.818 152.142
L266.419 152.265
L266.66 152.19
L266.9 152.282
L267.261 151.982
L267.381 152.209
L267.502 152.168
L267.622 151.936
L267.983 152.245
L268.223 152.28
L268.344 152.158
L268.584 152.255
L268.704 152.152
L268.945 152.3
L269.185 152.32
L269.426 152.575
L269.666 152.298
L269.907 152.261
L270.147 152.13
L270.628 152.351
L271.109 152.066
L271.591 152.176
L273.274 152.337
L273.394 152.395
L273.635 152.119
L273.755 152.265
L273.996 152.147
L274.236 152.32
L274.477 152.228
L275.078 152.263
L275.559 152.377
L275.92 152.099
L277.122 152.219
L277.724 152.172
L277.844 152.083
L278.084 152.304
L278.205 152.144
L278.445 152.271
L278.686 152.153
L279.047 152.353
L279.287 152.225
L279.407 152.199
L279.648 152.269
L280.61 152.28
L280.73 152.347
L281.091 152.15
L281.692 152.16
L282.053 152.225
L282.534 152.154
L282.775 152.389
L283.015 152.231
L283.496 152.219
L283.857 152.167
L284.338 152.227
L284.458 152.152
L284.699 152.349
L284.939 152.108
L285.3 152.287
L285.541 152.229
L285.661 152.312
L286.022 152.14
L286.262 152.184
L286.382 152.095
L286.623 152.203
L286.863 152.084
L286.984 152.191
L287.224 152.096
L287.705 152.214
L287.946 152.112
L288.306 152.223
L288.547 152.106
L288.788 152.263
L289.509 152.21
L289.75 152.307
L290.351 152.343
L290.591 152.199
L290.832 152.179
L291.072 152.198
L291.433 152.11
L291.553 152.222
L291.914 152.138
L292.155 152.293
L292.275 152.118
L292.636 152.22
L292.876 152.186
L293.237 152.192
L293.357 152.099
L293.718 152.169
L294.079 152.131
L294.44 152.094
L294.68 152.271
L294.8 152.103
L295.041 152.197
L295.281 152.164
L295.883 152.159
L296.123 152.248
L296.364 152.102
L296.484 152.312
L296.845 152.197
L297.085 152.22
L298.889 152.236
L298.889 152.236" style="fill:none;stroke:#000000;stroke-linecap:square;"/>
   </g>
   <g id="matplotlib.axis_3"/>
   <g id="matplotlib.axis_4"/>
   <g id="patch_8">
    <path d="
M205.448 72
L301.655 72" style="fill:none;stroke:#000000;"/>
   </g>
   <g id="patch_9">
    <path d="
M301.655 168.207
L301.655 72" style="fill:none;stroke:#000000;"/>
   </g>
   <g id="patch_10">
    <path d="
M205.448 168.207
L301.655 168.207" style="fill:none;stroke:#000000;"/>
   </g>
   <g id="patch_11">
    <path d="
M205.448 168.207
L205.448 72" style="fill:none;stroke:#000000;"/>
   </g>
   <g id="text_2">
    <!-- true:1.0, pred:2.0  -->
    <g transform="translate(201.055474138 53.562625)scale(0.12 -0.12)">
     <use xlink:href="#BitstreamVeraSans-Roman-74"/>
     <use x="39.208984375" xlink:href="#BitstreamVeraSans-Roman-72"/>
     <use x="80.322265625" xlink:href="#BitstreamVeraSans-Roman-75"/>
     <use x="143.701171875" xlink:href="#BitstreamVeraSans-Roman-65"/>
     <use x="205.224609375" xlink:href="#BitstreamVeraSans-Roman-3a"/>
     <use x="238.916015625" xlink:href="#BitstreamVeraSans-Roman-31"/>
     <use x="302.5390625" xlink:href="#BitstreamVeraSans-Roman-2e"/>
     <use x="334.326171875" xlink:href="#BitstreamVeraSans-Roman-30"/>
     <use x="397.94921875" xlink:href="#BitstreamVeraSans-Roman-2c"/>
     <use x="429.736328125" xlink:href="#BitstreamVeraSans-Roman-20"/>
     <use x="461.5234375" xlink:href="#BitstreamVeraSans-Roman-70"/>
     <use x="525.0" xlink:href="#BitstreamVeraSans-Roman-72"/>
     <use x="563.86328125" xlink:href="#BitstreamVeraSans-Roman-65"/>
     <use x="625.38671875" xlink:href="#BitstreamVeraSans-Roman-64"/>
     <use x="688.86328125" xlink:href="#BitstreamVeraSans-Roman-3a"/>
     <use x="722.5546875" xlink:href="#BitstreamVeraSans-Roman-32"/>
     <use x="786.177734375" xlink:href="#BitstreamVeraSans-Roman-2e"/>
     <use x="817.96484375" xlink:href="#BitstreamVeraSans-Roman-30"/>
     <use x="881.587890625" xlink:href="#BitstreamVeraSans-Roman-20"/>
    </g>
    <!--  omicas -->
    <defs>
     <path d="
M52 44.1875
Q55.375 50.25 60.0625 53.125
Q64.75 56 71.0938 56
Q79.6406 56 84.2812 50.0156
Q88.9219 44.0469 88.9219 33.0156
L88.9219 0
L79.8906 0
L79.8906 32.7188
Q79.8906 40.5781 77.0938 44.375
Q74.3125 48.1875 68.6094 48.1875
Q61.625 48.1875 57.5625 43.5469
Q53.5156 38.9219 53.5156 30.9062
L53.5156 0
L44.4844 0
L44.4844 32.7188
Q44.4844 40.625 41.7031 44.4062
Q38.9219 48.1875 33.1094 48.1875
Q26.2188 48.1875 22.1562 43.5312
Q18.1094 38.875 18.1094 30.9062
L18.1094 0
L9.07812 0
L9.07812 54.6875
L18.1094 54.6875
L18.1094 46.1875
Q21.1875 51.2188 25.4844 53.6094
Q29.7812 56 35.6875 56
Q41.6562 56 45.8281 52.9688
Q50 49.9531 52 44.1875" id="BitstreamVeraSans-Roman-6d"/>
     <path d="
M34.2812 27.4844
Q23.3906 27.4844 19.1875 25
Q14.9844 22.5156 14.9844 16.5
Q14.9844 11.7188 18.1406 8.90625
Q21.2969 6.10938 26.7031 6.10938
Q34.1875 6.10938 38.7031 11.4062
Q43.2188 16.7031 43.2188 25.4844
L43.2188 27.4844
z

M52.2031 31.2031
L52.2031 0
L43.2188 0
L43.2188 8.29688
Q40.1406 3.32812 35.5469 0.953125
Q30.9531 -1.42188 24.3125 -1.42188
Q15.9219 -1.42188 10.9531 3.29688
Q6 8.01562 6 15.9219
Q6 25.1406 12.1719 29.8281
Q18.3594 34.5156 30.6094 34.5156
L43.2188 34.5156
L43.2188 35.4062
Q43.2188 41.6094 39.1406 45
Q35.0625 48.3906 27.6875 48.3906
Q23 48.3906 18.5469 47.2656
Q14.1094 46.1406 10.0156 43.8906
L10.0156 52.2031
Q14.9375 54.1094 19.5781 55.0469
Q24.2188 56 28.6094 56
Q40.4844 56 46.3438 49.8438
Q52.2031 43.7031 52.2031 31.2031" id="BitstreamVeraSans-Roman-61"/>
     <path d="
M30.6094 48.3906
Q23.3906 48.3906 19.1875 42.75
Q14.9844 37.1094 14.9844 27.2969
Q14.9844 17.4844 19.1562 11.8438
Q23.3438 6.20312 30.6094 6.20312
Q37.7969 6.20312 41.9844 11.8594
Q46.1875 17.5312 46.1875 27.2969
Q46.1875 37.0156 41.9844 42.7031
Q37.7969 48.3906 30.6094 48.3906
M30.6094 56
Q42.3281 56 49.0156 48.375
Q55.7188 40.7656 55.7188 27.2969
Q55.7188 13.875 49.0156 6.21875
Q42.3281 -1.42188 30.6094 -1.42188
Q18.8438 -1.42188 12.1719 6.21875
Q5.51562 13.875 5.51562 27.2969
Q5.51562 40.7656 12.1719 48.375
Q18.8438 56 30.6094 56" id="BitstreamVeraSans-Roman-6f"/>
     <path d="
M9.42188 54.6875
L18.4062 54.6875
L18.4062 0
L9.42188 0
z

M9.42188 75.9844
L18.4062 75.9844
L18.4062 64.5938
L9.42188 64.5938
z
" id="BitstreamVeraSans-Roman-69"/>
    </defs>
    <g transform="translate(230.653286638 67.0)scale(0.12 -0.12)">
     <use xlink:href="#BitstreamVeraSans-Roman-20"/>
     <use x="31.787109375" xlink:href="#BitstreamVeraSans-Roman-6f"/>
     <use x="92.96875" xlink:href="#BitstreamVeraSans-Roman-6d"/>
     <use x="190.380859375" xlink:href="#BitstreamVeraSans-Roman-69"/>
     <use x="218.1640625" xlink:href="#BitstreamVeraSans-Roman-63"/>
     <use x="273.14453125" xlink:href="#BitstreamVeraSans-Roman-61"/>
     <use x="334.423828125" xlink:href="#BitstreamVeraSans-Roman-73"/>
    </g>
   </g>
  </g>
  <g id="axes_3">
   <g id="patch_12">
    <path d="
M320.897 168.207
L417.103 168.207
L417.103 72
L320.897 72
z
" style="fill:#ffffff;"/>
   </g>
   <g id="line2d_3">
    <path clip-path="url(#pe5b1fd4b54)" d="
M320.897 154.636
L321.017 154.71
L321.378 154.562
L321.498 154.748
L321.738 154.474
L321.859 154.312
L321.979 154.536
L322.099 154.454
L322.58 154.682
L322.7 154.401
L322.941 154.611
L323.061 154.744
L323.542 154.436
L323.663 154.505
L323.903 155.061
L324.144 154.755
L324.384 154.418
L324.985 154.533
L325.106 154.618
L325.346 155.03
L325.587 155.01
L326.068 154.538
L326.188 154.504
L326.308 154.883
L326.549 155.902
L326.669 155.717
L326.789 155.757
L326.909 155.544
L327.15 154.657
L327.391 154.962
L327.511 154.885
L327.751 154.337
L327.872 154.24
L328.593 154.901
L328.834 155.492
L329.074 154.55
L329.675 154.498
L329.796 154.385
L330.036 154.484
L330.397 155.576
L330.517 155.614
L330.638 155.482
L330.878 154.771
L331.119 154.51
L331.239 154.525
L331.359 154.708
L331.72 154.342
L331.96 154.833
L332.321 154.382
L332.562 154.371
L332.682 154.279
L332.802 154.007
L333.043 154.399
L333.524 154.112
L333.644 154.333
L333.884 155.081
L334.125 154.118
L334.486 154.022
L334.606 154.259
L334.847 155.17
L335.207 154.119
L335.328 154.182
L335.568 154.285
L335.809 154.077
L335.929 154.126
L336.29 155.284
L336.53 154.42
L336.65 154.319
L336.891 154.51
L337.011 154.702
L337.492 154.357
L337.853 154.413
L338.334 154.391
L338.575 154.411
L339.777 154.433
L340.018 154.723
L340.739 154.527
L341.461 154.429
L341.701 154.645
L341.822 154.533
L342.182 154.96
L342.543 154.419
L343.385 154.386
L343.866 154.671
L344.227 153.719
L344.708 153.564
L344.828 153.857
L345.069 154.991
L345.309 153.94
L345.429 154.023
L345.67 154.592
L345.91 155.967
L346.031 155.619
L346.271 154.225
L346.391 153.958
L346.632 154.048
L346.872 153.62
L347.113 154.092
L347.233 154.373
L347.714 153.933
L348.676 154.56
L349.037 154.756
L349.398 155.306
L349.638 154.577
L349.999 154.476
L350.119 154.594
L350.48 154.482
L351.202 154.513
L351.563 154.354
L351.683 154.496
L351.803 154.387
L351.923 154.5
L352.164 154.371
L352.525 154.652
L352.765 154.46
L353.006 154.443
L353.126 154.658
L353.366 155.275
L353.607 154.46
L353.968 154.545
L354.088 154.936
L354.208 154.883
L354.449 154.477
L355.291 154.534
L355.411 154.58
L355.772 154.355
L356.012 154.404
L356.373 154.258
L356.734 154.433
L356.974 154.265
L357.215 154.302
L357.455 154.252
L357.575 154.34
L357.696 154.275
L357.936 154.731
L358.177 154.453
L358.417 154.383
L358.778 155.531
L359.019 154.35
L359.259 154.203
L359.62 154.409
L359.74 154.372
L359.981 154.09
L360.582 154.558
L360.702 154.41
L360.943 155.044
L361.063 154.753
L361.303 153.919
L361.424 153.811
L361.664 153.816
L361.905 153.552
L362.145 153.499
L362.266 153.402
L362.626 153.646
L362.747 154.254
L362.867 154.218
L363.107 152.803
L363.348 152.878
L364.19 149.874
L364.55 147.339
L365.031 142.645
L365.633 129.531
L366.114 110.474
L366.354 101.439
L366.475 100.204
L366.595 100.309
L366.715 99.8369
L366.835 97.0621
L367.196 84.8535
L367.316 85.5719
L367.797 91.4002
L367.918 92.0317
L368.158 91.5252
L368.278 91.1621
L368.399 91.6731
L369.481 125.249
L369.962 137.313
L370.563 145.665
L371.165 150.216
L371.525 151.618
L371.766 152.447
L372.006 153.154
L372.247 153
L372.488 153.18
L372.728 153.414
L372.848 153.44
L372.969 153.723
L373.209 154.785
L373.329 154.602
L373.57 153.847
L375.013 154.178
L375.133 154.128
L375.374 154.305
L376.095 154.571
L376.456 154.268
L376.937 154.402
L377.057 154.37
L377.298 154.554
L377.779 154.041
L378.26 154.413
L378.38 154.364
L378.741 154.666
L379.102 154.271
L379.463 154.258
L380.184 154.241
L380.304 154.304
L380.545 154.106
L380.665 154.183
L380.906 154.495
L381.026 154.382
L381.266 154.446
L381.627 154.39
L381.988 154.508
L382.228 154.491
L382.349 154.614
L382.589 154.434
L382.83 154.326
L383.792 154.539
L383.912 154.441
L384.153 154.562
L384.513 154.501
L384.754 154.837
L384.994 154.536
L385.235 154.502
L385.355 154.412
L385.716 154.48
L385.836 154.502
L386.077 154.624
L386.197 154.479
L386.317 154.552
L386.678 154.451
L386.798 154.536
L387.039 154.4
L387.4 154.482
L388.241 154.474
L388.362 154.435
L388.602 154.515
L388.722 154.412
L388.843 154.605
L389.324 154.383
L389.564 154.585
L389.805 154.508
L390.045 154.497
L390.526 154.519
L390.647 154.449
L391.007 154.576
L391.248 154.545
L391.368 154.474
L391.609 154.592
L392.09 154.406
L392.33 154.46
L392.691 154.498
L392.931 154.467
L393.052 154.582
L393.533 154.45
L393.773 154.596
L394.735 154.52
L394.976 154.634
L395.216 154.543
L395.457 154.619
L395.938 154.459
L396.299 154.517
L397.501 154.564
L397.622 154.396
L397.862 154.579
L398.103 154.668
L398.463 154.492
L398.944 154.426
L399.185 154.505
L399.305 154.38
L399.546 154.479
L399.666 154.422
L399.786 154.513
L400.027 154.462
L400.748 154.58
L400.869 154.47
L400.989 154.514
L401.109 154.44
L401.47 154.568
L401.71 154.484
L401.951 154.514
L402.672 154.475
L402.793 154.493
L402.913 154.636
L403.153 154.377
L403.394 154.446
L403.634 154.459
L403.875 154.479
L404.116 154.534
L404.236 154.588
L404.476 154.343
L404.597 154.353
L404.837 154.571
L405.318 154.519
L405.679 154.574
L406.04 154.355
L406.28 154.591
L406.521 154.451
L407.363 154.513
L407.844 154.572
L408.325 154.502
L408.445 154.534
L408.685 154.371
L408.806 154.461
L408.926 154.348
L409.166 154.612
L409.527 154.508
L410.128 154.494
L410.369 154.36
L410.489 154.498
L410.73 154.476
L410.97 154.612
L411.451 154.421
L411.572 154.372
L411.812 154.493
L413.135 154.445
L413.496 154.663
L413.736 154.458
L413.856 154.563
L413.977 154.514
L414.217 154.676
L414.338 154.477
L414.338 154.477" style="fill:none;stroke:#000000;stroke-linecap:square;"/>
   </g>
   <g id="matplotlib.axis_5"/>
   <g id="matplotlib.axis_6"/>
   <g id="patch_13">
    <path d="
M320.897 72
L417.103 72" style="fill:none;stroke:#000000;"/>
   </g>
   <g id="patch_14">
    <path d="
M417.103 168.207
L417.103 72" style="fill:none;stroke:#000000;"/>
   </g>
   <g id="patch_15">
    <path d="
M320.897 168.207
L417.103 168.207" style="fill:none;stroke:#000000;"/>
   </g>
   <g id="patch_16">
    <path d="
M320.897 168.207
L320.897 72" style="fill:none;stroke:#000000;"/>
   </g>
   <g id="text_3">
    <!-- true:1.0, pred:2.0  -->
    <g transform="translate(316.50375 53.562625)scale(0.12 -0.12)">
     <use xlink:href="#BitstreamVeraSans-Roman-74"/>
     <use x="39.208984375" xlink:href="#BitstreamVeraSans-Roman-72"/>
     <use x="80.322265625" xlink:href="#BitstreamVeraSans-Roman-75"/>
     <use x="143.701171875" xlink:href="#BitstreamVeraSans-Roman-65"/>
     <use x="205.224609375" xlink:href="#BitstreamVeraSans-Roman-3a"/>
     <use x="238.916015625" xlink:href="#BitstreamVeraSans-Roman-31"/>
     <use x="302.5390625" xlink:href="#BitstreamVeraSans-Roman-2e"/>
     <use x="334.326171875" xlink:href="#BitstreamVeraSans-Roman-30"/>
     <use x="397.94921875" xlink:href="#BitstreamVeraSans-Roman-2c"/>
     <use x="429.736328125" xlink:href="#BitstreamVeraSans-Roman-20"/>
     <use x="461.5234375" xlink:href="#BitstreamVeraSans-Roman-70"/>
     <use x="525.0" xlink:href="#BitstreamVeraSans-Roman-72"/>
     <use x="563.86328125" xlink:href="#BitstreamVeraSans-Roman-65"/>
     <use x="625.38671875" xlink:href="#BitstreamVeraSans-Roman-64"/>
     <use x="688.86328125" xlink:href="#BitstreamVeraSans-Roman-3a"/>
     <use x="722.5546875" xlink:href="#BitstreamVeraSans-Roman-32"/>
     <use x="786.177734375" xlink:href="#BitstreamVeraSans-Roman-2e"/>
     <use x="817.96484375" xlink:href="#BitstreamVeraSans-Roman-30"/>
     <use x="881.587890625" xlink:href="#BitstreamVeraSans-Roman-20"/>
    </g>
    <!--  omicas -->
    <g transform="translate(346.1015625 67.0)scale(0.12 -0.12)">
     <use xlink:href="#BitstreamVeraSans-Roman-20"/>
     <use x="31.787109375" xlink:href="#BitstreamVeraSans-Roman-6f"/>
     <use x="92.96875" xlink:href="#BitstreamVeraSans-Roman-6d"/>
     <use x="190.380859375" xlink:href="#BitstreamVeraSans-Roman-69"/>
     <use x="218.1640625" xlink:href="#BitstreamVeraSans-Roman-63"/>
     <use x="273.14453125" xlink:href="#BitstreamVeraSans-Roman-61"/>
     <use x="334.423828125" xlink:href="#BitstreamVeraSans-Roman-73"/>
    </g>
   </g>
  </g>
  <g id="axes_4">
   <g id="patch_17">
    <path d="
M436.345 168.207
L532.552 168.207
L532.552 72
L436.345 72
z
" style="fill:#ffffff;"/>
   </g>
   <g id="line2d_4">
    <path clip-path="url(#p7fc8e9000b)" d="
M436.345 87.7989
L436.465 92.5936
L436.585 97.0871
L436.826 92.4363
L437.066 98.918
L437.307 88.0593
L437.668 89.9816
L437.908 98.8432
L438.028 97.8099
L438.269 89.9207
L438.389 90.0572
L438.63 99.7099
L439.111 88.1242
L439.472 107.3
L439.592 105.771
L439.953 88.1295
L440.193 89.7733
L440.434 86.3309
L440.554 87.0285
L440.794 106.188
L440.915 106.032
L441.035 104.322
L441.155 105.365
L441.516 90.4088
L441.636 90.6841
L441.756 90.2784
L442.117 128.495
L442.238 123.255
L442.358 127.595
L442.719 94.1447
L442.959 101.972
L443.079 101.186
L443.44 86.717
L443.56 86.118
L443.681 86.9186
L444.402 117.568
L444.643 92.4775
L444.763 95.6115
L445.003 106.203
L445.124 105.853
L445.484 86.7995
L445.605 89.6984
L445.966 121.932
L446.086 124.29
L446.206 119.381
L446.447 97.721
L446.687 91.6352
L446.807 92.9006
L446.928 97.4554
L447.048 94.8117
L447.168 89.5236
L447.288 90.2434
L447.529 104.465
L447.769 92.7055
L447.89 92.8334
L448.01 94.2641
L448.13 93.1442
L448.371 88.3165
L448.611 98.5765
L448.972 86.6707
L449.092 88.0593
L449.213 98.9288
L449.333 120.094
L449.453 119.761
L449.694 90.0814
L449.934 86.3535
L450.054 87.1231
L450.175 93.106
L450.415 120.214
L450.896 87.9439
L451.137 93.1366
L451.377 88.3388
L451.497 90.2999
L451.738 120.818
L451.858 114.042
L452.099 87.3727
L452.219 85.9398
L452.339 88.3879
L452.58 100.946
L453.061 85.9296
L453.181 85.855
L453.662 87.2814
L453.782 87.3065
L454.023 86.1286
L454.504 89.3212
L454.744 86.7089
L454.985 89.8225
L455.105 88.7282
L455.225 89.0663
L455.586 94.6128
L455.706 95.1886
L456.067 85.1375
L456.548 88.9422
L456.789 85.8538
L457.029 84.7448
L457.39 88.4343
L457.51 88.9674
L457.751 103.072
L458.112 86.3077
L458.232 85.9049
L458.352 86.0851
L458.472 85.4994
L458.593 85.9065
L458.713 85.7657
L458.953 84.7264
L459.074 86.2896
L459.434 103.911
L459.795 86.0458
L459.916 86.7862
L460.036 89.5784
L460.156 89.5833
L460.276 91.8742
L460.637 123.232
L460.878 93.4301
L460.998 96.3307
L461.238 107.304
L461.479 149.918
L461.96 94.325
L462.2 99.5791
L462.441 91.0217
L462.561 96.0731
L462.802 115.29
L463.283 86.7351
L463.403 86.7447
L463.644 85.6101
L463.884 89.0045
L464.125 92.3044
L464.365 88.1568
L464.485 89.112
L464.606 94.8829
L464.846 116.275
L465.327 86.2461
L465.447 86.0335
L465.568 86.1129
L465.808 88.4765
L466.169 85.0322
L466.289 85.4783
L466.65 88.726
L466.891 86.2164
L467.011 85.1526
L467.251 86.3053
L467.372 86.0615
L467.732 86.3904
L467.853 87.5495
L468.093 92.7128
L468.334 86.3781
L468.454 86.4566
L468.574 88.337
L468.815 112.677
L468.935 110.5
L469.175 87.8729
L469.296 86.4257
L469.416 88.5068
L469.656 102.522
L469.777 99.668
L470.017 91.8474
L470.138 90.6636
L470.378 86.7587
L470.498 86.6556
L470.619 87.2928
L470.739 89.251
L470.859 94.5175
L470.979 94.6892
L471.34 85.8256
L471.581 85.1599
L471.821 86.4189
L471.941 85.8782
L472.062 85.9324
L472.182 87.2627
L472.422 85.5291
L472.663 88.1973
L472.783 87.5263
L473.024 85.5201
L473.264 87.9449
L473.505 99.849
L473.986 90.0386
L474.226 122.118
L474.347 119.356
L474.587 89.8684
L474.707 88.9896
L474.828 89.269
L474.948 90.5411
L475.188 95.8368
L475.429 88.4546
L475.549 87.4448
L475.79 90.2254
L476.03 104.729
L476.271 100.782
L476.511 118.259
L476.872 92.8329
L476.992 90.0908
L477.353 91.2173
L477.473 91.2591
L477.594 91.6541
L477.714 91.2755
L477.834 91.439
L478.075 98.3517
L478.315 125.029
L478.435 122.46
L478.676 96.7517
L478.916 105.082
L479.277 95.2251
L479.638 92.4832
L479.878 90.0525
L479.999 90.1461
L480.119 89.0652
L480.239 90.1192
L480.48 106.693
L480.72 92.3013
L480.841 92.3812
L480.961 93.8199
L481.442 78.9147
L481.682 81.8026
L481.803 84.4398
L482.284 115.422
L482.885 155.619
L483.005 152.514
L483.606 114.182
L483.727 116.38
L484.208 77.5839
L484.448 75.7725
L484.689 77.3917
L484.929 83.065
L485.05 82.982
L485.17 83.2081
L485.41 87.2081
L485.651 88.9182
L486.012 99.1707
L486.252 93.3499
L486.372 91.9983
L486.493 92.1847
L486.853 97.9572
L487.094 94.9931
L487.214 96.2012
L487.455 116.492
L487.575 111.878
L487.816 94.0253
L487.936 93.2069
L488.176 94.9009
L488.297 94.2002
L488.417 92.0134
L488.537 95.9887
L488.778 125.688
L489.138 92.1378
L489.259 91.1421
L489.619 93.4913
L489.98 109.434
L490.1 106.293
L490.461 91.558
L490.581 89.9225
L490.702 90.3953
L490.822 90.1196
L490.942 89.4655
L491.063 89.4631
L491.303 89.143
L491.544 99.7399
L491.664 97.0658
L491.784 91.361
L491.904 91.0397
L492.265 104.484
L492.626 94.413
L492.746 95.9385
L492.866 94.8012
L493.107 87.4588
L493.227 86.8536
L493.347 86.9405
L493.708 89.7738
L493.828 91.1106
L493.949 90.3813
L494.069 93.0199
L494.309 104.387
L494.67 85.9172
L494.911 87.3845
L495.031 87.8845
L495.151 89.1237
L495.512 86.9155
L495.753 85.0011
L495.873 85.1478
L495.993 85.5357
L496.234 84.9402
L496.474 86.2427
L496.594 85.1658
L496.835 85.1652
L497.196 86.8182
L497.316 88.4206
L497.436 87.7568
L497.677 85.9351
L497.917 90.9104
L498.038 89.6329
L498.278 85.0362
L498.398 83.9693
L498.759 86.7085
L498.879 87.3437
L499 86.6537
L499.12 87.0558
L499.601 85.5894
L499.721 86.0162
L499.962 87.1136
L500.202 94.6603
L500.322 94.1542
L500.563 86.3646
L501.164 85.2375
L501.284 86.6293
L501.525 92.0851
L501.886 86.7068
L502.126 85.9861
L502.247 85.8254
L502.367 86.0268
L502.487 84.7545
L502.968 86.7712
L503.088 87.7953
L503.209 87.7223
L503.569 84.6853
L503.81 86.6534
L504.05 85.5183
L504.171 85.2894
L504.291 86.3932
L504.411 85.2762
L504.531 86.0872
L504.772 85.3636
L505.133 91.6223
L505.253 90.7451
L505.734 85.4968
L505.854 86.2278
L505.975 86.1403
L506.095 87.5286
L506.215 87.5822
L506.456 90.5593
L506.696 86.0476
L506.816 85.9129
L506.937 86.0833
L507.057 86.0557
L507.177 86.984
L507.297 86.5576
L507.418 85.4287
L507.778 86.7891
L508.019 87.8334
L508.259 86.4283
L508.38 86.3732
L508.5 87.0724
L508.861 86.5862
L508.981 86.9408
L509.222 86.1498
L509.342 86.3143
L509.462 86.9305
L509.582 86.4163
L509.703 86.5565
L509.823 87.1462
L509.943 86.8941
L510.184 85.7923
L510.424 85.7319
L510.665 87.8149
L510.905 86.3739
L511.025 86.5613
L511.146 87.1157
L511.266 87.1151
L511.386 86.3562
L511.506 86.3752
L511.627 85.9749
L511.747 86.5673
L511.867 86.3789
L511.988 86.6092
L512.108 86.1951
L512.228 86.2873
L512.469 85.7991
L512.709 86.3631
L512.95 89.5235
L513.31 87.1987
L513.551 86.176
L513.791 87.5445
L513.912 87.3548
L514.152 88.6152
L514.272 88.4776
L514.513 85.302
L514.753 86.5173
L514.994 85.6147
L515.114 84.6812
L515.234 86.0417
L515.355 85.3133
L515.475 85.5253
L515.716 87.4061
L515.836 87.1348
L515.956 86.44
L516.076 86.9659
L516.197 86.4886
L516.317 85.1347
L516.557 85.5191
L516.798 86.1359
L517.038 85.3615
L517.159 85.4219
L517.279 84.179
L517.64 85.4358
L517.76 85.3622
L517.88 85.0267
L518 86.3522
L518.121 85.6549
L518.241 85.7939
L518.361 86.5129
L518.602 85.5876
L518.722 84.9922
L518.842 86.4602
L518.962 85.909
L519.083 86.4608
L519.444 96.486
L519.564 96.8212
L520.045 85.7533
L520.165 85.7874
L520.406 87.4859
L520.646 86.7058
L520.766 86.9969
L520.887 85.543
L521.127 86.6283
L521.247 85.096
L521.368 85.2054
L521.728 84.1816
L521.849 85.3662
L521.969 84.9262
L522.089 84.9137
L522.33 85.5976
L522.45 85.4632
L522.57 85.8365
L522.811 84.9569
L523.051 86.1099
L523.172 85.3301
L523.292 85.6151
L523.412 87.2435
L523.532 85.3499
L523.653 85.418
L523.893 84.2089
L524.013 84.3878
L524.374 85.7651
L524.494 85.4345
L524.735 85.9336
L524.855 85.7351
L524.975 85.7647
L525.216 85.5184
L525.336 85.4399
L525.456 84.5442
L525.577 84.6057
L525.817 86.2556
L526.058 85.0706
L526.178 85.2846
L526.298 85.093
L526.419 85.4036
L526.659 84.7087
L526.9 86.0001
L527.26 84.5437
L527.501 85.0981
L527.741 84.1613
L527.982 85.5175
L528.222 84.85
L528.463 86.4214
L528.583 85.9419
L528.703 86.2126
L528.824 85.9901
L528.944 85.2978
L529.064 85.4043
L529.305 84.647
L529.545 86.4244
L529.786 85.216
L529.786 85.216" style="fill:none;stroke:#000000;stroke-linecap:square;"/>
   </g>
   <g id="matplotlib.axis_7"/>
   <g id="matplotlib.axis_8"/>
   <g id="patch_18">
    <path d="
M436.345 72
L532.552 72" style="fill:none;stroke:#000000;"/>
   </g>
   <g id="patch_19">
    <path d="
M532.552 168.207
L532.552 72" style="fill:none;stroke:#000000;"/>
   </g>
   <g id="patch_20">
    <path d="
M436.345 168.207
L532.552 168.207" style="fill:none;stroke:#000000;"/>
   </g>
   <g id="patch_21">
    <path d="
M436.345 168.207
L436.345 72" style="fill:none;stroke:#000000;"/>
   </g>
   <g id="text_4">
    <!-- true:3.0, pred:4.0  -->
    <defs>
     <path d="
M40.5781 39.3125
Q47.6562 37.7969 51.625 33
Q55.6094 28.2188 55.6094 21.1875
Q55.6094 10.4062 48.1875 4.48438
Q40.7656 -1.42188 27.0938 -1.42188
Q22.5156 -1.42188 17.6562 -0.515625
Q12.7969 0.390625 7.625 2.20312
L7.625 11.7188
Q11.7188 9.32812 16.5938 8.10938
Q21.4844 6.89062 26.8125 6.89062
Q36.0781 6.89062 40.9375 10.5469
Q45.7969 14.2031 45.7969 21.1875
Q45.7969 27.6406 41.2812 31.2656
Q36.7656 34.9062 28.7188 34.9062
L20.2188 34.9062
L20.2188 43.0156
L29.1094 43.0156
Q36.375 43.0156 40.2344 45.9219
Q44.0938 48.8281 44.0938 54.2969
Q44.0938 59.9062 40.1094 62.9062
Q36.1406 65.9219 28.7188 65.9219
Q24.6562 65.9219 20.0156 65.0312
Q15.375 64.1562 9.8125 62.3125
L9.8125 71.0938
Q15.4375 72.6562 20.3438 73.4375
Q25.25 74.2188 29.5938 74.2188
Q40.8281 74.2188 47.3594 69.1094
Q53.9062 64.0156 53.9062 55.3281
Q53.9062 49.2656 50.4375 45.0938
Q46.9688 40.9219 40.5781 39.3125" id="BitstreamVeraSans-Roman-33"/>
     <path d="
M37.7969 64.3125
L12.8906 25.3906
L37.7969 25.3906
z

M35.2031 72.9062
L47.6094 72.9062
L47.6094 25.3906
L58.0156 25.3906
L58.0156 17.1875
L47.6094 17.1875
L47.6094 0
L37.7969 0
L37.7969 17.1875
L4.89062 17.1875
L4.89062 26.7031
z
" id="BitstreamVeraSans-Roman-34"/>
    </defs>
    <g transform="translate(431.952025862 53.562625)scale(0.12 -0.12)">
     <use xlink:href="#BitstreamVeraSans-Roman-74"/>
     <use x="39.208984375" xlink:href="#BitstreamVeraSans-Roman-72"/>
     <use x="80.322265625" xlink:href="#BitstreamVeraSans-Roman-75"/>
     <use x="143.701171875" xlink:href="#BitstreamVeraSans-Roman-65"/>
     <use x="205.224609375" xlink:href="#BitstreamVeraSans-Roman-3a"/>
     <use x="238.916015625" xlink:href="#BitstreamVeraSans-Roman-33"/>
     <use x="302.5390625" xlink:href="#BitstreamVeraSans-Roman-2e"/>
     <use x="334.326171875" xlink:href="#BitstreamVeraSans-Roman-30"/>
     <use x="397.94921875" xlink:href="#BitstreamVeraSans-Roman-2c"/>
     <use x="429.736328125" xlink:href="#BitstreamVeraSans-Roman-20"/>
     <use x="461.5234375" xlink:href="#BitstreamVeraSans-Roman-70"/>
     <use x="525.0" xlink:href="#BitstreamVeraSans-Roman-72"/>
     <use x="563.86328125" xlink:href="#BitstreamVeraSans-Roman-65"/>
     <use x="625.38671875" xlink:href="#BitstreamVeraSans-Roman-64"/>
     <use x="688.86328125" xlink:href="#BitstreamVeraSans-Roman-3a"/>
     <use x="722.5546875" xlink:href="#BitstreamVeraSans-Roman-34"/>
     <use x="786.177734375" xlink:href="#BitstreamVeraSans-Roman-2e"/>
     <use x="817.96484375" xlink:href="#BitstreamVeraSans-Roman-30"/>
     <use x="881.587890625" xlink:href="#BitstreamVeraSans-Roman-20"/>
    </g>
    <!--  omicas -->
    <g transform="translate(461.549838362 67.0)scale(0.12 -0.12)">
     <use xlink:href="#BitstreamVeraSans-Roman-20"/>
     <use x="31.787109375" xlink:href="#BitstreamVeraSans-Roman-6f"/>
     <use x="92.96875" xlink:href="#BitstreamVeraSans-Roman-6d"/>
     <use x="190.380859375" xlink:href="#BitstreamVeraSans-Roman-69"/>
     <use x="218.1640625" xlink:href="#BitstreamVeraSans-Roman-63"/>
     <use x="273.14453125" xlink:href="#BitstreamVeraSans-Roman-61"/>
     <use x="334.423828125" xlink:href="#BitstreamVeraSans-Roman-73"/>
    </g>
   </g>
  </g>
  <g id="axes_5">
   <g id="patch_22">
    <path d="
M551.793 168.207
L648 168.207
L648 72
L551.793 72
z
" style="fill:#ffffff;"/>
   </g>
   <g id="line2d_5">
    <path clip-path="url(#pf3fe77fffd)" d="
M551.793 83.5026
L551.913 85.6199
L552.034 86.8839
L552.154 84.761
L552.274 85.0343
L552.394 84.9726
L552.515 83.6112
L552.635 84.7386
L552.755 87.0891
L552.875 84.9361
L552.996 80.0491
L553.116 81.3884
L553.236 84.7807
L553.356 84.8975
L553.477 85.8562
L553.597 84.5381
L553.838 86.2257
L554.078 82.919
L554.319 88.0385
L554.439 87.1149
L554.8 82.4537
L554.92 83.6742
L555.16 90.5734
L555.281 89.9076
L555.882 81.1209
L556.122 79.924
L556.243 82.044
L556.483 90.5075
L556.603 91.9441
L556.724 91.4175
L557.084 83.2396
L557.205 82.8011
L557.445 85.648
L557.566 90.8148
L557.806 103.253
L557.926 100.457
L558.047 101.511
L558.287 84.8472
L558.407 84.9019
L558.528 89.4262
L558.648 89.6368
L558.768 89.3214
L558.888 88.4334
L559.249 82.9691
L559.61 91.855
L559.73 90.4347
L559.85 92.7454
L560.091 98.3311
L560.331 85.8589
L560.452 84.3414
L560.572 84.5066
L560.692 87.0362
L560.813 86.4405
L561.053 84.4058
L561.173 83.8414
L561.294 86.7156
L561.534 101.135
L561.654 98.2932
L561.775 98.7175
L561.895 97.4184
L562.135 85.4337
L562.256 84.8507
L562.496 87.9024
L562.616 89.4112
L562.737 88.6706
L562.857 85.2315
L562.977 86.0492
L563.097 89.6621
L563.218 88.9335
L563.338 85.7104
L563.578 86.9071
L563.699 85.1904
L563.939 85.4465
L564.059 83.5414
L564.42 89.3697
L564.661 82.4739
L564.781 83.7506
L565.022 98.2896
L565.142 98.1616
L565.382 87.4334
L565.503 88.259
L565.743 83.0206
L566.104 98.3052
L566.224 96.0085
L566.465 84.8582
L566.585 86.9608
L566.705 84.295
L566.946 86.9575
L567.066 81.9686
L567.186 83.7201
L567.427 102.721
L567.788 86.7983
L567.908 84.689
L568.148 87.4156
L568.269 89.2286
L568.509 84.2771
L568.629 85.5851
L568.87 83.9649
L568.99 84.5427
L569.231 80.793
L569.351 83.2686
L569.471 83.3861
L569.591 82.2397
L569.712 83.9421
L569.832 83.9082
L569.952 84.333
L570.072 88.3552
L570.193 88.3475
L570.553 81.9342
L570.674 82.9251
L570.794 82.6353
L571.034 85.4027
L571.155 85.1126
L571.275 88.1238
L571.516 85.6514
L571.756 81.7877
L571.876 83.4606
L571.997 83.259
L572.117 82.0581
L572.357 84.5146
L572.478 84.521
L572.598 84.9531
L572.718 86.4429
L572.959 83.4714
L573.079 84.3921
L573.199 86.5004
L573.44 93.6791
L573.8 84.0465
L573.921 83.9057
L574.041 81.9451
L574.161 82.1613
L574.402 85.0992
L574.522 84.8327
L574.642 83.221
L574.883 87.9304
L575.123 91.3999
L575.364 86.107
L575.604 82.9172
L575.725 83.1142
L575.845 84.5757
L576.085 91.9029
L576.326 102.148
L576.566 86.6734
L576.927 99.3021
L577.168 112.581
L577.288 107.746
L577.528 91.454
L577.769 88.7751
L577.889 90.4005
L578.13 84.4464
L578.491 97.9526
L578.851 84.8952
L578.972 88.8062
L579.092 87.4918
L579.212 82.7497
L579.332 83.0445
L579.453 82.7989
L579.693 88.3178
L579.934 85.0453
L580.054 84.5682
L580.174 85.0543
L580.294 86.6998
L580.535 97.2433
L581.016 85.0577
L581.136 85.9709
L581.377 81.5645
L581.497 88.3235
L581.617 87.4336
L581.978 82.7064
L582.098 86.9463
L582.219 86.9304
L582.339 86.4664
L582.579 83.537
L582.7 88.0113
L582.82 86.8144
L583.06 83.5422
L583.181 83.809
L583.421 88.6641
L583.541 89.3295
L583.662 88.2344
L583.782 89.4223
L584.022 87.4979
L584.143 89.0462
L584.263 88.1119
L584.503 99.1189
L584.624 95.6087
L584.864 87.3138
L585.105 85.9671
L585.345 94.9384
L585.466 93.3729
L585.706 88.1059
L585.826 88.8416
L586.067 87.5648
L586.307 90.2783
L586.428 90.6862
L586.548 93.8197
L586.668 93.3848
L586.788 90.9202
L586.909 91.3934
L587.149 86.3979
L587.51 93.1287
L587.75 89.7871
L587.871 91.6313
L587.991 90.5101
L588.111 90.4424
L588.352 91.7858
L588.592 90.2637
L588.833 93.8258
L588.953 92.0376
L589.073 93.7371
L589.194 99.2334
L589.434 93.5265
L589.675 99.1955
L589.915 110.917
L590.035 110.843
L590.276 97.8279
L590.396 97.9477
L590.516 97.1836
L590.877 100.309
L590.997 101.8
L591.238 98.178
L591.478 102.891
L591.719 109.405
L591.959 105.894
L592.2 114.965
L592.561 102.157
L592.801 108.288
L592.922 108.166
L593.162 106.778
L593.282 107.497
L593.403 107.064
L593.523 108.947
L594.004 125.901
L594.244 118.794
L594.725 125.103
L594.846 123.05
L594.966 125.692
L595.206 123.612
L595.327 124.216
L595.567 126.182
L595.688 125.209
L595.808 125.527
L595.928 126.207
L596.169 130.644
L596.289 128.432
L596.409 123.183
L596.529 123.139
L596.65 125.824
L597.01 119.559
L597.131 119.407
L597.371 122.458
L597.491 121.661
L598.333 151.357
L598.453 152.576
L598.694 159.627
L598.934 151.605
L599.175 146.125
L599.295 143.514
L599.416 144.092
L599.897 121.649
L600.137 119.032
L600.378 120.909
L600.498 119.44
L600.738 124.718
L600.859 124.847
L600.979 125.15
L601.099 124.521
L601.219 125.259
L601.34 125.237
L601.46 126.473
L601.58 129.649
L601.7 128.433
L602.061 120.934
L602.181 120.655
L602.302 121.96
L602.422 118.973
L602.663 119.984
L602.903 118.303
L603.023 118.865
L603.144 122.697
L603.625 111.101
L603.865 113.117
L603.985 112.581
L604.106 108.465
L604.226 108.791
L604.346 118.49
L604.466 119.059
L604.707 105.932
L605.068 100.807
L605.188 101.783
L605.308 101.409
L605.428 98.6053
L605.669 100.562
L605.909 98.6889
L606.27 95.4345
L606.391 96.0256
L606.511 97.978
L606.751 92.4167
L606.992 96.8129
L607.112 99.4986
L607.232 99.1274
L607.593 92.6333
L607.954 94.9208
L608.194 90.2507
L608.435 96.8581
L608.675 93.4095
L608.796 92.651
L608.916 90.4961
L609.036 90.4518
L609.397 95.2298
L609.517 90.8571
L609.638 90.9577
L609.998 97.137
L610.239 90.7089
L610.359 89.3547
L610.479 86.0927
L610.6 87.4372
L610.72 90.336
L610.96 88.819
L611.081 86.1488
L611.201 86.1006
L611.441 89.8308
L611.682 86.682
L611.922 91.88
L612.163 88.9557
L612.283 88.3687
L612.403 85.0962
L612.884 91.0479
L613.005 89.6917
L613.125 86.9144
L613.245 87.936
L613.366 87.5386
L613.486 85.992
L613.606 87.8089
L613.726 87.3014
L613.847 86.2921
L613.967 86.3576
L614.087 87.1
L614.207 88.9869
L614.328 88.9733
L614.448 88.1234
L614.568 85.5747
L614.688 86.0684
L614.809 87.4274
L614.929 85.4331
L615.049 86.0453
L615.169 88.8039
L615.29 88.0175
L615.53 83.7541
L615.891 91.0467
L616.372 86.3244
L616.492 87.8901
L616.613 84.7673
L616.853 87.7058
L617.094 84.5558
L617.334 87.0719
L617.454 84.2518
L617.575 85.7547
L617.695 85.5161
L617.815 84.5516
L618.056 87.6626
L618.176 89.0348
L618.296 88.8844
L618.416 83.79
L618.657 86.2131
L618.897 83.1878
L619.018 83.3879
L619.138 87.0485
L619.258 86.3591
L619.378 84.7412
L619.499 86.148
L619.619 85.7955
L619.739 86.0883
L619.859 87.603
L620.1 81.8008
L620.341 87.94
L620.461 85.595
L620.581 86.2265
L620.822 81.7548
L620.942 84.1409
L621.062 82.7619
L621.182 82.8625
L621.423 87.6669
L621.543 83.6065
L621.784 86.4471
L621.904 84.7334
L622.024 85.8095
L622.144 89.3502
L622.265 87.265
L622.505 93.5938
L622.625 86.6791
L622.746 89.0152
L622.866 88.7837
L622.986 84.2956
L623.106 84.7288
L623.227 84.2656
L623.347 82.5213
L623.588 84.9769
L623.708 84.8679
L623.828 85.5782
L623.948 87.6167
L624.189 84.0112
L624.309 87.9756
L624.55 85.1011
L624.67 85.3942
L624.79 82.7164
L624.91 83.1844
L625.031 86.2819
L625.271 83.0559
L625.391 85.4595
L625.512 84.8682
L625.632 82.9443
L625.752 83.3549
L625.872 83.2046
L626.113 86.0137
L626.233 84.8609
L626.353 82.4469
L626.594 86.3918
L626.714 86.8742
L627.075 84.2925
L627.195 83.8526
L627.316 83.9249
L627.556 85.2189
L627.676 82.5724
L627.917 85.4873
L628.037 85.291
L628.278 83.5968
L628.398 83.8312
L628.518 83.6697
L628.638 85.3589
L628.759 83.7784
L628.879 84.0685
L628.999 83.8674
L629.24 85.5701
L629.36 83.8475
L629.48 85.2054
L629.6 82.6938
L629.841 86.6043
L630.081 80.9097
L630.442 87.1582
L630.683 84.04
L630.923 81.9367
L631.044 82.35
L631.284 85.9896
L631.404 86.2745
L631.525 87.5026
L631.645 85.8782
L631.765 86.059
L631.885 86.5286
L632.006 85.2877
L632.126 86.4087
L632.246 85.8893
L632.366 84.3114
L632.487 86.469
L632.607 85.8793
L632.727 86.2083
L632.968 83.9745
L633.088 83.4942
L633.208 81.6847
L633.449 85.4841
L633.569 86.1015
L633.689 85.6865
L633.809 84.4402
L633.93 89.2908
L634.17 82.0016
L634.291 82.0283
L634.531 86.6799
L634.772 83.9483
L635.012 80.3737
L635.253 83.8794
L635.373 83.2272
L635.613 87.1922
L635.734 87.4651
L635.854 86.9006
L635.974 83.6817
L636.215 85.6496
L636.575 82.4041
L636.696 82.4695
L636.816 86.1266
L636.936 85.8504
L637.177 82.4746
L637.297 82.1501
L637.538 84.8922
L637.658 84.6525
L637.898 82.9687
L638.019 83.3445
L638.259 82.8698
L638.379 84.3301
L638.5 84.379
L638.62 84.0981
L638.86 80.5555
L638.981 82.1524
L639.221 87.2387
L639.341 82.0748
L639.582 83.3252
L639.702 82.3145
L639.943 83.808
L640.063 82.9493
L640.183 83.1477
L640.303 86.5644
L640.424 86.0375
L640.544 83.6479
L640.664 85.0508
L640.905 81.4913
L641.025 85.217
L641.145 85.3194
L641.266 82.3039
L641.506 86.2103
L641.626 82.9298
L641.867 83.6036
L641.987 82.6533
L642.228 85.5828
L642.468 78.9225
L642.588 80.1856
L642.709 84.2038
L642.829 83.5406
L642.949 85.2637
L643.069 85.1624
L643.19 83.5672
L643.31 83.6514
L643.43 83.2961
L643.671 86.1933
L643.791 84.9208
L643.911 86.7842
L644.031 85.111
L644.152 81.5456
L644.392 85.3468
L644.513 84.9525
L644.753 83.2633
L644.873 83.3167
L644.994 82.5453
L645.114 82.9769
L645.234 84.2585
L645.234 84.2585" style="fill:none;stroke:#000000;stroke-linecap:square;"/>
   </g>
   <g id="matplotlib.axis_9"/>
   <g id="matplotlib.axis_10"/>
   <g id="patch_23">
    <path d="
M551.793 72
L648 72" style="fill:none;stroke:#000000;"/>
   </g>
   <g id="patch_24">
    <path d="
M648 168.207
L648 72" style="fill:none;stroke:#000000;"/>
   </g>
   <g id="patch_25">
    <path d="
M551.793 168.207
L648 168.207" style="fill:none;stroke:#000000;"/>
   </g>
   <g id="patch_26">
    <path d="
M551.793 168.207
L551.793 72" style="fill:none;stroke:#000000;"/>
   </g>
   <g id="text_5">
    <!-- true:4.0, pred:3.0  -->
    <g transform="translate(547.400301724 53.562625)scale(0.12 -0.12)">
     <use xlink:href="#BitstreamVeraSans-Roman-74"/>
     <use x="39.208984375" xlink:href="#BitstreamVeraSans-Roman-72"/>
     <use x="80.322265625" xlink:href="#BitstreamVeraSans-Roman-75"/>
     <use x="143.701171875" xlink:href="#BitstreamVeraSans-Roman-65"/>
     <use x="205.224609375" xlink:href="#BitstreamVeraSans-Roman-3a"/>
     <use x="238.916015625" xlink:href="#BitstreamVeraSans-Roman-34"/>
     <use x="302.5390625" xlink:href="#BitstreamVeraSans-Roman-2e"/>
     <use x="334.326171875" xlink:href="#BitstreamVeraSans-Roman-30"/>
     <use x="397.94921875" xlink:href="#BitstreamVeraSans-Roman-2c"/>
     <use x="429.736328125" xlink:href="#BitstreamVeraSans-Roman-20"/>
     <use x="461.5234375" xlink:href="#BitstreamVeraSans-Roman-70"/>
     <use x="525.0" xlink:href="#BitstreamVeraSans-Roman-72"/>
     <use x="563.86328125" xlink:href="#BitstreamVeraSans-Roman-65"/>
     <use x="625.38671875" xlink:href="#BitstreamVeraSans-Roman-64"/>
     <use x="688.86328125" xlink:href="#BitstreamVeraSans-Roman-3a"/>
     <use x="722.5546875" xlink:href="#BitstreamVeraSans-Roman-33"/>
     <use x="786.177734375" xlink:href="#BitstreamVeraSans-Roman-2e"/>
     <use x="817.96484375" xlink:href="#BitstreamVeraSans-Roman-30"/>
     <use x="881.587890625" xlink:href="#BitstreamVeraSans-Roman-20"/>
    </g>
    <!--  48per -->
    <defs>
     <path d="
M31.7812 34.625
Q24.75 34.625 20.7188 30.8594
Q16.7031 27.0938 16.7031 20.5156
Q16.7031 13.9219 20.7188 10.1562
Q24.75 6.39062 31.7812 6.39062
Q38.8125 6.39062 42.8594 10.1719
Q46.9219 13.9688 46.9219 20.5156
Q46.9219 27.0938 42.8906 30.8594
Q38.875 34.625 31.7812 34.625
M21.9219 38.8125
Q15.5781 40.375 12.0312 44.7188
Q8.5 49.0781 8.5 55.3281
Q8.5 64.0625 14.7188 69.1406
Q20.9531 74.2188 31.7812 74.2188
Q42.6719 74.2188 48.875 69.1406
Q55.0781 64.0625 55.0781 55.3281
Q55.0781 49.0781 51.5312 44.7188
Q48 40.375 41.7031 38.8125
Q48.8281 37.1562 52.7969 32.3125
Q56.7812 27.4844 56.7812 20.5156
Q56.7812 9.90625 50.3125 4.23438
Q43.8438 -1.42188 31.7812 -1.42188
Q19.7344 -1.42188 13.25 4.23438
Q6.78125 9.90625 6.78125 20.5156
Q6.78125 27.4844 10.7812 32.3125
Q14.7969 37.1562 21.9219 38.8125
M18.3125 54.3906
Q18.3125 48.7344 21.8438 45.5625
Q25.3906 42.3906 31.7812 42.3906
Q38.1406 42.3906 41.7188 45.5625
Q45.3125 48.7344 45.3125 54.3906
Q45.3125 60.0625 41.7188 63.2344
Q38.1406 66.4062 31.7812 66.4062
Q25.3906 66.4062 21.8438 63.2344
Q18.3125 60.0625 18.3125 54.3906" id="BitstreamVeraSans-Roman-38"/>
    </defs>
    <g transform="translate(580.387176724 67.0)scale(0.12 -0.12)">
     <use xlink:href="#BitstreamVeraSans-Roman-20"/>
     <use x="31.787109375" xlink:href="#BitstreamVeraSans-Roman-34"/>
     <use x="95.41015625" xlink:href="#BitstreamVeraSans-Roman-38"/>
     <use x="159.033203125" xlink:href="#BitstreamVeraSans-Roman-70"/>
     <use x="222.509765625" xlink:href="#BitstreamVeraSans-Roman-65"/>
     <use x="284.033203125" xlink:href="#BitstreamVeraSans-Roman-72"/>
    </g>
   </g>
  </g>
  <g id="axes_6">
   <g id="patch_27">
    <path d="
M90 283.655
L186.207 283.655
L186.207 187.448
L90 187.448
z
" style="fill:#ffffff;"/>
   </g>
   <g id="line2d_6">
    <path clip-path="url(#paa7f9e13be)" d="
M90 267.717
L90.3608 268.292
L90.481 267.893
L90.8418 268.352
L91.0823 267.721
L91.3228 267.981
L91.4431 268.017
L91.6836 268.38
L91.9241 268.106
L92.0444 267.937
L92.2849 268.535
L92.4052 268.421
L92.6457 267.874
L92.8862 267.943
L93.247 269.066
L93.6078 267.777
L93.728 267.819
L93.8483 267.998
L94.2091 267.827
L94.3293 267.958
L94.5698 269.045
L94.9306 268.614
L95.1711 267.826
L95.2914 268.067
L95.4116 267.975
L95.5319 268.191
L95.7724 270.5
L95.8927 270.093
L96.0129 270.125
L96.1332 270.038
L96.3737 268.167
L96.7345 268.616
L97.2155 267.606
L97.3358 267.621
L97.456 267.816
L97.6966 268.829
L97.8168 268.843
L97.9371 269.065
L98.0573 269.523
L98.1776 269.093
L98.4181 267.911
L98.7789 267.93
L98.8991 268.031
L99.0194 267.914
L99.1397 267.64
L99.2599 267.699
L99.7409 269.886
L99.8612 269.838
L100.222 268.168
L100.342 267.921
L100.703 268.188
L100.944 267.806
L101.184 268.678
L101.304 268.532
L101.425 267.988
L101.665 268.098
L102.026 267.513
L102.387 267.962
L102.627 267.256
L102.747 267.342
L102.868 267.605
L103.108 269.455
L103.469 267.222
L103.589 267.457
L103.83 267.388
L104.07 269.32
L104.191 269.276
L104.431 267.53
L104.551 267.465
L104.792 267.758
L105.153 267.581
L105.273 268.065
L105.513 269.766
L105.754 267.642
L105.874 267.492
L105.994 267.624
L106.235 268.616
L106.355 268.488
L106.596 267.719
L106.716 267.584
L106.956 267.635
L107.197 267.464
L107.558 267.758
L107.919 267.705
L108.159 267.903
L108.279 267.572
L108.4 267.582
L108.64 267.887
L108.881 267.759
L109.362 268.181
L109.722 267.625
L109.843 267.583
L110.203 267.81
L110.444 267.783
L110.564 267.647
L110.684 267.829
L110.925 267.717
L111.045 267.89
L111.166 267.84
L111.406 268.711
L111.526 268.615
L111.767 267.711
L112.729 267.647
L112.849 267.811
L113.09 268.502
L113.45 267.001
L113.931 267.138
L114.052 267.574
L114.292 269.59
L114.413 269.062
L114.653 267.724
L115.014 269.315
L115.134 270.887
L115.254 270.794
L115.615 267.477
L115.856 267.722
L116.096 267.43
L116.216 267.656
L116.577 268.977
L116.818 267.717
L116.938 267.624
L117.058 267.763
L117.178 267.494
L117.299 267.543
L117.659 268.099
L117.78 268.061
L118.02 267.761
L118.261 268.059
L118.381 268.44
L118.622 269.285
L118.862 267.809
L118.982 267.775
L119.103 267.582
L119.343 267.684
L119.463 267.642
L119.584 267.758
L119.824 267.503
L120.425 267.727
L120.546 267.582
L120.666 267.658
L120.906 267.564
L121.027 267.65
L121.267 267.61
L121.869 267.892
L121.989 267.824
L122.109 267.466
L122.229 267.51
L122.35 267.945
L122.59 269.302
L122.831 267.642
L122.951 267.588
L123.071 267.663
L123.432 268.413
L123.552 268.037
L123.793 268.055
L124.033 267.486
L124.274 267.583
L124.394 267.495
L124.634 267.934
L124.875 267.543
L125.116 267.336
L125.236 267.271
L125.476 267.364
L125.717 267.319
L125.837 267.388
L126.198 267.203
L126.318 267.326
L126.919 267.064
L127.28 267.986
L127.641 267.131
L127.761 267.626
L128.002 269.391
L128.363 266.972
L128.603 266.955
L128.844 267.34
L128.964 267.206
L129.204 266.701
L129.445 266.614
L129.685 267.442
L129.806 267.761
L129.926 267.124
L130.046 267.515
L130.166 268.293
L130.287 267.964
L130.527 266.217
L130.647 265.935
L131.008 265.956
L131.249 265.845
L131.489 265.627
L131.85 265.992
L132.091 267.446
L132.451 264.905
L132.572 265.206
L132.692 264.917
L132.932 263.478
L133.053 263.278
L133.534 261.202
L134.015 258.112
L134.135 258.197
L134.255 257.073
L135.217 233.101
L135.698 219.286
L135.939 213.015
L136.3 199.495
L136.42 199.579
L136.66 201.661
L136.781 200.764
L136.901 201.527
L137.622 226.439
L137.743 228.071
L138.584 250.717
L139.066 257.203
L139.787 262.674
L139.907 262.828
L140.629 264.724
L140.869 264.926
L141.23 267.067
L141.471 265.569
L142.192 266.301
L142.553 268.473
L142.794 266.644
L142.914 266.653
L143.034 266.904
L143.154 266.866
L143.635 267.093
L143.756 266.973
L143.996 267.18
L144.116 267.22
L144.237 267.098
L144.597 267.379
L144.958 267.453
L145.319 268.017
L145.68 267.318
L145.8 267.293
L146.041 267.437
L146.161 267.361
L146.522 267.754
L146.882 267.062
L147.123 267.271
L147.363 267.347
L147.484 267.348
L147.724 267.476
L147.965 268.48
L148.446 267.072
L148.566 267.03
L149.047 267.38
L149.288 267.358
L149.648 267.285
L149.889 267.29
L150.129 267.506
L150.25 267.528
L150.49 267.357
L150.731 267.426
L150.971 267.688
L151.212 267.422
L151.332 267.347
L151.572 267.964
L151.693 267.881
L151.933 267.59
L152.174 267.315
L152.655 267.802
L153.256 267.545
L153.497 267.609
L153.617 267.577
L153.978 268.212
L154.218 267.645
L154.338 267.676
L154.459 267.559
L154.579 267.625
L154.819 267.529
L154.94 267.547
L155.3 267.961
L155.541 267.419
L156.383 267.651
L156.623 267.601
L156.984 267.733
L157.465 267.54
L157.706 267.585
L157.946 267.544
L158.307 267.699
L158.668 267.518
L158.908 267.735
L159.389 267.64
L159.509 267.752
L159.75 267.661
L160.111 268.135
L160.351 268.124
L160.472 268.125
L160.832 267.672
L161.674 267.773
L162.035 267.608
L162.396 267.757
L162.636 267.658
L163.238 267.721
L163.358 267.619
L163.478 267.716
L163.719 267.528
L163.959 267.717
L164.32 267.608
L164.44 267.754
L164.801 267.732
L164.921 267.814
L165.162 267.549
L165.282 267.662
L165.402 267.553
L165.522 267.619
L165.643 267.862
L166.003 267.684
L166.244 267.68
L166.484 267.728
L166.605 267.864
L166.845 267.619
L166.966 267.534
L167.326 267.794
L167.447 267.834
L167.567 267.586
L167.807 267.838
L168.048 267.635
L169.01 267.589
L169.25 267.777
L169.611 267.81
L170.213 267.432
L170.453 267.637
L170.573 267.638
L170.814 267.814
L171.175 267.694
L171.295 267.541
L171.535 267.628
L171.656 267.495
L172.016 267.718
L172.257 267.574
L172.497 267.702
L172.738 267.559
L172.978 267.715
L173.099 267.743
L173.219 267.578
L173.339 267.802
L173.58 267.454
L173.941 267.764
L174.422 267.672
L174.542 267.704
L174.782 267.584
L175.143 267.84
L175.744 267.495
L176.105 267.728
L176.346 267.56
L176.466 267.505
L176.586 267.592
L176.706 267.423
L176.947 267.734
L177.067 267.588
L177.188 267.701
L177.428 267.492
L177.669 267.639
L177.789 267.546
L177.909 267.68
L178.27 267.462
L178.51 267.671
L178.871 267.702
L179.112 267.427
L179.352 267.848
L179.713 267.533
L180.194 267.628
L180.555 267.629
L180.675 267.796
L180.795 267.567
L181.036 267.753
L181.156 267.422
L181.397 267.719
L181.878 267.507
L182.118 267.755
L182.238 267.815
L182.479 267.665
L182.599 267.793
L182.96 267.656
L183.2 267.799
L183.321 267.58
L183.441 267.626
L183.441 267.626" style="fill:none;stroke:#000000;stroke-linecap:square;"/>
   </g>
   <g id="matplotlib.axis_11"/>
   <g id="matplotlib.axis_12"/>
   <g id="patch_28">
    <path d="
M90 187.448
L186.207 187.448" style="fill:none;stroke:#000000;"/>
   </g>
   <g id="patch_29">
    <path d="
M186.207 283.655
L186.207 187.448" style="fill:none;stroke:#000000;"/>
   </g>
   <g id="patch_30">
    <path d="
M90 283.655
L186.207 283.655" style="fill:none;stroke:#000000;"/>
   </g>
   <g id="patch_31">
    <path d="
M90 283.655
L90 187.448" style="fill:none;stroke:#000000;"/>
   </g>
   <g id="text_6">
    <!-- true:2.0, pred:1.0  -->
    <g transform="translate(85.6071982759 169.010900862)scale(0.12 -0.12)">
     <use xlink:href="#BitstreamVeraSans-Roman-74"/>
     <use x="39.208984375" xlink:href="#BitstreamVeraSans-Roman-72"/>
     <use x="80.322265625" xlink:href="#BitstreamVeraSans-Roman-75"/>
     <use x="143.701171875" xlink:href="#BitstreamVeraSans-Roman-65"/>
     <use x="205.224609375" xlink:href="#BitstreamVeraSans-Roman-3a"/>
     <use x="238.916015625" xlink:href="#BitstreamVeraSans-Roman-32"/>
     <use x="302.5390625" xlink:href="#BitstreamVeraSans-Roman-2e"/>
     <use x="334.326171875" xlink:href="#BitstreamVeraSans-Roman-30"/>
     <use x="397.94921875" xlink:href="#BitstreamVeraSans-Roman-2c"/>
     <use x="429.736328125" xlink:href="#BitstreamVeraSans-Roman-20"/>
     <use x="461.5234375" xlink:href="#BitstreamVeraSans-Roman-70"/>
     <use x="525.0" xlink:href="#BitstreamVeraSans-Roman-72"/>
     <use x="563.86328125" xlink:href="#BitstreamVeraSans-Roman-65"/>
     <use x="625.38671875" xlink:href="#BitstreamVeraSans-Roman-64"/>
     <use x="688.86328125" xlink:href="#BitstreamVeraSans-Roman-3a"/>
     <use x="722.5546875" xlink:href="#BitstreamVeraSans-Roman-31"/>
     <use x="786.177734375" xlink:href="#BitstreamVeraSans-Roman-2e"/>
     <use x="817.96484375" xlink:href="#BitstreamVeraSans-Roman-30"/>
     <use x="881.587890625" xlink:href="#BitstreamVeraSans-Roman-20"/>
    </g>
    <!--  kappaDra -->
    <defs>
     <path d="
M19.6719 64.7969
L19.6719 8.10938
L31.5938 8.10938
Q46.6875 8.10938 53.6875 14.9375
Q60.6875 21.7812 60.6875 36.5312
Q60.6875 51.1719 53.6875 57.9844
Q46.6875 64.7969 31.5938 64.7969
z

M9.8125 72.9062
L30.0781 72.9062
Q51.2656 72.9062 61.1719 64.0938
Q71.0938 55.2812 71.0938 36.5312
Q71.0938 17.6719 61.125 8.82812
Q51.1719 0 30.0781 0
L9.8125 0
z
" id="BitstreamVeraSans-Roman-44"/>
     <path d="
M9.07812 75.9844
L18.1094 75.9844
L18.1094 31.1094
L44.9219 54.6875
L56.3906 54.6875
L27.3906 29.1094
L57.625 0
L45.9062 0
L18.1094 26.7031
L18.1094 0
L9.07812 0
z
" id="BitstreamVeraSans-Roman-6b"/>
    </defs>
    <g transform="translate(107.636573276 182.448275862)scale(0.12 -0.12)">
     <use xlink:href="#BitstreamVeraSans-Roman-20"/>
     <use x="31.787109375" xlink:href="#BitstreamVeraSans-Roman-6b"/>
     <use x="87.947265625" xlink:href="#BitstreamVeraSans-Roman-61"/>
     <use x="149.2265625" xlink:href="#BitstreamVeraSans-Roman-70"/>
     <use x="212.703125" xlink:href="#BitstreamVeraSans-Roman-70"/>
     <use x="276.1796875" xlink:href="#BitstreamVeraSans-Roman-61"/>
     <use x="337.458984375" xlink:href="#BitstreamVeraSans-Roman-44"/>
     <use x="414.4609375" xlink:href="#BitstreamVeraSans-Roman-72"/>
     <use x="455.57421875" xlink:href="#BitstreamVeraSans-Roman-61"/>
    </g>
   </g>
  </g>
  <g id="axes_7">
   <g id="patch_32">
    <path d="
M205.448 283.655
L301.655 283.655
L301.655 187.448
L205.448 187.448
z
" style="fill:#ffffff;"/>
   </g>
   <g id="line2d_7">
    <path clip-path="url(#pc3a1c6e615)" d="
M205.448 271.475
L205.569 271.996
L205.689 271.992
L205.809 271.782
L205.929 272.239
L206.17 271.53
L206.29 271.699
L206.41 272.126
L206.651 271.363
L206.891 272.59
L207.132 271.789
L207.252 272.328
L207.372 271.742
L207.493 271.804
L207.613 272.708
L207.974 271.561
L208.094 271.668
L208.214 272.343
L208.334 272.262
L208.455 271.824
L208.695 271.919
L208.816 272.491
L208.936 272.431
L209.176 271.767
L209.297 272.667
L209.537 271.532
L209.657 271.732
L209.898 271.179
L210.379 272.823
L210.619 271.772
L210.74 272.3
L210.86 272.105
L210.98 271.555
L211.1 271.615
L211.221 272.092
L211.461 274.42
L211.702 273.389
L211.942 271.14
L212.063 271.457
L212.183 272.484
L212.423 272.048
L212.544 272.396
L212.784 271.839
L213.025 271.18
L213.265 273.072
L213.506 272.289
L213.746 272.971
L213.987 271.691
L214.107 271.434
L214.227 271.809
L214.468 271.358
L214.588 271.418
L214.828 271.653
L214.949 271.469
L215.069 271.721
L215.189 272.794
L215.309 272.841
L215.43 272.374
L215.55 272.965
L215.791 272.286
L215.911 271.424
L216.031 271.471
L216.272 272.112
L216.512 271.177
L216.632 271.391
L216.753 272.461
L216.873 272.331
L216.993 271.953
L217.113 272.013
L217.234 271.936
L217.474 271.392
L217.715 272.287
L217.955 271.34
L218.075 271.33
L218.196 270.968
L218.316 270.983
L218.436 270.558
L218.677 272.652
L218.797 272.501
L218.917 272.295
L219.158 270.634
L219.398 271.056
L219.519 271.046
L219.639 271.319
L219.879 272.6
L220.12 270.963
L220.24 271.088
L220.36 270.535
L220.481 271.226
L220.601 271.26
L220.721 270.403
L220.962 272.291
L221.082 272.592
L221.202 272.576
L221.443 272.061
L221.563 270.995
L221.803 271.571
L221.924 271.847
L222.044 271.842
L222.164 271.117
L222.284 271.278
L222.405 271.7
L222.525 271.435
L222.645 271.498
L222.766 271.806
L222.886 271.259
L223.006 271.717
L223.126 271.585
L223.247 271.086
L223.367 271.339
L223.487 272.158
L223.607 272.077
L223.728 271.566
L223.848 271.697
L224.088 272.13
L224.329 271.446
L224.449 271.303
L224.569 271.708
L224.69 271.684
L224.81 271.533
L225.05 272.052
L225.411 271.463
L225.531 271.212
L225.652 271.493
L226.013 271.076
L226.133 271.388
L226.253 270.943
L226.373 271.423
L226.494 272.564
L226.854 271.253
L227.095 272.182
L227.215 271.925
L227.335 271.947
L227.576 270.977
L227.816 271.756
L227.937 271.387
L228.177 272.013
L228.297 271.935
L228.418 272.209
L228.538 272.194
L228.778 271.768
L228.899 272.041
L229.019 271.299
L229.139 271.452
L229.259 271.391
L229.38 270.277
L229.5 270.215
L229.62 270.517
L229.861 272.344
L229.981 271.898
L230.101 270.894
L230.342 271.554
L230.462 271.254
L230.582 271.553
L230.823 273.525
L230.943 273.06
L231.184 271.861
L231.424 271.229
L231.665 272.486
L231.905 271.21
L232.146 272.219
L232.386 271.222
L232.506 271.854
L232.747 271.03
L232.867 271.188
L232.988 270.814
L233.108 270.974
L233.469 272.348
L233.829 271.365
L234.31 272.333
L234.431 271.521
L234.671 271.999
L234.791 271.42
L234.912 271.531
L235.032 272.329
L235.152 272.096
L235.393 271.139
L235.633 272.216
L235.753 271.841
L235.874 272.559
L235.994 272.604
L236.114 271.607
L236.234 272.232
L236.355 271.965
L236.475 271.249
L236.716 271.38
L236.836 271.143
L237.076 271.642
L237.317 271.255
L237.437 271.184
L237.678 271.64
L237.918 271.333
L238.038 271.366
L238.279 272.439
L238.519 271.457
L238.64 272.026
L238.88 271.353
L239 272.088
L239.241 271.762
L239.361 271.865
L239.722 271.204
L239.963 271.417
L240.083 271.38
L240.203 270.679
L240.564 271.919
L240.684 271.945
L240.925 270.906
L241.045 271.538
L241.165 271.322
L241.285 271.636
L241.406 271.26
L241.526 271.496
L241.766 270.798
L242.007 271.523
L242.488 270.702
L242.608 271.09
L242.728 271.981
L242.969 271.411
L243.089 271.637
L243.209 271.429
L243.33 270.251
L243.45 270.335
L243.691 272.227
L243.811 271.897
L244.051 270.747
L244.172 270.706
L244.412 271.307
L244.532 271.01
L244.653 270.345
L244.773 271.102
L245.134 270.268
L245.374 270.848
L245.494 270.891
L245.615 270.765
L245.735 272.265
L245.855 271.889
L245.975 270.146
L246.216 270.891
L246.456 270.129
L246.577 270.348
L246.817 270.026
L246.938 269.8
L247.058 270.198
L247.298 268.867
L247.419 269.202
L247.659 270.497
L247.779 270.213
L248.02 268.44
L248.14 269.158
L248.26 268.489
L248.381 268.607
L248.862 266.426
L249.102 266.587
L249.583 263.055
L249.703 263.588
L249.824 263.107
L250.305 255.457
L251.507 218.526
L251.628 216.996
L251.868 207.882
L252.109 197.918
L252.469 201.26
L253.191 227.416
L253.311 227.514
L253.431 229.217
L254.153 252.311
L254.634 260.488
L254.875 262.402
L255.476 266.841
L255.596 266.576
L255.716 266.817
L256.077 268.359
L256.197 268.129
L256.318 267.616
L256.678 270.121
L256.799 270.262
L257.159 269.852
L257.28 269.884
L257.4 269.612
L257.641 269.803
L257.881 270.187
L258.001 270.358
L258.122 271.772
L258.242 271.756
L258.482 270.456
L258.603 270.584
L258.723 270.525
L258.843 270.032
L259.204 270.482
L259.444 271.431
L259.565 271
L259.805 271.362
L259.925 271.263
L260.166 271.781
L260.286 271.589
L260.406 270.985
L260.647 271.067
L260.887 272.143
L261.008 271.702
L261.128 270.814
L261.248 270.92
L261.369 271.37
L261.489 271.272
L261.729 270.884
L261.85 271.155
L262.09 272.001
L262.21 271.84
L262.331 271.285
L262.451 271.348
L262.571 271.281
L262.691 270.862
L262.932 271.229
L263.172 271.404
L263.413 270.669
L263.653 271.873
L264.134 270.554
L264.255 270.697
L264.495 271.743
L264.856 271.234
L264.976 271.657
L265.337 271.123
L265.578 271.473
L265.698 271.546
L265.818 271.096
L266.059 271.144
L266.179 271.436
L266.419 270.599
L266.66 271.46
L266.78 271.187
L267.141 272.408
L267.381 271.694
L267.502 272.335
L267.742 271.428
L267.863 271.413
L267.983 271.749
L268.103 271.106
L268.223 271.214
L268.464 271.856
L268.584 271.805
L268.825 272.235
L269.065 271.486
L269.185 272.114
L269.306 272.049
L269.426 271.245
L269.787 272.034
L270.268 271.31
L270.388 272.045
L270.508 271.691
L270.628 271.905
L270.869 271.616
L271.109 272.038
L271.23 271.546
L271.35 271.54
L271.47 272.192
L271.711 271.36
L271.831 271.916
L272.072 271.634
L272.192 271.65
L272.432 271.078
L272.673 271.558
L272.793 271.252
L272.913 271.407
L273.034 271.983
L273.154 271.849
L273.394 271.401
L273.515 271.646
L273.635 271.055
L273.755 272.074
L273.875 272.053
L273.996 271.572
L274.236 272.075
L274.356 272.215
L274.597 271.786
L274.717 271.85
L274.958 271.395
L275.198 272.124
L275.319 272.202
L275.559 271.526
L275.8 272.122
L275.92 272.235
L276.16 272.769
L276.401 272.256
L276.521 272.358
L276.762 271.74
L276.882 271.946
L277.002 271.106
L277.243 272.109
L277.483 271.426
L277.603 272.418
L277.724 272.128
L277.964 270.999
L278.084 271.184
L278.325 271.97
L278.566 272.16
L278.806 271.986
L278.926 272.486
L279.047 271.953
L279.167 272.571
L279.407 271.715
L279.528 271.855
L279.648 271.411
L279.888 271.547
L280.009 272.195
L280.129 271.747
L280.369 271.791
L280.49 271.015
L280.61 271.883
L280.73 271.525
L280.85 271.553
L280.971 272.332
L281.211 272.04
L281.331 271.973
L281.572 271.557
L281.933 272.048
L282.053 271.273
L282.173 271.39
L282.414 272.35
L282.775 271.394
L282.895 271.635
L283.015 272.136
L283.135 271.532
L283.256 271.88
L283.376 271.864
L283.616 272.09
L283.737 271.481
L283.857 271.672
L283.977 272.219
L284.097 272.052
L284.218 271.342
L284.338 271.354
L284.578 272.192
L284.819 271.782
L284.939 271.636
L285.18 271.91
L285.42 271.918
L285.541 270.839
L285.661 270.968
L286.022 272.116
L286.142 271.65
L286.503 272.13
L286.623 272.058
L286.743 271.448
L287.104 271.65
L287.224 271.543
L287.344 271.875
L287.465 271.704
L287.585 271.938
L287.705 271.651
L287.825 272.194
L287.946 271.26
L288.066 271.532
L288.186 272.296
L288.306 271.525
L288.547 272.483
L288.788 271.48
L289.028 271.954
L289.269 271.905
L289.389 271.742
L289.509 271.237
L289.87 272.107
L290.231 271.777
L290.351 271.774
L290.471 271.913
L290.591 271.59
L290.832 272.45
L291.072 271.784
L291.193 272.382
L291.433 271.285
L291.674 271.717
L291.794 271.541
L291.914 271.613
L292.155 272.123
L292.516 271.648
L292.756 272.262
L292.997 271.662
L293.117 271.628
L293.237 271.798
L293.357 271.707
L293.478 271.163
L293.598 271.333
L293.718 272.292
L293.959 271.296
L294.079 271.425
L294.199 271.882
L294.319 271.865
L294.44 271.706
L294.56 271.894
L294.68 272.445
L294.8 271.643
L294.921 271.709
L295.041 271.91
L295.161 271.574
L295.281 270.859
L295.402 271.287
L295.642 271.359
L295.762 271.759
L296.003 271.089
L296.364 272.115
L296.484 272.038
L296.604 271.607
L296.725 271.707
L296.965 271.297
L297.085 271.289
L297.206 271.469
L297.446 272.172
L297.566 271.595
L297.687 272.175
L297.807 271.792
L297.927 272.022
L298.047 272.637
L298.168 271.594
L298.288 271.801
L298.528 272.736
L298.769 271.924
L298.889 272.175
L298.889 272.175" style="fill:none;stroke:#000000;stroke-linecap:square;"/>
   </g>
   <g id="matplotlib.axis_13"/>
   <g id="matplotlib.axis_14"/>
   <g id="patch_33">
    <path d="
M205.448 187.448
L301.655 187.448" style="fill:none;stroke:#000000;"/>
   </g>
   <g id="patch_34">
    <path d="
M301.655 283.655
L301.655 187.448" style="fill:none;stroke:#000000;"/>
   </g>
   <g id="patch_35">
    <path d="
M205.448 283.655
L301.655 283.655" style="fill:none;stroke:#000000;"/>
   </g>
   <g id="patch_36">
    <path d="
M205.448 283.655
L205.448 187.448" style="fill:none;stroke:#000000;"/>
   </g>
   <g id="text_7">
    <!-- true:2.0, pred:1.0  -->
    <g transform="translate(201.055474138 169.010900862)scale(0.12 -0.12)">
     <use xlink:href="#BitstreamVeraSans-Roman-74"/>
     <use x="39.208984375" xlink:href="#BitstreamVeraSans-Roman-72"/>
     <use x="80.322265625" xlink:href="#BitstreamVeraSans-Roman-75"/>
     <use x="143.701171875" xlink:href="#BitstreamVeraSans-Roman-65"/>
     <use x="205.224609375" xlink:href="#BitstreamVeraSans-Roman-3a"/>
     <use x="238.916015625" xlink:href="#BitstreamVeraSans-Roman-32"/>
     <use x="302.5390625" xlink:href="#BitstreamVeraSans-Roman-2e"/>
     <use x="334.326171875" xlink:href="#BitstreamVeraSans-Roman-30"/>
     <use x="397.94921875" xlink:href="#BitstreamVeraSans-Roman-2c"/>
     <use x="429.736328125" xlink:href="#BitstreamVeraSans-Roman-20"/>
     <use x="461.5234375" xlink:href="#BitstreamVeraSans-Roman-70"/>
     <use x="525.0" xlink:href="#BitstreamVeraSans-Roman-72"/>
     <use x="563.86328125" xlink:href="#BitstreamVeraSans-Roman-65"/>
     <use x="625.38671875" xlink:href="#BitstreamVeraSans-Roman-64"/>
     <use x="688.86328125" xlink:href="#BitstreamVeraSans-Roman-3a"/>
     <use x="722.5546875" xlink:href="#BitstreamVeraSans-Roman-31"/>
     <use x="786.177734375" xlink:href="#BitstreamVeraSans-Roman-2e"/>
     <use x="817.96484375" xlink:href="#BitstreamVeraSans-Roman-30"/>
     <use x="881.587890625" xlink:href="#BitstreamVeraSans-Roman-20"/>
    </g>
    <!--  adleo -->
    <defs>
     <path d="
M9.42188 75.9844
L18.4062 75.9844
L18.4062 0
L9.42188 0
z
" id="BitstreamVeraSans-Roman-6c"/>
    </defs>
    <g transform="translate(235.457036638 182.448275862)scale(0.12 -0.12)">
     <use xlink:href="#BitstreamVeraSans-Roman-20"/>
     <use x="31.787109375" xlink:href="#BitstreamVeraSans-Roman-61"/>
     <use x="93.06640625" xlink:href="#BitstreamVeraSans-Roman-64"/>
     <use x="156.54296875" xlink:href="#BitstreamVeraSans-Roman-6c"/>
     <use x="184.326171875" xlink:href="#BitstreamVeraSans-Roman-65"/>
     <use x="245.849609375" xlink:href="#BitstreamVeraSans-Roman-6f"/>
    </g>
   </g>
  </g>
  <g id="axes_8">
   <g id="patch_37">
    <path d="
M320.897 283.655
L417.103 283.655
L417.103 187.448
L320.897 187.448
z
" style="fill:#ffffff;"/>
   </g>
   <g id="line2d_8">
    <path clip-path="url(#pb5b2181504)" d="
M320.897 270.278
L321.257 270.168
L321.378 270.442
L321.498 270.33
L321.738 269.943
L321.979 269.928
L322.219 270.377
L322.34 270.272
L322.58 270.056
L322.7 270.011
L323.061 270.282
L323.542 269.976
L323.903 270.78
L324.264 269.992
L324.504 270.049
L324.745 269.966
L324.985 270.157
L325.226 270.692
L326.068 269.989
L326.188 270.338
L326.428 271.725
L326.789 271.418
L327.03 270.26
L327.15 270.241
L327.391 270.505
L327.872 269.716
L328.232 270.076
L328.353 270.557
L328.473 270.489
L328.713 271.187
L329.194 270.033
L329.315 269.951
L329.435 270.1
L329.916 269.84
L330.036 270.225
L330.277 271.338
L330.517 271.259
L330.878 270.197
L331.239 270.138
L331.359 270.228
L331.6 269.813
L331.96 270.404
L332.201 269.915
L332.441 269.857
L332.682 269.657
L332.802 269.601
L332.922 269.921
L333.043 269.897
L333.283 269.539
L333.403 269.525
L333.524 269.757
L333.764 270.997
L334.125 269.479
L334.245 269.354
L334.486 269.64
L334.726 270.8
L334.847 270.744
L335.087 269.525
L335.207 269.474
L335.448 269.751
L335.809 269.417
L336.169 270.93
L336.41 269.628
L336.65 269.709
L336.891 270.369
L337.011 270.294
L337.372 269.664
L337.733 269.826
L337.973 269.753
L338.214 269.883
L338.454 269.792
L338.815 269.86
L339.056 269.722
L339.416 269.984
L339.657 269.964
L340.138 269.935
L340.378 269.678
L340.499 269.827
L340.739 269.792
L341.1 269.728
L341.341 269.772
L341.701 270.073
L341.822 270.004
L342.182 270.409
L342.423 269.853
L342.663 269.742
L343.505 269.746
L343.746 270.22
L344.227 268.937
L344.347 268.995
L344.588 268.839
L344.708 269.095
L344.948 270.72
L345.069 270.285
L345.309 269.344
L345.55 269.913
L345.79 271.872
L345.91 271.835
L346.271 269.424
L346.512 269.529
L346.872 268.99
L347.233 269.968
L347.474 269.213
L347.714 269.314
L348.075 269.553
L348.556 270.016
L348.676 269.92
L348.917 270.086
L349.278 270.934
L349.518 269.854
L350.24 269.936
L350.48 269.742
L350.6 269.744
L350.961 269.95
L351.081 269.976
L351.322 269.666
L351.683 269.778
L351.803 269.776
L351.923 269.658
L352.164 269.847
L352.525 270.087
L352.765 269.76
L352.885 269.803
L353.006 270.013
L353.246 270.988
L353.607 269.768
L353.727 269.795
L353.968 270.411
L354.088 270.284
L354.328 269.84
L354.449 269.913
L354.809 269.681
L355.05 269.746
L355.291 270.043
L355.772 269.555
L356.012 269.664
L356.253 269.589
L356.493 269.657
L356.734 269.586
L356.854 269.734
L357.215 269.532
L357.575 269.473
L357.936 270.042
L358.177 269.726
L358.297 269.686
L358.417 269.988
L358.658 271.198
L359.019 269.569
L359.62 269.69
L359.86 269.334
L359.981 269.404
L360.101 269.257
L360.462 269.96
L360.582 269.715
L360.702 269.89
L360.822 270.469
L360.943 270.245
L361.183 269.216
L361.664 268.876
L361.905 268.73
L362.025 268.698
L362.145 268.545
L362.386 268.716
L362.506 268.929
L362.747 269.811
L363.107 268.07
L363.228 268.173
L363.468 267.42
L364.19 264.731
L364.911 259.064
L365.513 246.877
L365.994 229.167
L366.354 217.98
L366.475 217.435
L366.595 216.297
L366.835 207.111
L367.076 199.393
L368.038 209.384
L368.158 209.368
L368.278 207.919
L368.399 208.095
L369.962 252.604
L370.443 259.487
L371.165 265.348
L371.886 268.724
L372.127 268.022
L372.488 268.511
L372.608 268.413
L372.848 268.812
L373.089 270.385
L373.209 270.3
L373.45 269.194
L373.931 269.452
L374.171 269.461
L375.133 269.609
L375.253 269.745
L375.614 269.633
L375.975 270.185
L376.336 269.812
L376.576 269.785
L377.178 270.001
L377.659 269.562
L378.26 269.806
L378.5 270.054
L378.621 270.357
L379.222 269.684
L379.583 269.842
L380.064 269.66
L380.184 269.713
L380.425 269.591
L380.665 269.733
L381.266 269.884
L381.507 269.876
L382.469 269.88
L382.589 269.782
L382.83 269.829
L383.311 269.861
L383.672 269.952
L384.153 269.975
L384.393 270.139
L384.754 270.253
L384.994 269.946
L385.235 269.985
L385.475 269.983
L386.678 269.939
L386.798 269.882
L386.919 270.045
L387.159 269.935
L387.4 269.974
L387.52 269.973
L387.64 269.852
L387.881 269.967
L388.121 269.937
L388.482 269.982
L388.843 269.822
L389.083 269.95
L389.324 269.867
L389.564 270.114
L389.805 269.961
L390.526 269.994
L390.647 270.176
L391.128 269.958
L391.368 269.834
L391.609 270.058
L391.849 269.962
L392.21 270.011
L392.571 269.945
L392.811 269.965
L393.292 269.966
L393.413 269.881
L393.533 269.996
L393.894 269.911
L394.375 269.919
L394.495 270.001
L394.615 269.925
L394.856 269.995
L395.577 269.932
L395.697 270.015
L396.058 269.819
L396.419 269.968
L396.659 269.824
L396.9 269.947
L397.141 269.945
L397.381 269.946
L397.622 269.829
L397.862 269.889
L397.982 269.885
L398.103 269.996
L398.584 269.914
L398.824 270.015
L399.065 269.918
L399.425 269.97
L399.666 269.862
L399.906 269.963
L400.628 269.976
L400.869 269.869
L401.229 269.954
L401.59 269.915
L401.831 269.939
L402.071 269.873
L402.312 269.937
L402.672 269.911
L403.875 269.941
L403.995 270.088
L404.236 269.847
L404.476 269.958
L404.717 270.083
L404.957 270.148
L405.318 269.859
L405.438 270.068
L405.919 269.875
L406.16 269.996
L406.4 269.944
L406.521 269.869
L406.761 269.975
L407.122 269.946
L407.363 270.008
L407.483 269.902
L407.844 270.095
L408.084 269.971
L408.204 269.816
L409.046 269.981
L410.73 270.048
L410.97 269.886
L411.572 269.992
L412.173 269.884
L412.293 270.115
L412.894 270.01
L413.135 270.098
L413.616 270.064
L414.338 270.008
L414.338 270.008" style="fill:none;stroke:#000000;stroke-linecap:square;"/>
   </g>
   <g id="matplotlib.axis_15"/>
   <g id="matplotlib.axis_16"/>
   <g id="patch_38">
    <path d="
M320.897 187.448
L417.103 187.448" style="fill:none;stroke:#000000;"/>
   </g>
   <g id="patch_39">
    <path d="
M417.103 283.655
L417.103 187.448" style="fill:none;stroke:#000000;"/>
   </g>
   <g id="patch_40">
    <path d="
M320.897 283.655
L417.103 283.655" style="fill:none;stroke:#000000;"/>
   </g>
   <g id="patch_41">
    <path d="
M320.897 283.655
L320.897 187.448" style="fill:none;stroke:#000000;"/>
   </g>
   <g id="text_8">
    <!-- true:1.0, pred:2.0  -->
    <g transform="translate(316.50375 169.010900862)scale(0.12 -0.12)">
     <use xlink:href="#BitstreamVeraSans-Roman-74"/>
     <use x="39.208984375" xlink:href="#BitstreamVeraSans-Roman-72"/>
     <use x="80.322265625" xlink:href="#BitstreamVeraSans-Roman-75"/>
     <use x="143.701171875" xlink:href="#BitstreamVeraSans-Roman-65"/>
     <use x="205.224609375" xlink:href="#BitstreamVeraSans-Roman-3a"/>
     <use x="238.916015625" xlink:href="#BitstreamVeraSans-Roman-31"/>
     <use x="302.5390625" xlink:href="#BitstreamVeraSans-Roman-2e"/>
     <use x="334.326171875" xlink:href="#BitstreamVeraSans-Roman-30"/>
     <use x="397.94921875" xlink:href="#BitstreamVeraSans-Roman-2c"/>
     <use x="429.736328125" xlink:href="#BitstreamVeraSans-Roman-20"/>
     <use x="461.5234375" xlink:href="#BitstreamVeraSans-Roman-70"/>
     <use x="525.0" xlink:href="#BitstreamVeraSans-Roman-72"/>
     <use x="563.86328125" xlink:href="#BitstreamVeraSans-Roman-65"/>
     <use x="625.38671875" xlink:href="#BitstreamVeraSans-Roman-64"/>
     <use x="688.86328125" xlink:href="#BitstreamVeraSans-Roman-3a"/>
     <use x="722.5546875" xlink:href="#BitstreamVeraSans-Roman-32"/>
     <use x="786.177734375" xlink:href="#BitstreamVeraSans-Roman-2e"/>
     <use x="817.96484375" xlink:href="#BitstreamVeraSans-Roman-30"/>
     <use x="881.587890625" xlink:href="#BitstreamVeraSans-Roman-20"/>
    </g>
    <!--  adleo -->
    <g transform="translate(350.9053125 182.448275862)scale(0.12 -0.12)">
     <use xlink:href="#BitstreamVeraSans-Roman-20"/>
     <use x="31.787109375" xlink:href="#BitstreamVeraSans-Roman-61"/>
     <use x="93.06640625" xlink:href="#BitstreamVeraSans-Roman-64"/>
     <use x="156.54296875" xlink:href="#BitstreamVeraSans-Roman-6c"/>
     <use x="184.326171875" xlink:href="#BitstreamVeraSans-Roman-65"/>
     <use x="245.849609375" xlink:href="#BitstreamVeraSans-Roman-6f"/>
    </g>
   </g>
  </g>
 </g>
 <defs>
  <clipPath id="p707f87add5">
   <rect height="96.2068965517" width="96.2068965517" x="205.448275862" y="72.0"/>
  </clipPath>
  <clipPath id="pf68211e43b">
   <rect height="96.2068965517" width="96.2068965517" x="90.0" y="72.0"/>
  </clipPath>
  <clipPath id="pc3a1c6e615">
   <rect height="96.2068965517" width="96.2068965517" x="205.448275862" y="187.448275862"/>
  </clipPath>
  <clipPath id="pf3fe77fffd">
   <rect height="96.2068965517" width="96.2068965517" x="551.793103448" y="72.0"/>
  </clipPath>
  <clipPath id="p7fc8e9000b">
   <rect height="96.2068965517" width="96.2068965517" x="436.344827586" y="72.0"/>
  </clipPath>
  <clipPath id="paa7f9e13be">
   <rect height="96.2068965517" width="96.2068965517" x="90.0" y="187.448275862"/>
  </clipPath>
  <clipPath id="pb5b2181504">
   <rect height="96.2068965517" width="96.2068965517" x="320.896551724" y="187.448275862"/>
  </clipPath>
  <clipPath id="pe5b1fd4b54">
   <rect height="96.2068965517" width="96.2068965517" x="320.896551724" y="72.0"/>
  </clipPath>
 </defs>
</svg>
